FontWithASyntaxHighlighter-BlackItalic.ufo
<glyph name="percent" format="2">
  <advance width="1240"/>
  <unicode hex="0025"/>
  <outline>
    <contour>
      <point x="399" y="938" type="curve" smooth="yes"/>
      <point x="549" y="938"/>
      <point x="652" y="1040"/>
      <point x="684" y="1202" type="curve" smooth="yes"/>
      <point x="715" y="1364"/>
      <point x="635" y="1484"/>
      <point x="485" y="1484" type="curve" smooth="yes"/>
      <point x="335" y="1484"/>
      <point x="233" y="1384"/>
      <point x="202" y="1222" type="curve" smooth="yes"/>
      <point x="170" y="1060"/>
      <point x="249" y="938"/>
    </contour>
    <contour>
      <point x="415" y="1071" type="curve" smooth="yes"/>
      <point x="364" y="1071"/>
      <point x="343" y="1114"/>
      <point x="362" y="1212" type="curve" smooth="yes"/>
      <point x="381" y="1310"/>
      <point x="419" y="1351"/>
      <point x="470" y="1351" type="curve" smooth="yes"/>
      <point x="522" y="1351"/>
      <point x="543" y="1310"/>
      <point x="524" y="1212" type="curve" smooth="yes"/>
      <point x="505" y="1114"/>
      <point x="467" y="1071"/>
    </contour>
    <contour>
      <point x="826" y="-24" type="curve" smooth="yes"/>
      <point x="976" y="-24"/>
      <point x="1079" y="78"/>
      <point x="1111" y="240" type="curve" smooth="yes"/>
      <point x="1142" y="402"/>
      <point x="1062" y="522"/>
      <point x="912" y="522" type="curve" smooth="yes"/>
      <point x="763" y="522"/>
      <point x="660" y="422"/>
      <point x="629" y="260" type="curve" smooth="yes"/>
      <point x="597" y="98"/>
      <point x="677" y="-24"/>
    </contour>
    <contour>
      <point x="842" y="109" type="curve" smooth="yes"/>
      <point x="791" y="109"/>
      <point x="770" y="152"/>
      <point x="789" y="250" type="curve" smooth="yes"/>
      <point x="808" y="348"/>
      <point x="846" y="389"/>
      <point x="897" y="389" type="curve" smooth="yes"/>
      <point x="949" y="389"/>
      <point x="970" y="348"/>
      <point x="951" y="250" type="curve" smooth="yes"/>
      <point x="932" y="152"/>
      <point x="894" y="109"/>
    </contour>
    <contour>
      <point x="219" y="0" type="line"/>
      <point x="1278" y="1460" type="line"/>
      <point x="1093" y="1460" type="line"/>
      <point x="34" y="0" type="line"/>
    </contour>
  </outline>
</glyph>
<glyph name="quotesingle" format="2">
  <advance width="1240"/>
  <unicode hex="0027"/>
  <outline>
    <contour>
      <point x="795" y="744" type="line"/>
      <point x="961" y="1460" type="line"/>
      <point x="638" y="1460" type="line"/>
      <point x="526" y="744" type="line"/>
    </contour>
  </outline>
</glyph>
<glyph name="parenleft" format="2">
  <advance width="1240"/>
  <unicode hex="0028"/>
  <outline>
    <contour>
      <point x="623" y="595" type="curve" smooth="yes"/>
      <point x="705" y="1021"/>
      <point x="995" y="1343"/>
      <point x="1329" y="1602" type="curve"/>
      <point x="1000" y="1602" type="line"/>
      <point x="755" y="1428"/>
      <point x="407" y="1095"/>
      <point x="319" y="641" type="curve" smooth="yes"/>
      <point x="216" y="109"/>
      <point x="463" y="-226"/>
      <point x="662" y="-400" type="curve"/>
      <point x="941" y="-400" type="line"/>
      <point x="707" y="-141"/>
      <point x="539" y="165"/>
    </contour>
  </outline>
</glyph>
<glyph name="nine" format="2">
  <advance width="1240"/>
  <unicode hex="0039"/>
  <outline>
    <contour>
      <point x="970" y="1461" type="line"/>
      <point x="604" y="1461" type="line"/>
      <point x="200" y="1154" type="line"/>
      <point x="134" y="812" type="line"/>
      <point x="379" y="557" type="line"/>
      <point x="959" y="685" type="line"/>
      <point x="996" y="876" type="line"/>
      <point x="561" y="820" type="line"/>
      <point x="478" y="913" type="line"/>
      <point x="501" y="1030" type="line"/>
      <point x="665" y="1160" type="line"/>
      <point x="797" y="1160" type="line"/>
      <point x="926" y="1030" type="line"/>
      <point x="825" y="510" type="line"/>
      <point x="595" y="302" type="line"/>
      <point x="120" y="302" type="line"/>
      <point x="91" y="1" type="line"/>
      <point x="696" y="1" type="line"/>
      <point x="1109" y="399" type="line"/>
      <point x="1255" y="1154" type="line"/>
    </contour>
  </outline>
</glyph>
<glyph name="less" format="2">
  <advance width="1240"/>
  <unicode hex="003C"/>
  <outline>
    <contour>
      <point x="1065" y="1339" type="line"/>
      <point x="209" y="793" type="line"/>
      <point x="163" y="558" type="line"/>
      <point x="807" y="12" type="line"/>
      <point x="1008" y="221" type="line"/>
      <point x="490" y="660" type="line"/>
      <point x="492" y="671" type="line"/>
      <point x="1181" y="1110" type="line"/>
    </contour>
  </outline>
</glyph>
<glyph name="greater" format="2">
  <advance width="1240"/>
  <unicode hex="003E"/>
  <outline>
    <contour>
      <point x="228" y="15" type="line"/>
      <point x="1084" y="561" type="line"/>
      <point x="1130" y="796" type="line"/>
      <point x="486" y="1342" type="line"/>
      <point x="285" y="1133" type="line"/>
      <point x="803" y="694" type="line"/>
      <point x="801" y="683" type="line"/>
      <point x="112" y="244" type="line"/>
    </contour>
  </outline>
</glyph>
<glyph name="H" format="2">
  <advance width="1240"/>
  <unicode hex="0048"/>
  <outline>
    <contour>
      <point x="666" y="0" type="line"/>
      <point x="1003" y="0" type="line"/>
      <point x="1287" y="1460" type="line"/>
      <point x="950" y="1460" type="line"/>
    </contour>
    <contour>
      <point x="27" y="0" type="line"/>
      <point x="364" y="0" type="line"/>
      <point x="648" y="1460" type="line"/>
      <point x="311" y="1460" type="line"/>
    </contour>
    <contour>
      <point x="281" y="602" type="line"/>
      <point x="979" y="602" type="line"/>
      <point x="1032" y="873" type="line"/>
      <point x="334" y="873" type="line"/>
    </contour>
  </outline>
</glyph>
<glyph name="I" format="2">
  <advance width="1240"/>
  <unicode hex="0049"/>
  <outline>
    <contour>
      <point x="350" y="0" type="line"/>
      <point x="680" y="0" type="line"/>
      <point x="964" y="1460" type="line"/>
      <point x="634" y="1460" type="line"/>
    </contour>
    <contour>
      <point x="60" y="0" type="line"/>
      <point x="970" y="0" type="line"/>
      <point x="1043" y="271" type="line"/>
      <point x="93" y="271" type="line"/>
    </contour>
    <contour>
      <point x="271" y="1189" type="line"/>
      <point x="1221" y="1189" type="line"/>
      <point x="1254" y="1460" type="line"/>
      <point x="344" y="1460" type="line"/>
    </contour>
  </outline>
</glyph>
<glyph name="M" format="2">
  <advance width="1240"/>
  <unicode hex="004D"/>
  <outline>
    <contour>
      <point x="-4" y="0" type="line"/>
      <point x="249" y="0" type="line"/>
      <point x="427" y="918" type="line"/>
      <point x="441" y="918" type="line"/>
      <point x="546" y="389" type="line"/>
      <point x="616" y="389" type="line"/>
      <point x="937" y="918" type="line"/>
      <point x="955" y="918" type="line"/>
      <point x="777" y="0" type="line"/>
      <point x="1034" y="0" type="line"/>
      <point x="1318" y="1460" type="line"/>
      <point x="1018" y="1460" type="line"/>
      <point x="696" y="950" type="line"/>
      <point x="684" y="950" type="line"/>
      <point x="585" y="1460" type="line"/>
      <point x="280" y="1460" type="line"/>
    </contour>
  </outline>
</glyph>
<glyph name="Z" format="2">
  <advance width="1240"/>
  <unicode hex="005A"/>
  <outline>
    <contour>
      <point x="55" y="0" type="line"/>
      <point x="989" y="0" type="line"/>
      <point x="1101" y="266" type="line"/>
      <point x="327" y="266" type="line"/>
      <point x="361" y="160" type="line"/>
      <point x="1235" y="1245" type="line"/>
      <point x="1216" y="1460" type="line"/>
      <point x="344" y="1460" type="line"/>
      <point x="232" y="1196" type="line"/>
      <point x="972" y="1196" type="line"/>
      <point x="902" y="1291" type="line"/>
      <point x="39" y="226" type="line"/>
    </contour>
  </outline>
</glyph>
<glyph name="asciicircum" format="2">
  <advance width="1240"/>
  <unicode hex="005E"/>
  <outline>
    <contour>
      <point x="128" y="811" type="line"/>
      <point x="346" y="675" type="line"/>
      <point x="745" y="1192" type="line"/>
      <point x="766" y="1192" type="line"/>
      <point x="963" y="675" type="line"/>
      <point x="1215" y="811" type="line"/>
      <point x="939" y="1530" type="line"/>
      <point x="682" y="1530" type="line"/>
    </contour>
  </outline>
</glyph>
<glyph name="grave" format="2">
  <advance width="1240"/>
  <unicode hex="0060"/>
  <outline>
    <contour>
      <point x="629" y="1275" type="line"/>
      <point x="888" y="1275" type="line"/>
      <point x="776" y="1643" type="line"/>
      <point x="451" y="1643" type="line"/>
    </contour>
  </outline>
</glyph>
<glyph name="b" format="2">
  <advance width="1240"/>
  <unicode hex="0062"/>
  <outline>
    <contour>
      <point x="7" y="0" type="line"/>
      <point x="322" y="0" type="line"/>
      <point x="493" y="882" type="line"/>
      <point x="520" y="942" type="line"/>
      <point x="634" y="1530" type="line"/>
      <point x="293" y="1470" type="line"/>
    </contour>
    <contour>
      <point x="165" y="0" type="line"/>
      <point x="690" y="0" type="line"/>
      <point x="1097" y="317" type="line"/>
      <point x="1191" y="801" type="line"/>
      <point x="935" y="1106" type="line"/>
      <point x="345" y="928" type="line"/>
      <point x="307" y="729" type="line"/>
      <point x="772" y="805" type="line"/>
      <point x="850" y="722" type="line"/>
      <point x="792" y="423" type="line"/>
      <point x="601" y="263" type="line"/>
      <point x="216" y="263" type="line"/>
    </contour>
  </outline>
</glyph>
<glyph name="d" format="2">
  <advance width="1240"/>
  <unicode hex="0064"/>
  <outline>
    <contour>
      <point x="806" y="0" type="line"/>
      <point x="1023" y="0" type="line"/>
      <point x="1320" y="1530" type="line"/>
      <point x="979" y="1470" type="line"/>
      <point x="876" y="942" type="line"/>
      <point x="879" y="882" type="line"/>
      <point x="741" y="168" type="line"/>
    </contour>
    <contour>
      <point x="1075" y="1080" type="line"/>
      <point x="550" y="1080" type="line"/>
      <point x="143" y="763" type="line"/>
      <point x="49" y="279" type="line"/>
      <point x="305" y="-26" type="line"/>
      <point x="895" y="152" type="line"/>
      <point x="933" y="351" type="line"/>
      <point x="467" y="275" type="line"/>
      <point x="390" y="358" type="line"/>
      <point x="448" y="657" type="line"/>
      <point x="639" y="817" type="line"/>
      <point x="1024" y="817" type="line"/>
    </contour>
  </outline>
</glyph>
<glyph name="f" format="2">
  <advance width="1240"/>
  <unicode hex="0066"/>
  <outline>
    <contour>
      <point x="296" y="-1" type="line"/>
      <point x="621" y="-1" type="line"/>
      <point x="829" y="1068" type="line"/>
      <point x="974" y="1200" type="line"/>
      <point x="1309" y="1200" type="line"/>
      <point x="1334" y="1481" type="line"/>
      <point x="859" y="1481" type="line"/>
      <point x="522" y="1162" type="line"/>
    </contour>
    <contour>
      <point x="148" y="695" type="line"/>
      <point x="1194" y="695" type="line"/>
      <point x="1244" y="953" type="line"/>
      <point x="198" y="953" type="line"/>
    </contour>
  </outline>
</glyph>
<glyph name="braceleft" format="2">
  <advance width="1240"/>
  <unicode hex="007B"/>
  <outline>
    <contour>
      <point x="289" y="587" type="line"/>
      <point x="712" y="587"/>
      <point x="887" y="764"/>
      <point x="898" y="1027" type="curve" smooth="yes"/>
      <point x="900" y="1080" type="line" smooth="yes"/>
      <point x="909" y="1289"/>
      <point x="973" y="1363"/>
      <point x="1150" y="1363" type="curve" smooth="yes"/>
      <point x="1293" y="1363" type="line"/>
      <point x="1340" y="1603" type="line"/>
      <point x="1045" y="1603" type="line" smooth="yes"/>
      <point x="739" y="1603"/>
      <point x="589" y="1452"/>
      <point x="593" y="1173" type="curve" smooth="yes"/>
      <point x="594" y="1111" type="line" smooth="yes"/>
      <point x="597" y="861"/>
      <point x="487" y="755"/>
      <point x="147" y="748" type="curve"/>
      <point x="90" y="454" type="line"/>
      <point x="427" y="446"/>
      <point x="497" y="341"/>
      <point x="396" y="91" type="curve" smooth="yes"/>
      <point x="371" y="30" type="line" smooth="yes"/>
      <point x="258" y="-249"/>
      <point x="349" y="-400"/>
      <point x="655" y="-400" type="curve" smooth="yes"/>
      <point x="950" y="-400" type="line"/>
      <point x="997" y="-160" type="line"/>
      <point x="854" y="-160" type="line" smooth="yes"/>
      <point x="677" y="-160"/>
      <point x="642" y="-86"/>
      <point x="714" y="123" type="curve" smooth="yes"/>
      <point x="732" y="177" type="line" smooth="yes"/>
      <point x="822" y="439"/>
      <point x="718" y="616"/>
      <point x="295" y="616" type="curve"/>
    </contour>
  </outline>
</glyph>
<glyph name="exclamdown" format="2">
  <advance width="1240"/>
  <unicode hex="00A1"/>
  <outline>
    <contour>
      <point x="459" y="438" type="line"/>
      <point x="269" y="-379" type="line"/>
      <point x="608" y="-379" type="line"/>
      <point x="736" y="438" type="line"/>
    </contour>
    <contour>
      <point x="722" y="1109" type="curve" smooth="yes"/>
      <point x="605" y="1109"/>
      <point x="501" y="1037"/>
      <point x="477" y="913" type="curve" smooth="yes"/>
      <point x="452" y="788"/>
      <point x="538" y="708"/>
      <point x="655" y="708" type="curve" smooth="yes"/>
      <point x="772" y="708"/>
      <point x="878" y="777"/>
      <point x="902" y="902" type="curve" smooth="yes"/>
      <point x="926" y="1027"/>
      <point x="839" y="1109"/>
    </contour>
  </outline>
</glyph>
<glyph name="sterling" format="2">
  <advance width="1240"/>
  <unicode hex="00A3"/>
  <outline>
    <contour>
      <point x="316" y="271" type="line"/>
      <point x="280" y="159" type="line"/>
      <point x="458" y="254"/>
      <point x="584" y="415"/>
      <point x="622" y="610" type="curve" smooth="yes"/>
      <point x="659" y="801"/>
      <point x="588" y="895"/>
      <point x="618" y="1047" type="curve" smooth="yes"/>
      <point x="645" y="1188"/>
      <point x="730" y="1227"/>
      <point x="807" y="1227" type="curve" smooth="yes"/>
      <point x="896" y="1227"/>
      <point x="944" y="1175"/>
      <point x="927" y="1003" type="curve"/>
      <point x="1228" y="1034" type="line"/>
      <point x="1300" y="1317"/>
      <point x="1150" y="1483"/>
      <point x="837" y="1483" type="curve" smooth="yes"/>
      <point x="562" y="1483"/>
      <point x="356" y="1361"/>
      <point x="301" y="1079" type="curve" smooth="yes"/>
      <point x="261" y="874"/>
      <point x="339" y="745"/>
      <point x="302" y="555" type="curve" smooth="yes"/>
      <point x="273" y="408"/>
      <point x="192" y="308"/>
      <point x="69" y="237" type="curve"/>
      <point x="23" y="0" type="line"/>
      <point x="1007" y="0" type="line"/>
      <point x="1060" y="271" type="line"/>
    </contour>
    <contour>
      <point x="865" y="575" type="line"/>
      <point x="908" y="795" type="line"/>
      <point x="178" y="795" type="line"/>
      <point x="135" y="575" type="line"/>
    </contour>
  </outline>
</glyph>
<glyph name="copyright" format="2">
  <advance width="1240"/>
  <unicode hex="00A9"/>
  <outline>
    <contour>
      <point x="584" y="731" type="curve" smooth="yes"/>
      <point x="612" y="874"/>
      <point x="650" y="923"/>
      <point x="709" y="923" type="curve" smooth="yes"/>
      <point x="755" y="923"/>
      <point x="777" y="893"/>
      <point x="769" y="815" type="curve"/>
      <point x="948" y="830" type="line"/>
      <point x="968" y="1021"/>
      <point x="882" y="1096"/>
      <point x="738" y="1096" type="curve" smooth="yes"/>
      <point x="571" y="1096"/>
      <point x="443" y="990"/>
      <point x="393" y="731" type="curve" smooth="yes"/>
      <point x="343" y="473"/>
      <point x="424" y="366"/>
      <point x="592" y="366" type="curve" smooth="yes"/>
      <point x="735" y="366"/>
      <point x="856" y="441"/>
      <point x="911" y="637" type="curve"/>
      <point x="738" y="651" type="line"/>
      <point x="714" y="569"/>
      <point x="681" y="539"/>
      <point x="635" y="539" type="curve" smooth="yes"/>
      <point x="576" y="539"/>
      <point x="556" y="589"/>
    </contour>
    <contour>
      <point x="1217" y="722" type="curve" smooth="yes"/>
      <point x="1309" y="1196"/>
      <point x="1121" y="1484"/>
      <point x="793" y="1484" type="curve" smooth="yes"/>
      <point x="464" y="1484"/>
      <point x="189" y="1216"/>
      <point x="97" y="742" type="curve" smooth="yes"/>
      <point x="4" y="264"/>
      <point x="191" y="-24"/>
      <point x="520" y="-24" type="curve" smooth="yes"/>
      <point x="848" y="-24"/>
      <point x="1124" y="244"/>
    </contour>
    <contour>
      <point x="1119" y="732" type="curve" smooth="yes"/>
      <point x="1037" y="307"/>
      <point x="797" y="74"/>
      <point x="529" y="74" type="curve" smooth="yes"/>
      <point x="261" y="74"/>
      <point x="113" y="307"/>
      <point x="195" y="732" type="curve" smooth="yes"/>
      <point x="277" y="1154"/>
      <point x="516" y="1386"/>
      <point x="784" y="1386" type="curve" smooth="yes"/>
      <point x="1052" y="1386"/>
      <point x="1201" y="1154"/>
    </contour>
  </outline>
</glyph>
<glyph name="ordfeminine" format="2">
  <advance width="1240"/>
  <unicode hex="00AA"/>
  <outline>
    <contour>
      <point x="697" y="1543" type="curve" smooth="yes"/>
      <point x="514" y="1543"/>
      <point x="443" y="1471"/>
      <point x="423" y="1367" type="curve" smooth="yes"/>
      <point x="417" y="1339" type="line"/>
      <point x="591" y="1339" type="line"/>
      <point x="595" y="1358" type="line" smooth="yes"/>
      <point x="601" y="1387"/>
      <point x="631" y="1413"/>
      <point x="676" y="1412" type="curve" smooth="yes"/>
      <point x="717" y="1411"/>
      <point x="743" y="1389"/>
      <point x="735" y="1348" type="curve" smooth="yes"/>
      <point x="676" y="1046" type="line"/>
      <point x="686" y="1035" type="line"/>
      <point x="672" y="964"/>
      <point x="679" y="912"/>
      <point x="791" y="912" type="curve" smooth="yes"/>
      <point x="826" y="912"/>
      <point x="864" y="917"/>
      <point x="903" y="926" type="curve"/>
      <point x="931" y="1068" type="line"/>
      <point x="889" y="1068"/>
      <point x="882" y="1077"/>
      <point x="888" y="1108" type="curve" smooth="yes"/>
      <point x="936" y="1354" type="line" smooth="yes"/>
      <point x="963" y="1490"/>
      <point x="857" y="1543"/>
    </contour>
    <contour>
      <point x="787" y="1150" type="curve"/>
      <point x="746" y="1265" type="line"/>
      <point x="619" y="1272"/>
      <point x="384" y="1263"/>
      <point x="349" y="1083" type="curve" smooth="yes"/>
      <point x="330" y="986"/>
      <point x="384" y="912"/>
      <point x="480" y="912" type="curve" smooth="yes"/>
      <point x="544" y="912"/>
      <point x="615" y="940"/>
      <point x="660" y="994" type="curve"/>
      <point x="686" y="994" type="line"/>
      <point x="711" y="1087" type="line"/>
      <point x="683" y="1064"/>
      <point x="643" y="1051"/>
      <point x="614" y="1051" type="curve" smooth="yes"/>
      <point x="576" y="1051"/>
      <point x="556" y="1073"/>
      <point x="561" y="1103" type="curve" smooth="yes"/>
      <point x="568" y="1137"/>
      <point x="607" y="1168"/>
      <point x="681" y="1168" type="curve" smooth="yes"/>
      <point x="717" y="1168"/>
      <point x="749" y="1163"/>
    </contour>
  </outline>
</glyph>
<glyph name="guillemetleft" format="2">
  <advance width="1240"/>
  <unicode hex="00AB"/>
  <outline>
    <contour>
      <point x="525" y="50" type="line"/>
      <point x="285" y="672" type="line"/>
      <point x="20" y="539" type="line"/>
      <point x="214" y="24" type="line"/>
    </contour>
    <contour>
      <point x="415" y="1058" type="line"/>
      <point x="20" y="539" type="line"/>
      <point x="236" y="414" type="line"/>
      <point x="712" y="1013" type="line"/>
    </contour>
    <contour>
      <point x="1055" y="50" type="line"/>
      <point x="815" y="672" type="line"/>
      <point x="550" y="539" type="line"/>
      <point x="744" y="24" type="line"/>
    </contour>
    <contour>
      <point x="945" y="1058" type="line"/>
      <point x="550" y="539" type="line"/>
      <point x="766" y="414" type="line"/>
      <point x="1242" y="1013" type="line"/>
    </contour>
  </outline>
</glyph>
<glyph name="logicalnot" format="2">
  <advance width="1240"/>
  <unicode hex="00AC"/>
  <outline>
    <contour>
      <point x="157" y="627" type="line"/>
      <point x="1117" y="627" type="line"/>
      <point x="1170" y="898" type="line"/>
      <point x="210" y="898" type="line"/>
    </contour>
    <contour>
      <point x="879" y="898" type="line"/>
      <point x="758" y="278" type="line"/>
      <point x="1049" y="278" type="line"/>
      <point x="1170" y="898" type="line"/>
    </contour>
  </outline>
</glyph>
<glyph name="registered" format="2">
  <advance width="1240"/>
  <unicode hex="00AE"/>
  <outline>
    <contour>
      <point x="819" y="697" type="line"/>
      <point x="656" y="687" type="line"/>
      <point x="684" y="390" type="line"/>
      <point x="880" y="390" type="line"/>
    </contour>
    <contour>
      <point x="541" y="390" type="line"/>
      <point x="673" y="1072" type="line"/>
      <point x="500" y="1072" type="line"/>
      <point x="368" y="390" type="line"/>
    </contour>
    <contour>
      <point x="544" y="724" type="line"/>
      <point x="522" y="607" type="line"/>
      <point x="590" y="607" type="line" smooth="yes"/>
      <point x="801" y="607"/>
      <point x="928" y="702"/>
      <point x="959" y="858" type="curve" smooth="yes"/>
      <point x="987" y="1001"/>
      <point x="909" y="1074"/>
      <point x="762" y="1073" type="curve" smooth="yes"/>
      <point x="602" y="1072" type="line"/>
      <point x="580" y="956" type="line"/>
      <point x="685" y="956" type="line" smooth="yes"/>
      <point x="761" y="956"/>
      <point x="785" y="910"/>
      <point x="772" y="843" type="curve" smooth="yes"/>
      <point x="760" y="783"/>
      <point x="723" y="724"/>
      <point x="614" y="724" type="curve" smooth="yes"/>
    </contour>
    <contour>
      <point x="1217" y="722" type="curve" smooth="yes"/>
      <point x="1309" y="1196"/>
      <point x="1121" y="1484"/>
      <point x="793" y="1484" type="curve" smooth="yes"/>
      <point x="464" y="1484"/>
      <point x="189" y="1216"/>
      <point x="97" y="742" type="curve" smooth="yes"/>
      <point x="4" y="264"/>
      <point x="191" y="-24"/>
      <point x="520" y="-24" type="curve" smooth="yes"/>
      <point x="848" y="-24"/>
      <point x="1124" y="244"/>
    </contour>
    <contour>
      <point x="1119" y="732" type="curve" smooth="yes"/>
      <point x="1037" y="307"/>
      <point x="797" y="74"/>
      <point x="529" y="74" type="curve" smooth="yes"/>
      <point x="261" y="74"/>
      <point x="113" y="307"/>
      <point x="195" y="732" type="curve" smooth="yes"/>
      <point x="277" y="1154"/>
      <point x="516" y="1386"/>
      <point x="784" y="1386" type="curve" smooth="yes"/>
      <point x="1052" y="1386"/>
      <point x="1201" y="1154"/>
    </contour>
  </outline>
</glyph>
<glyph name="plusminus" format="2">
  <advance width="1240"/>
  <unicode hex="00B1"/>
  <outline>
    <contour>
      <point x="210" y="901" type="line"/>
      <point x="1170" y="901" type="line"/>
      <point x="1223" y="1172" type="line"/>
      <point x="263" y="1172" type="line"/>
    </contour>
    <contour>
      <point x="654" y="1460" type="line"/>
      <point x="489" y="614" type="line"/>
      <point x="780" y="614" type="line"/>
      <point x="945" y="1460" type="line"/>
    </contour>
    <contour>
      <point x="57" y="115" type="line"/>
      <point x="1017" y="115" type="line"/>
      <point x="1070" y="386" type="line"/>
      <point x="110" y="386" type="line"/>
    </contour>
  </outline>
</glyph>
<glyph name="threesuperior" format="2">
  <advance width="1240"/>
  <unicode hex="00B3"/>
  <outline>
    <contour>
      <point x="822" y="1664" type="curve" smooth="yes"/>
      <point x="644" y="1664"/>
      <point x="559" y="1596"/>
      <point x="541" y="1485" type="curve"/>
      <point x="680" y="1470" type="line"/>
      <point x="700" y="1523"/>
      <point x="738" y="1542"/>
      <point x="800" y="1542" type="curve" smooth="yes"/>
      <point x="864" y="1542"/>
      <point x="890" y="1522"/>
      <point x="883" y="1489" type="curve" smooth="yes"/>
      <point x="875" y="1446"/>
      <point x="842" y="1420"/>
      <point x="747" y="1420" type="curve" smooth="yes"/>
      <point x="705" y="1420" type="line"/>
      <point x="686" y="1320" type="line"/>
      <point x="725" y="1320" type="line" smooth="yes"/>
      <point x="840" y="1320"/>
      <point x="849" y="1297"/>
      <point x="843" y="1266" type="curve" smooth="yes"/>
      <point x="838" y="1239"/>
      <point x="816" y="1217"/>
      <point x="736" y="1217" type="curve" smooth="yes"/>
      <point x="656" y="1217"/>
      <point x="633" y="1238"/>
      <point x="627" y="1275" type="curve"/>
      <point x="477" y="1259" type="line"/>
      <point x="449" y="1118"/>
      <point x="564" y="1091"/>
      <point x="719" y="1091" type="curve" smooth="yes"/>
      <point x="866" y="1091"/>
      <point x="980" y="1123"/>
      <point x="1006" y="1256" type="curve" smooth="yes"/>
      <point x="1028" y="1371"/>
      <point x="909" y="1385"/>
      <point x="796" y="1385" type="curve"/>
      <point x="792" y="1362" type="line"/>
      <point x="889" y="1362"/>
      <point x="1019" y="1385"/>
      <point x="1042" y="1504" type="curve" smooth="yes"/>
      <point x="1062" y="1607"/>
      <point x="975" y="1664"/>
    </contour>
  </outline>
</glyph>
<glyph name="micro" format="2">
  <advance width="1240"/>
  <unicode hex="00B5"/>
  <outline>
    <contour>
      <point x="734" y="234" type="line"/>
      <point x="748" y="220" type="line"/>
      <point x="705" y="0" type="line"/>
      <point x="1009" y="0" type="line"/>
      <point x="1219" y="1082" type="line"/>
      <point x="899" y="1082" type="line"/>
    </contour>
    <contour>
      <point x="263" y="-400" type="line"/>
      <point x="357" y="82" type="line"/>
      <point x="173" y="60" type="line"/>
      <point x="190" y="0"/>
      <point x="240" y="-24"/>
      <point x="306" y="-24" type="curve" smooth="yes"/>
      <point x="441" y="-24"/>
      <point x="610" y="33"/>
      <point x="735" y="234" type="curve"/>
      <point x="775" y="234" type="line"/>
      <point x="778" y="428" type="line"/>
      <point x="739" y="318"/>
      <point x="631" y="229"/>
      <point x="507" y="229" type="curve" smooth="yes"/>
      <point x="436" y="229"/>
      <point x="392" y="260"/>
      <point x="407" y="341" type="curve" smooth="yes"/>
      <point x="551" y="1082" type="line"/>
      <point x="231" y="1082" type="line"/>
      <point x="-57" y="-400" type="line"/>
    </contour>
  </outline>
</glyph>
<glyph name="paragraph" format="2">
  <advance width="1240"/>
  <unicode hex="00B6"/>
  <outline>
    <contour>
      <point x="341" y="0" type="line"/>
      <point x="571" y="0" type="line"/>
      <point x="855" y="1460" type="line"/>
      <point x="625" y="1460" type="line"/>
    </contour>
    <contour>
      <point x="542" y="667" type="line"/>
      <point x="698" y="1460" type="line"/>
      <point x="609" y="1460" type="line" smooth="yes"/>
      <point x="362" y="1460"/>
      <point x="222" y="1335"/>
      <point x="178" y="1106" type="curve" smooth="yes"/>
      <point x="125" y="833"/>
      <point x="256" y="667"/>
      <point x="500" y="667" type="curve" smooth="yes"/>
    </contour>
    <contour>
      <point x="744" y="0" type="line"/>
      <point x="974" y="0" type="line"/>
      <point x="1258" y="1460" type="line"/>
      <point x="1028" y="1460" type="line"/>
    </contour>
    <contour>
      <point x="594" y="1189" type="line"/>
      <point x="1298" y="1189" type="line"/>
      <point x="1351" y="1460" type="line"/>
      <point x="647" y="1460" type="line"/>
    </contour>
  </outline>
</glyph>
<glyph name="cedilla" format="2">
  <advance width="1240"/>
  <unicode hex="00B8"/>
  <outline>
    <contour>
      <point x="259" y="-637" type="line"/>
      <point x="453" y="-637" type="line"/>
      <point x="667" y="-474" type="line"/>
      <point x="705" y="-280" type="line"/>
      <point x="557" y="-140" type="line"/>
      <point x="537" y="-140" type="line"/>
      <point x="564" y="-200" type="line"/>
      <point x="612" y="48" type="line"/>
      <point x="432" y="48" type="line"/>
      <point x="364" y="-305" type="line"/>
      <point x="450" y="-305" type="line"/>
      <point x="516" y="-360" type="line"/>
      <point x="509" y="-394" type="line"/>
      <point x="422" y="-449" type="line"/>
      <point x="296" y="-449" type="line"/>
    </contour>
  </outline>
</glyph>
<glyph name="ordmasculine" format="2">
  <advance width="1240"/>
  <unicode hex="00BA"/>
  <outline>
    <contour>
      <point x="977" y="1214" type="curve" smooth="yes"/>
      <point x="1021" y="1440"/>
      <point x="891" y="1543"/>
      <point x="726" y="1543" type="curve" smooth="yes"/>
      <point x="561" y="1543"/>
      <point x="414" y="1460"/>
      <point x="370" y="1234" type="curve" smooth="yes"/>
      <point x="325" y="1004"/>
      <point x="458" y="912"/>
      <point x="623" y="912" type="curve" smooth="yes"/>
      <point x="787" y="912"/>
      <point x="932" y="984"/>
    </contour>
    <contour>
      <point x="779" y="1224" type="curve" smooth="yes"/>
      <point x="753" y="1091"/>
      <point x="696" y="1062"/>
      <point x="642" y="1062" type="curve" smooth="yes"/>
      <point x="587" y="1062"/>
      <point x="542" y="1091"/>
      <point x="568" y="1224" type="curve" smooth="yes"/>
      <point x="594" y="1360"/>
      <point x="652" y="1393"/>
      <point x="707" y="1393" type="curve" smooth="yes"/>
      <point x="761" y="1393"/>
      <point x="805" y="1360"/>
    </contour>
  </outline>
</glyph>
<glyph name="Agrave" format="2">
  <advance width="1240"/>
  <unicode hex="00C0"/>
  <outline>
    <contour>
      <point x="27" y="0" type="line"/>
      <point x="354" y="0" type="line"/>
      <point x="513" y="819" type="line"/>
      <point x="801" y="1261" type="line"/>
      <point x="739" y="1261" type="line"/>
      <point x="841" y="849" type="line"/>
      <point x="676" y="0" type="line"/>
      <point x="1003" y="0" type="line"/>
      <point x="1184" y="933" type="line"/>
      <point x="1002" y="1460" type="line"/>
      <point x="596" y="1460" type="line"/>
      <point x="208" y="933" type="line"/>
    </contour>
    <contour>
      <point x="293" y="303" type="line"/>
      <point x="884" y="303" type="line"/>
      <point x="929" y="537" type="line"/>
      <point x="338" y="537" type="line"/>
    </contour>
    <contour>
      <point x="696" y="1619" type="line"/>
      <point x="955" y="1619" type="line"/>
      <point x="822" y="1877" type="line"/>
      <point x="497" y="1877" type="line"/>
    </contour>
  </outline>
</glyph>
<glyph name="Acircumflex" format="2">
  <advance width="1240"/>
  <unicode hex="00C2"/>
  <outline>
    <contour>
      <point x="27" y="0" type="line"/>
      <point x="354" y="0" type="line"/>
      <point x="513" y="819" type="line"/>
      <point x="801" y="1261" type="line"/>
      <point x="739" y="1261" type="line"/>
      <point x="841" y="849" type="line"/>
      <point x="676" y="0" type="line"/>
      <point x="1003" y="0" type="line"/>
      <point x="1184" y="933" type="line"/>
      <point x="1002" y="1460" type="line"/>
      <point x="596" y="1460" type="line"/>
      <point x="208" y="933" type="line"/>
    </contour>
    <contour>
      <point x="293" y="303" type="line"/>
      <point x="884" y="303" type="line"/>
      <point x="929" y="537" type="line"/>
      <point x="338" y="537" type="line"/>
    </contour>
    <contour>
      <point x="409" y="1620" type="line"/>
      <point x="693" y="1620" type="line"/>
      <point x="894" y="1824" type="line"/>
      <point x="846" y="1824" type="line"/>
      <point x="967" y="1620" type="line"/>
      <point x="1251" y="1620" type="line"/>
      <point x="1073" y="1878" type="line"/>
      <point x="687" y="1878" type="line"/>
    </contour>
  </outline>
</glyph>
<glyph name="Atilde" format="2">
  <advance width="1240"/>
  <unicode hex="00C3"/>
  <outline>
    <contour>
      <point x="27" y="0" type="line"/>
      <point x="354" y="0" type="line"/>
      <point x="513" y="819" type="line"/>
      <point x="801" y="1261" type="line"/>
      <point x="739" y="1261" type="line"/>
      <point x="841" y="849" type="line"/>
      <point x="676" y="0" type="line"/>
      <point x="1003" y="0" type="line"/>
      <point x="1184" y="933" type="line"/>
      <point x="1002" y="1460" type="line"/>
      <point x="596" y="1460" type="line"/>
      <point x="208" y="933" type="line"/>
    </contour>
    <contour>
      <point x="293" y="303" type="line"/>
      <point x="884" y="303" type="line"/>
      <point x="929" y="537" type="line"/>
      <point x="338" y="537" type="line"/>
    </contour>
    <contour>
      <point x="867" y="1887" type="line"/>
      <point x="579" y="1887" type="line"/>
      <point x="398" y="1744" type="line"/>
      <point x="372" y="1611" type="line"/>
      <point x="575" y="1611" type="line"/>
      <point x="587" y="1672" type="line"/>
      <point x="659" y="1734" type="line"/>
      <point x="727" y="1734" type="line"/>
      <point x="843" y="1611" type="line"/>
      <point x="1131" y="1611" type="line"/>
      <point x="1312" y="1754" type="line"/>
      <point x="1338" y="1887" type="line"/>
      <point x="1135" y="1887" type="line"/>
      <point x="1121" y="1816" type="line"/>
      <point x="1051" y="1764" type="line"/>
      <point x="983" y="1764" type="line"/>
    </contour>
  </outline>
</glyph>
<glyph name="Ntilde" format="2">
  <advance width="1240"/>
  <unicode hex="00D1"/>
  <outline>
    <contour>
      <point x="27" y="0" type="line"/>
      <point x="334" y="0" type="line"/>
      <point x="484" y="774" type="line"/>
      <point x="496" y="774" type="line"/>
      <point x="802" y="0" type="line"/>
      <point x="1003" y="0" type="line"/>
      <point x="1287" y="1460" type="line"/>
      <point x="980" y="1460" type="line"/>
      <point x="826" y="671" type="line"/>
      <point x="814" y="671" type="line"/>
      <point x="514" y="1460" type="line"/>
      <point x="311" y="1460" type="line"/>
    </contour>
    <contour>
      <point x="867" y="1887" type="line"/>
      <point x="579" y="1887" type="line"/>
      <point x="398" y="1744" type="line"/>
      <point x="372" y="1611" type="line"/>
      <point x="575" y="1611" type="line"/>
      <point x="587" y="1672" type="line"/>
      <point x="659" y="1734" type="line"/>
      <point x="727" y="1734" type="line"/>
      <point x="843" y="1611" type="line"/>
      <point x="1131" y="1611" type="line"/>
      <point x="1312" y="1754" type="line"/>
      <point x="1338" y="1887" type="line"/>
      <point x="1135" y="1887" type="line"/>
      <point x="1121" y="1816" type="line"/>
      <point x="1051" y="1764" type="line"/>
      <point x="983" y="1764" type="line"/>
    </contour>
  </outline>
</glyph>
<glyph name="multiply" format="2">
  <advance width="1240"/>
  <unicode hex="00D7"/>
  <outline>
    <contour>
      <point x="210" y="990" type="line"/>
      <point x="854" y="166" type="line"/>
      <point x="1081" y="355" type="line"/>
      <point x="437" y="1179" type="line"/>
    </contour>
    <contour>
      <point x="237" y="170" type="line"/>
      <point x="1207" y="974" type="line"/>
      <point x="1054" y="1175" type="line"/>
      <point x="84" y="371" type="line"/>
    </contour>
  </outline>
</glyph>
<glyph name="Ugrave" format="2">
  <advance width="1240"/>
  <unicode hex="00D9"/>
  <outline>
    <contour>
      <point x="242" y="0" type="line"/>
      <point x="808" y="0" type="line"/>
      <point x="1051" y="249" type="line"/>
      <point x="1287" y="1460" type="line"/>
      <point x="952" y="1460" type="line"/>
      <point x="737" y="353" type="line"/>
      <point x="663" y="271" type="line"/>
      <point x="473" y="271" type="line"/>
      <point x="431" y="353" type="line"/>
      <point x="646" y="1460" type="line"/>
      <point x="311" y="1460" type="line"/>
      <point x="79" y="269" type="line"/>
    </contour>
    <contour>
      <point x="696" y="1619" type="line"/>
      <point x="955" y="1619" type="line"/>
      <point x="822" y="1877" type="line"/>
      <point x="497" y="1877" type="line"/>
    </contour>
  </outline>
</glyph>
<glyph name="Ucircumflex" format="2">
  <advance width="1240"/>
  <unicode hex="00DB"/>
  <outline>
    <contour>
      <point x="242" y="0" type="line"/>
      <point x="808" y="0" type="line"/>
      <point x="1051" y="249" type="line"/>
      <point x="1287" y="1460" type="line"/>
      <point x="952" y="1460" type="line"/>
      <point x="737" y="353" type="line"/>
      <point x="663" y="271" type="line"/>
      <point x="473" y="271" type="line"/>
      <point x="431" y="353" type="line"/>
      <point x="646" y="1460" type="line"/>
      <point x="311" y="1460" type="line"/>
      <point x="79" y="269" type="line"/>
    </contour>
    <contour>
      <point x="409" y="1620" type="line"/>
      <point x="693" y="1620" type="line"/>
      <point x="894" y="1824" type="line"/>
      <point x="846" y="1824" type="line"/>
      <point x="967" y="1620" type="line"/>
      <point x="1251" y="1620" type="line"/>
      <point x="1073" y="1878" type="line"/>
      <point x="687" y="1878" type="line"/>
    </contour>
  </outline>
</glyph>
<glyph name="Yacute" format="2">
  <advance width="1240"/>
  <unicode hex="00DD"/>
  <outline>
    <contour>
      <point x="455" y="532" type="line"/>
      <point x="781" y="532" type="line"/>
      <point x="1233" y="1069" type="line"/>
      <point x="1309" y="1460" type="line"/>
      <point x="974" y="1460" type="line"/>
      <point x="916" y="1163" type="line"/>
      <point x="626" y="781" type="line"/>
      <point x="698" y="781" type="line"/>
      <point x="554" y="1153" type="line"/>
      <point x="614" y="1460" type="line"/>
      <point x="289" y="1460" type="line"/>
      <point x="213" y="1069" type="line"/>
    </contour>
    <contour>
      <point x="350" y="0" type="line"/>
      <point x="679" y="0" type="line"/>
      <point x="810" y="676" type="line"/>
      <point x="481" y="676" type="line"/>
    </contour>
    <contour>
      <point x="964" y="1619" type="line"/>
      <point x="705" y="1619" type="line"/>
      <point x="938" y="1877" type="line"/>
      <point x="1263" y="1877" type="line"/>
    </contour>
  </outline>
</glyph>
<glyph name="Thorn" format="2">
  <advance width="1240"/>
  <unicode hex="00DE"/>
  <outline>
    <contour>
      <point x="47" y="0" type="line"/>
      <point x="376" y="0" type="line"/>
      <point x="660" y="1460" type="line"/>
      <point x="331" y="1460" type="line"/>
    </contour>
    <contour>
      <point x="254" y="272" type="line"/>
      <point x="781" y="272" type="line"/>
      <point x="1177" y="589" type="line"/>
      <point x="1244" y="933" type="line"/>
      <point x="961" y="1250" type="line"/>
      <point x="444" y="1250" type="line"/>
      <point x="394" y="994" type="line"/>
      <point x="771" y="994" type="line"/>
      <point x="906" y="864" type="line"/>
      <point x="875" y="703" type="line"/>
      <point x="678" y="513" type="line"/>
      <point x="301" y="513" type="line"/>
    </contour>
  </outline>
</glyph>
<glyph name="germandbls" format="2">
  <advance width="1240"/>
  <unicode hex="00DF"/>
  <outline>
    <contour>
      <point x="1045" y="1530" type="line"/>
      <point x="644" y="1530" type="line"/>
      <point x="254" y="1193" type="line"/>
      <point x="22" y="0" type="line"/>
      <point x="357" y="0" type="line"/>
      <point x="571" y="1099" type="line"/>
      <point x="730" y="1249" type="line"/>
      <point x="851" y="1249" type="line"/>
      <point x="954" y="1109" type="line"/>
      <point x="935" y="1013" type="line"/>
      <point x="746" y="863" type="line"/>
      <point x="669" y="863" type="line"/>
      <point x="622" y="622" type="line"/>
      <point x="699" y="622" type="line"/>
      <point x="831" y="480" type="line"/>
      <point x="813" y="384" type="line"/>
      <point x="625" y="241" type="line"/>
      <point x="548" y="241" type="line"/>
      <point x="501" y="0" type="line"/>
      <point x="718" y="0" type="line"/>
      <point x="1117" y="280" type="line"/>
      <point x="1177" y="584" type="line"/>
      <point x="878" y="836" type="line"/>
      <point x="849" y="688" type="line"/>
      <point x="1186" y="889" type="line"/>
      <point x="1255" y="1243" type="line"/>
    </contour>
  </outline>
</glyph>
<glyph name="adieresis" format="2">
  <advance width="1240"/>
  <unicode hex="00E4"/>
  <outline>
    <contour>
      <point x="778" y="0" type="line"/>
      <point x="1023" y="0" type="line"/>
      <point x="1185" y="833" type="line"/>
      <point x="998" y="1082" type="line"/>
      <point x="343" y="1082" type="line"/>
      <point x="264" y="829" type="line"/>
      <point x="782" y="829" type="line"/>
      <point x="847" y="764" type="line"/>
      <point x="730" y="165" type="line"/>
    </contour>
    <contour>
      <point x="236" y="-22" type="line"/>
      <point x="817" y="116" type="line"/>
      <point x="852" y="297" type="line"/>
      <point x="405" y="211" type="line"/>
      <point x="333" y="324" type="line"/>
      <point x="346" y="393" type="line"/>
      <point x="438" y="453" type="line"/>
      <point x="882" y="453" type="line"/>
      <point x="919" y="643" type="line"/>
      <point x="345" y="643" type="line"/>
      <point x="66" y="467" type="line"/>
      <point x="13" y="193" type="line"/>
    </contour>
    <contour>
      <point x="473" y="1227" type="line"/>
      <point x="706" y="1437" type="line"/>
      <point x="554" y="1645" type="line"/>
      <point x="320" y="1437" type="line"/>
    </contour>
    <contour>
      <point x="1034" y="1227" type="line"/>
      <point x="1267" y="1437" type="line"/>
      <point x="1115" y="1645" type="line"/>
      <point x="881" y="1437" type="line"/>
    </contour>
  </outline>
</glyph>
<glyph name="igrave" format="2">
  <advance width="1240"/>
  <unicode hex="00EC"/>
  <outline>
    <contour>
      <point x="468" y="0" type="line"/>
      <point x="793" y="0" type="line"/>
      <point x="962" y="867" type="line"/>
      <point x="818" y="1082" type="line"/>
      <point x="262" y="1082" type="line"/>
      <point x="174" y="781" type="line"/>
      <point x="679" y="781" type="line"/>
      <point x="631" y="836" type="line"/>
    </contour>
    <contour>
      <point x="542" y="1275" type="line"/>
      <point x="801" y="1275" type="line"/>
      <point x="689" y="1643" type="line"/>
      <point x="364" y="1643" type="line"/>
    </contour>
  </outline>
</glyph>
<glyph name="oacute" format="2">
  <advance width="1240"/>
  <unicode hex="00F3"/>
  <outline>
    <contour>
      <point x="310" y="0" type="line"/>
      <point x="720" y="0" type="line"/>
      <point x="1107" y="369" type="line"/>
      <point x="1174" y="713" type="line"/>
      <point x="930" y="1082" type="line"/>
      <point x="520" y="1082" type="line"/>
      <point x="134" y="713" type="line"/>
      <point x="67" y="369" type="line"/>
    </contour>
    <contour>
      <point x="485" y="281" type="line"/>
      <point x="386" y="443" type="line"/>
      <point x="420" y="619" type="line"/>
      <point x="606" y="801" type="line"/>
      <point x="756" y="801" type="line"/>
      <point x="854" y="639" type="line"/>
      <point x="820" y="463" type="line"/>
      <point x="635" y="281" type="line"/>
    </contour>
    <contour>
      <point x="897" y="1275" type="line"/>
      <point x="638" y="1275" type="line"/>
      <point x="892" y="1643" type="line"/>
      <point x="1217" y="1643" type="line"/>
    </contour>
  </outline>
</glyph>
<glyph name="thorn" format="2">
  <advance width="1240"/>
  <unicode hex="00FE"/>
  <outline>
    <contour>
      <point x="-49" y="-360" type="line"/>
      <point x="271" y="-360" type="line"/>
      <point x="638" y="1530" type="line"/>
      <point x="318" y="1530" type="line"/>
    </contour>
    <contour>
      <point x="175" y="0" type="line"/>
      <point x="700" y="0" type="line"/>
      <point x="1107" y="317" type="line"/>
      <point x="1201" y="801" type="line"/>
      <point x="945" y="1106" type="line"/>
      <point x="355" y="928" type="line"/>
      <point x="317" y="729" type="line"/>
      <point x="782" y="805" type="line"/>
      <point x="860" y="722" type="line"/>
      <point x="802" y="423" type="line"/>
      <point x="611" y="263" type="line"/>
      <point x="226" y="263" type="line"/>
    </contour>
  </outline>
</glyph>
<glyph name="ydieresis" format="2">
  <advance width="1240"/>
  <unicode hex="00FF"/>
  <outline>
    <contour>
      <point x="95" y="-400" type="line"/>
      <point x="670" y="-400" type="line"/>
      <point x="1007" y="-81" type="line"/>
      <point x="1233" y="1082" type="line"/>
      <point x="908" y="1082" type="line"/>
      <point x="769" y="365" type="line"/>
      <point x="760" y="318" type="line"/>
      <point x="702" y="23" type="line"/>
      <point x="552" y="-109" type="line"/>
      <point x="102" y="-109" type="line"/>
    </contour>
    <contour>
      <point x="325" y="117" type="line"/>
      <point x="936" y="295" type="line"/>
      <point x="972" y="476" type="line"/>
      <point x="504" y="400" type="line"/>
      <point x="426" y="483" type="line"/>
      <point x="542" y="1082" type="line"/>
      <point x="217" y="1082" type="line"/>
      <point x="87" y="412" type="line"/>
    </contour>
    <contour>
      <point x="473" y="1227" type="line"/>
      <point x="706" y="1437" type="line"/>
      <point x="554" y="1645" type="line"/>
      <point x="320" y="1437" type="line"/>
    </contour>
    <contour>
      <point x="1034" y="1227" type="line"/>
      <point x="1267" y="1437" type="line"/>
      <point x="1115" y="1645" type="line"/>
      <point x="881" y="1437" type="line"/>
    </contour>
  </outline>
</glyph>
<glyph name="Cacute" format="2">
  <advance width="1240"/>
  <unicode hex="0106"/>
  <outline>
    <contour>
      <point x="312" y="0" type="line"/>
      <point x="977" y="0" type="line"/>
      <point x="1076" y="301" type="line"/>
      <point x="541" y="301" type="line"/>
      <point x="415" y="632" type="line"/>
      <point x="453" y="828" type="line"/>
      <point x="717" y="1159" type="line"/>
      <point x="1242" y="1159" type="line"/>
      <point x="1261" y="1460" type="line"/>
      <point x="596" y="1460" type="line"/>
      <point x="148" y="932" type="line"/>
      <point x="70" y="528" type="line"/>
    </contour>
    <contour>
      <point x="1044" y="1619" type="line"/>
      <point x="785" y="1619" type="line"/>
      <point x="1018" y="1877" type="line"/>
      <point x="1343" y="1877" type="line"/>
    </contour>
  </outline>
</glyph>
<glyph name="cacute" format="2">
  <advance width="1240"/>
  <unicode hex="0107"/>
  <outline>
    <contour>
      <point x="310" y="0" type="line"/>
      <point x="966" y="0" type="line"/>
      <point x="1064" y="281" type="line"/>
      <point x="485" y="281" type="line"/>
      <point x="388" y="453" type="line"/>
      <point x="420" y="619" type="line"/>
      <point x="606" y="801" type="line"/>
      <point x="1165" y="801" type="line"/>
      <point x="1176" y="1082" type="line"/>
      <point x="520" y="1082" type="line"/>
      <point x="134" y="713" type="line"/>
      <point x="67" y="369" type="line"/>
    </contour>
    <contour>
      <point x="937" y="1275" type="line"/>
      <point x="678" y="1275" type="line"/>
      <point x="932" y="1643" type="line"/>
      <point x="1257" y="1643" type="line"/>
    </contour>
  </outline>
</glyph>
<glyph name="ebreve" format="2">
  <advance width="1240"/>
  <unicode hex="0115"/>
  <outline>
    <contour>
      <point x="340" y="0" type="line"/>
      <point x="948" y="0" type="line"/>
      <point x="1027" y="251" type="line"/>
      <point x="539" y="251" type="line"/>
      <point x="412" y="423" type="line"/>
      <point x="454" y="639" type="line"/>
      <point x="665" y="851" type="line"/>
      <point x="863" y="851" type="line"/>
      <point x="908" y="793" type="line"/>
      <point x="891" y="707" type="line"/>
      <point x="830" y="647" type="line"/>
      <point x="386" y="647" type="line"/>
      <point x="349" y="457" type="line"/>
      <point x="998" y="457" type="line"/>
      <point x="1130" y="569" type="line"/>
      <point x="1184" y="851" type="line"/>
      <point x="1020" y="1082" type="line"/>
      <point x="550" y="1082" type="line"/>
      <point x="164" y="713" type="line"/>
      <point x="97" y="369" type="line"/>
    </contour>
    <contour>
      <point x="634" y="1267" type="line"/>
      <point x="968" y="1267" type="line"/>
      <point x="1197" y="1450" type="line"/>
      <point x="1234" y="1643" type="line"/>
      <point x="1036" y="1643" type="line"/>
      <point x="1012" y="1517" type="line"/>
      <point x="922" y="1440" type="line"/>
      <point x="748" y="1440" type="line"/>
      <point x="688" y="1517" type="line"/>
      <point x="712" y="1643" type="line"/>
      <point x="514" y="1643" type="line"/>
      <point x="477" y="1449" type="line"/>
    </contour>
  </outline>
</glyph>
<glyph name="Imacron" format="2">
  <advance width="1240"/>
  <unicode hex="012A"/>
  <outline>
    <contour>
      <point x="350" y="0" type="line"/>
      <point x="680" y="0" type="line"/>
      <point x="964" y="1460" type="line"/>
      <point x="634" y="1460" type="line"/>
    </contour>
    <contour>
      <point x="60" y="0" type="line"/>
      <point x="970" y="0" type="line"/>
      <point x="1043" y="271" type="line"/>
      <point x="93" y="271" type="line"/>
    </contour>
    <contour>
      <point x="271" y="1189" type="line"/>
      <point x="1221" y="1189" type="line"/>
      <point x="1254" y="1460" type="line"/>
      <point x="344" y="1460" type="line"/>
    </contour>
    <contour>
      <point x="495" y="1691" type="line"/>
      <point x="1193" y="1691" type="line"/>
      <point x="1230" y="1884" type="line"/>
      <point x="532" y="1884" type="line"/>
    </contour>
  </outline>
</glyph>
<glyph name="iogonek" format="2">
  <advance width="1240"/>
  <unicode hex="012F"/>
  <outline>
    <contour>
      <point x="468" y="0" type="line"/>
      <point x="793" y="0" type="line"/>
      <point x="962" y="867" type="line"/>
      <point x="818" y="1082" type="line"/>
      <point x="262" y="1082" type="line"/>
      <point x="174" y="781" type="line"/>
      <point x="679" y="781" type="line"/>
      <point x="631" y="836" type="line"/>
    </contour>
    <contour>
      <point x="667" y="1231" type="line"/>
      <point x="926" y="1441" type="line"/>
      <point x="749" y="1650" type="line"/>
      <point x="489" y="1441" type="line"/>
    </contour>
    <contour>
      <point x="381" y="-133" type="line"/>
      <point x="345" y="-320" type="line"/>
      <point x="524" y="-443" type="line"/>
      <point x="688" y="-443" type="line"/>
      <point x="727" y="-240" type="line"/>
      <point x="635" y="-240" type="line"/>
      <point x="589" y="-210" type="line"/>
      <point x="596" y="-173" type="line"/>
      <point x="793" y="0" type="line"/>
      <point x="685" y="44" type="line"/>
    </contour>
  </outline>
</glyph>
<glyph name="idotless" format="2">
  <advance width="1240"/>
  <unicode hex="0131"/>
  <outline>
    <contour>
      <point x="468" y="0" type="line"/>
      <point x="793" y="0" type="line"/>
      <point x="962" y="867" type="line"/>
      <point x="818" y="1082" type="line"/>
      <point x="262" y="1082" type="line"/>
      <point x="174" y="781" type="line"/>
      <point x="679" y="781" type="line"/>
      <point x="631" y="836" type="line"/>
    </contour>
  </outline>
</glyph>
<glyph name="kgreenlandic" format="2">
  <advance width="1240"/>
  <unicode hex="0138"/>
  <outline>
    <contour>
      <point x="690" y="0" type="line"/>
      <point x="1045" y="0" type="line"/>
      <point x="1087" y="215" type="line"/>
      <point x="801" y="620" type="line"/>
      <point x="791" y="570" type="line"/>
      <point x="1277" y="1082" type="line"/>
      <point x="937" y="1082" type="line"/>
      <point x="536" y="639" type="line"/>
      <point x="696" y="692" type="line"/>
      <point x="432" y="692" type="line"/>
      <point x="383" y="441" type="line"/>
      <point x="625" y="441" type="line"/>
      <point x="487" y="488" type="line"/>
      <point x="721" y="161" type="line"/>
    </contour>
    <contour>
      <point x="13" y="0" type="line"/>
      <point x="341" y="0" type="line"/>
      <point x="551" y="1082" type="line"/>
      <point x="223" y="1082" type="line"/>
    </contour>
  </outline>
</glyph>
<glyph name="Lacute" format="2">
  <advance width="1240"/>
  <unicode hex="0139"/>
  <outline>
    <contour>
      <point x="68" y="0" type="line"/>
      <point x="397" y="0" type="line"/>
      <point x="681" y="1460" type="line"/>
      <point x="352" y="1460" type="line"/>
    </contour>
    <contour>
      <point x="228" y="0" type="line"/>
      <point x="977" y="0" type="line"/>
      <point x="1060" y="271" type="line"/>
      <point x="281" y="271" type="line"/>
    </contour>
    <contour>
      <point x="670" y="1619" type="line"/>
      <point x="411" y="1619" type="line"/>
      <point x="644" y="1877" type="line"/>
      <point x="969" y="1877" type="line"/>
    </contour>
  </outline>
</glyph>
<glyph name="Lcommaaccent" format="2">
  <advance width="1240"/>
  <unicode hex="013B"/>
  <outline>
    <contour>
      <point x="68" y="0" type="line"/>
      <point x="397" y="0" type="line"/>
      <point x="681" y="1460" type="line"/>
      <point x="352" y="1460" type="line"/>
    </contour>
    <contour>
      <point x="228" y="0" type="line"/>
      <point x="977" y="0" type="line"/>
      <point x="1060" y="271" type="line"/>
      <point x="281" y="271" type="line"/>
    </contour>
    <contour>
      <point x="247" y="-494" type="line"/>
      <point x="488" y="-494" type="line"/>
      <point x="503" y="-418" type="line"/>
      <point x="203" y="-721" type="line"/>
      <point x="315" y="-786" type="line"/>
      <point x="588" y="-504" type="line"/>
      <point x="657" y="-151" type="line"/>
      <point x="314" y="-151" type="line"/>
    </contour>
  </outline>
</glyph>
<glyph name="Lcaron" format="2">
  <advance width="1240"/>
  <unicode hex="013D"/>
  <outline>
    <contour>
      <point x="68" y="0" type="line"/>
      <point x="397" y="0" type="line"/>
      <point x="681" y="1460" type="line"/>
      <point x="352" y="1460" type="line"/>
    </contour>
    <contour>
      <point x="228" y="0" type="line"/>
      <point x="977" y="0" type="line"/>
      <point x="1060" y="271" type="line"/>
      <point x="281" y="271" type="line"/>
    </contour>
    <contour>
      <point x="783" y="1242" type="line"/>
      <point x="1030" y="1242" type="line"/>
      <point x="1148" y="1638" type="line"/>
      <point x="877" y="1638" type="line"/>
    </contour>
  </outline>
</glyph>
<glyph name="Ldot" format="2">
  <advance width="1240"/>
  <unicode hex="013F"/>
  <outline>
    <contour>
      <point x="68" y="0" type="line"/>
      <point x="397" y="0" type="line"/>
      <point x="681" y="1460" type="line"/>
      <point x="352" y="1460" type="line"/>
    </contour>
    <contour>
      <point x="228" y="0" type="line"/>
      <point x="977" y="0" type="line"/>
      <point x="1060" y="271" type="line"/>
      <point x="281" y="271" type="line"/>
    </contour>
    <contour>
      <point x="972" y="638" type="line"/>
      <point x="1231" y="848" type="line"/>
      <point x="1053" y="1057" type="line"/>
      <point x="794" y="848" type="line"/>
    </contour>
  </outline>
</glyph>
<glyph name="Nacute" format="2">
  <advance width="1240"/>
  <unicode hex="0143"/>
  <outline>
    <contour>
      <point x="27" y="0" type="line"/>
      <point x="334" y="0" type="line"/>
      <point x="484" y="774" type="line"/>
      <point x="496" y="774" type="line"/>
      <point x="802" y="0" type="line"/>
      <point x="1003" y="0" type="line"/>
      <point x="1287" y="1460" type="line"/>
      <point x="980" y="1460" type="line"/>
      <point x="826" y="671" type="line"/>
      <point x="814" y="671" type="line"/>
      <point x="514" y="1460" type="line"/>
      <point x="311" y="1460" type="line"/>
    </contour>
    <contour>
      <point x="964" y="1619" type="line"/>
      <point x="705" y="1619" type="line"/>
      <point x="938" y="1877" type="line"/>
      <point x="1263" y="1877" type="line"/>
    </contour>
  </outline>
</glyph>
<glyph name="Ncommaaccent" format="2">
  <advance width="1240"/>
  <unicode hex="0145"/>
  <outline>
    <contour>
      <point x="27" y="0" type="line"/>
      <point x="334" y="0" type="line"/>
      <point x="484" y="774" type="line"/>
      <point x="496" y="774" type="line"/>
      <point x="802" y="0" type="line"/>
      <point x="1003" y="0" type="line"/>
      <point x="1287" y="1460" type="line"/>
      <point x="980" y="1460" type="line"/>
      <point x="826" y="671" type="line"/>
      <point x="814" y="671" type="line"/>
      <point x="514" y="1460" type="line"/>
      <point x="311" y="1460" type="line"/>
    </contour>
    <contour>
      <point x="247" y="-494" type="line"/>
      <point x="488" y="-494" type="line"/>
      <point x="503" y="-418" type="line"/>
      <point x="203" y="-721" type="line"/>
      <point x="315" y="-786" type="line"/>
      <point x="588" y="-504" type="line"/>
      <point x="657" y="-151" type="line"/>
      <point x="314" y="-151" type="line"/>
    </contour>
  </outline>
</glyph>
<glyph name="ncommaaccent" format="2">
  <advance width="1240"/>
  <unicode hex="0146"/>
  <outline>
    <contour>
      <point x="698" y="0" type="line"/>
      <point x="1023" y="0" type="line"/>
      <point x="1181" y="811" type="line"/>
      <point x="943" y="1106" type="line"/>
      <point x="331" y="928" type="line"/>
      <point x="296" y="747" type="line"/>
      <point x="764" y="823" type="line"/>
      <point x="842" y="740" type="line"/>
    </contour>
    <contour>
      <point x="7" y="0" type="line"/>
      <point x="332" y="0" type="line"/>
      <point x="510" y="917" type="line"/>
      <point x="462" y="1082" type="line"/>
      <point x="217" y="1082" type="line"/>
    </contour>
    <contour>
      <point x="247" y="-494" type="line"/>
      <point x="488" y="-494" type="line"/>
      <point x="503" y="-418" type="line"/>
      <point x="203" y="-721" type="line"/>
      <point x="315" y="-786" type="line"/>
      <point x="588" y="-504" type="line"/>
      <point x="657" y="-151" type="line"/>
      <point x="314" y="-151" type="line"/>
    </contour>
  </outline>
</glyph>
<glyph name="Ncaron" format="2">
  <advance width="1240"/>
  <unicode hex="0147"/>
  <outline>
    <contour>
      <point x="27" y="0" type="line"/>
      <point x="334" y="0" type="line"/>
      <point x="484" y="774" type="line"/>
      <point x="496" y="774" type="line"/>
      <point x="802" y="0" type="line"/>
      <point x="1003" y="0" type="line"/>
      <point x="1287" y="1460" type="line"/>
      <point x="980" y="1460" type="line"/>
      <point x="826" y="671" type="line"/>
      <point x="814" y="671" type="line"/>
      <point x="514" y="1460" type="line"/>
      <point x="311" y="1460" type="line"/>
    </contour>
    <contour>
      <point x="459" y="1878" type="line"/>
      <point x="743" y="1878" type="line"/>
      <point x="864" y="1674" type="line"/>
      <point x="816" y="1674" type="line"/>
      <point x="1017" y="1878" type="line"/>
      <point x="1301" y="1878" type="line"/>
      <point x="1023" y="1620" type="line"/>
      <point x="637" y="1620" type="line"/>
    </contour>
  </outline>
</glyph>
<glyph name="Omacron" format="2">
  <advance width="1240"/>
  <unicode hex="014C"/>
  <outline>
    <contour>
      <point x="332" y="0" type="line"/>
      <point x="698" y="0" type="line"/>
      <point x="1166" y="528" type="line"/>
      <point x="1244" y="932" type="line"/>
      <point x="982" y="1460" type="line"/>
      <point x="616" y="1460" type="line"/>
      <point x="148" y="932" type="line"/>
      <point x="70" y="528" type="line"/>
    </contour>
    <contour>
      <point x="537" y="311" type="line"/>
      <point x="413" y="622" type="line"/>
      <point x="447" y="798" type="line"/>
      <point x="710" y="1149" type="line"/>
      <point x="776" y="1149" type="line"/>
      <point x="901" y="838" type="line"/>
      <point x="867" y="662" type="line"/>
      <point x="603" y="311" type="line"/>
    </contour>
    <contour>
      <point x="495" y="1691" type="line"/>
      <point x="1193" y="1691" type="line"/>
      <point x="1230" y="1884" type="line"/>
      <point x="532" y="1884" type="line"/>
    </contour>
  </outline>
</glyph>
<glyph name="Racute" format="2">
  <advance width="1240"/>
  <unicode hex="0154"/>
  <outline>
    <contour>
      <point x="260" y="552" type="line"/>
      <point x="825" y="552" type="line"/>
      <point x="1228" y="849" type="line"/>
      <point x="1289" y="1163" type="line"/>
      <point x="992" y="1460" type="line"/>
      <point x="437" y="1460" type="line"/>
      <point x="378" y="1159" type="line"/>
      <point x="823" y="1159" type="line"/>
      <point x="940" y="1039" type="line"/>
      <point x="919" y="933" type="line"/>
      <point x="726" y="763" type="line"/>
      <point x="301" y="763" type="line"/>
    </contour>
    <contour>
      <point x="22" y="0" type="line"/>
      <point x="359" y="0" type="line"/>
      <point x="643" y="1460" type="line"/>
      <point x="306" y="1460" type="line"/>
    </contour>
    <contour>
      <point x="728" y="0" type="line"/>
      <point x="1063" y="0" type="line"/>
      <point x="1112" y="253" type="line"/>
      <point x="915" y="661" type="line"/>
      <point x="594" y="661" type="line"/>
      <point x="774" y="237" type="line"/>
    </contour>
    <contour>
      <point x="964" y="1619" type="line"/>
      <point x="705" y="1619" type="line"/>
      <point x="938" y="1877" type="line"/>
      <point x="1263" y="1877" type="line"/>
    </contour>
  </outline>
</glyph>
<glyph name="Rcommaaccent" format="2">
  <advance width="1240"/>
  <unicode hex="0156"/>
  <outline>
    <contour>
      <point x="260" y="552" type="line"/>
      <point x="825" y="552" type="line"/>
      <point x="1228" y="849" type="line"/>
      <point x="1289" y="1163" type="line"/>
      <point x="992" y="1460" type="line"/>
      <point x="437" y="1460" type="line"/>
      <point x="378" y="1159" type="line"/>
      <point x="823" y="1159" type="line"/>
      <point x="940" y="1039" type="line"/>
      <point x="919" y="933" type="line"/>
      <point x="726" y="763" type="line"/>
      <point x="301" y="763" type="line"/>
    </contour>
    <contour>
      <point x="22" y="0" type="line"/>
      <point x="359" y="0" type="line"/>
      <point x="643" y="1460" type="line"/>
      <point x="306" y="1460" type="line"/>
    </contour>
    <contour>
      <point x="728" y="0" type="line"/>
      <point x="1063" y="0" type="line"/>
      <point x="1112" y="253" type="line"/>
      <point x="915" y="661" type="line"/>
      <point x="594" y="661" type="line"/>
      <point x="774" y="237" type="line"/>
    </contour>
    <contour>
      <point x="247" y="-494" type="line"/>
      <point x="488" y="-494" type="line"/>
      <point x="503" y="-418" type="line"/>
      <point x="203" y="-721" type="line"/>
      <point x="315" y="-786" type="line"/>
      <point x="588" y="-504" type="line"/>
      <point x="657" y="-151" type="line"/>
      <point x="314" y="-151" type="line"/>
    </contour>
  </outline>
</glyph>
<glyph name="rcaron" format="2">
  <advance width="1240"/>
  <unicode hex="0159"/>
  <outline>
    <contour>
      <point x="834" y="584" type="line"/>
      <point x="1167" y="630" type="line"/>
      <point x="1210" y="851" type="line"/>
      <point x="975" y="1106" type="line"/>
      <point x="336" y="878" type="line"/>
      <point x="308" y="737" type="line"/>
      <point x="804" y="813" type="line"/>
      <point x="866" y="749" type="line"/>
    </contour>
    <contour>
      <point x="7" y="0" type="line"/>
      <point x="332" y="0" type="line"/>
      <point x="510" y="917" type="line"/>
      <point x="462" y="1082" type="line"/>
      <point x="217" y="1082" type="line"/>
    </contour>
    <contour>
      <point x="413" y="1643" type="line"/>
      <point x="687" y="1643" type="line"/>
      <point x="807" y="1327" type="line"/>
      <point x="739" y="1327" type="line"/>
      <point x="981" y="1643" type="line"/>
      <point x="1255" y="1643" type="line"/>
      <point x="956" y="1275" type="line"/>
      <point x="570" y="1275" type="line"/>
    </contour>
  </outline>
</glyph>
<glyph name="Scaron" format="2">
  <advance width="1240"/>
  <unicode hex="0160"/>
  <outline>
    <contour>
      <point x="40" y="0" type="line"/>
      <point x="765" y="0" type="line"/>
      <point x="1063" y="281" type="line"/>
      <point x="1107" y="509" type="line"/>
      <point x="592" y="1011" type="line"/>
      <point x="604" y="1075" type="line"/>
      <point x="678" y="1159" type="line"/>
      <point x="1223" y="1159" type="line"/>
      <point x="1252" y="1460" type="line"/>
      <point x="547" y="1460" type="line"/>
      <point x="249" y="1179" type="line"/>
      <point x="205" y="951" type="line"/>
      <point x="720" y="449" type="line"/>
      <point x="708" y="385" type="line"/>
      <point x="634" y="301" type="line"/>
      <point x="69" y="301" type="line"/>
    </contour>
    <contour>
      <point x="458" y="1878" type="line"/>
      <point x="742" y="1878" type="line"/>
      <point x="863" y="1674" type="line"/>
      <point x="815" y="1674" type="line"/>
      <point x="1016" y="1878" type="line"/>
      <point x="1300" y="1878" type="line"/>
      <point x="1022" y="1620" type="line"/>
      <point x="636" y="1620" type="line"/>
    </contour>
  </outline>
</glyph>
<glyph name="scaron" format="2">
  <advance width="1240"/>
  <unicode hex="0161"/>
  <outline>
    <contour>
      <point x="95" y="0" type="line"/>
      <point x="780" y="0" type="line"/>
      <point x="991" y="226" type="line"/>
      <point x="1024" y="395" type="line"/>
      <point x="579" y="757" type="line"/>
      <point x="591" y="817" type="line"/>
      <point x="630" y="846" type="line"/>
      <point x="1121" y="846" type="line"/>
      <point x="1137" y="1082" type="line"/>
      <point x="459" y="1082" type="line"/>
      <point x="248" y="856" type="line"/>
      <point x="216" y="687" type="line"/>
      <point x="664" y="325" type="line"/>
      <point x="653" y="265" type="line"/>
      <point x="613" y="236" type="line"/>
      <point x="111" y="236" type="line"/>
    </contour>
    <contour>
      <point x="413" y="1643" type="line"/>
      <point x="687" y="1643" type="line"/>
      <point x="807" y="1327" type="line"/>
      <point x="739" y="1327" type="line"/>
      <point x="981" y="1643" type="line"/>
      <point x="1255" y="1643" type="line"/>
      <point x="956" y="1275" type="line"/>
      <point x="570" y="1275" type="line"/>
    </contour>
  </outline>
</glyph>
<glyph name="Umacron" format="2">
  <advance width="1240"/>
  <unicode hex="016A"/>
  <outline>
    <contour>
      <point x="242" y="0" type="line"/>
      <point x="808" y="0" type="line"/>
      <point x="1051" y="249" type="line"/>
      <point x="1287" y="1460" type="line"/>
      <point x="952" y="1460" type="line"/>
      <point x="737" y="353" type="line"/>
      <point x="663" y="271" type="line"/>
      <point x="473" y="271" type="line"/>
      <point x="431" y="353" type="line"/>
      <point x="646" y="1460" type="line"/>
      <point x="311" y="1460" type="line"/>
      <point x="79" y="269" type="line"/>
    </contour>
    <contour>
      <point x="495" y="1691" type="line"/>
      <point x="1193" y="1691" type="line"/>
      <point x="1230" y="1884" type="line"/>
      <point x="532" y="1884" type="line"/>
    </contour>
  </outline>
</glyph>
<glyph name="uogonek" format="2">
  <advance width="1240"/>
  <unicode hex="0173"/>
  <outline>
    <contour>
      <point x="542" y="1082" type="line"/>
      <point x="217" y="1082" type="line"/>
      <point x="60" y="271" type="line"/>
      <point x="297" y="-24" type="line"/>
      <point x="909" y="154" type="line"/>
      <point x="944" y="335" type="line"/>
      <point x="476" y="259" type="line"/>
      <point x="398" y="342" type="line"/>
    </contour>
    <contour>
      <point x="1233" y="1082" type="line"/>
      <point x="908" y="1082" type="line"/>
      <point x="730" y="165" type="line"/>
      <point x="778" y="0" type="line"/>
      <point x="1023" y="0" type="line"/>
    </contour>
    <contour>
      <point x="611" y="-133" type="line"/>
      <point x="575" y="-320" type="line"/>
      <point x="754" y="-443" type="line"/>
      <point x="918" y="-443" type="line"/>
      <point x="957" y="-240" type="line"/>
      <point x="865" y="-240" type="line"/>
      <point x="819" y="-210" type="line"/>
      <point x="826" y="-173" type="line"/>
      <point x="1023" y="0" type="line"/>
      <point x="915" y="44" type="line"/>
    </contour>
  </outline>
</glyph>
<glyph name="Oogonek" format="2">
  <advance width="1240"/>
  <unicode hex="01EA"/>
  <outline>
    <contour>
      <point x="332" y="0" type="line"/>
      <point x="698" y="0" type="line"/>
      <point x="1166" y="528" type="line"/>
      <point x="1244" y="932" type="line"/>
      <point x="982" y="1460" type="line"/>
      <point x="616" y="1460" type="line"/>
      <point x="148" y="932" type="line"/>
      <point x="70" y="528" type="line"/>
    </contour>
    <contour>
      <point x="537" y="311" type="line"/>
      <point x="413" y="622" type="line"/>
      <point x="447" y="798" type="line"/>
      <point x="710" y="1149" type="line"/>
      <point x="776" y="1149" type="line"/>
      <point x="901" y="838" type="line"/>
      <point x="867" y="662" type="line"/>
      <point x="603" y="311" type="line"/>
    </contour>
    <contour>
      <point x="286" y="-133" type="line"/>
      <point x="250" y="-320" type="line"/>
      <point x="429" y="-443" type="line"/>
      <point x="593" y="-443" type="line"/>
      <point x="632" y="-240" type="line"/>
      <point x="540" y="-240" type="line"/>
      <point x="494" y="-210" type="line"/>
      <point x="501" y="-173" type="line"/>
      <point x="698" y="0" type="line"/>
      <point x="590" y="44" type="line"/>
    </contour>
  </outline>
</glyph>
<glyph name="scommaaccent" format="2">
  <advance width="1240"/>
  <unicode hex="0219"/>
  <outline>
    <contour>
      <point x="95" y="0" type="line"/>
      <point x="780" y="0" type="line"/>
      <point x="991" y="226" type="line"/>
      <point x="1024" y="395" type="line"/>
      <point x="579" y="757" type="line"/>
      <point x="591" y="817" type="line"/>
      <point x="630" y="846" type="line"/>
      <point x="1121" y="846" type="line"/>
      <point x="1137" y="1082" type="line"/>
      <point x="459" y="1082" type="line"/>
      <point x="248" y="856" type="line"/>
      <point x="216" y="687" type="line"/>
      <point x="664" y="325" type="line"/>
      <point x="653" y="265" type="line"/>
      <point x="613" y="236" type="line"/>
      <point x="111" y="236" type="line"/>
    </contour>
    <contour>
      <point x="247" y="-494" type="line"/>
      <point x="488" y="-494" type="line"/>
      <point x="503" y="-418" type="line"/>
      <point x="203" y="-721" type="line"/>
      <point x="315" y="-786" type="line"/>
      <point x="588" y="-504" type="line"/>
      <point x="657" y="-151" type="line"/>
      <point x="314" y="-151" type="line"/>
    </contour>
  </outline>
</glyph>
<glyph name="Tcommaaccent" format="2">
  <advance width="1240"/>
  <unicode hex="021A"/>
  <outline>
    <contour>
      <point x="353" y="0" type="line"/>
      <point x="683" y="0" type="line"/>
      <point x="967" y="1460" type="line"/>
      <point x="637" y="1460" type="line"/>
    </contour>
    <contour>
      <point x="207" y="1189" type="line"/>
      <point x="1283" y="1189" type="line"/>
      <point x="1316" y="1460" type="line"/>
      <point x="280" y="1460" type="line"/>
    </contour>
    <contour>
      <point x="253" y="-494" type="line"/>
      <point x="494" y="-494" type="line"/>
      <point x="509" y="-418" type="line"/>
      <point x="209" y="-721" type="line"/>
      <point x="321" y="-786" type="line"/>
      <point x="594" y="-504" type="line"/>
      <point x="663" y="-151" type="line"/>
      <point x="320" y="-151" type="line"/>
    </contour>
  </outline>
</glyph>
<glyph name="ymacron" format="2">
  <advance width="1240"/>
  <unicode hex="0233"/>
  <outline>
    <contour>
      <point x="95" y="-400" type="line"/>
      <point x="670" y="-400" type="line"/>
      <point x="1007" y="-81" type="line"/>
      <point x="1233" y="1082" type="line"/>
      <point x="908" y="1082" type="line"/>
      <point x="769" y="365" type="line"/>
      <point x="760" y="318" type="line"/>
      <point x="702" y="23" type="line"/>
      <point x="552" y="-109" type="line"/>
      <point x="102" y="-109" type="line"/>
    </contour>
    <contour>
      <point x="325" y="117" type="line"/>
      <point x="936" y="295" type="line"/>
      <point x="972" y="476" type="line"/>
      <point x="504" y="400" type="line"/>
      <point x="426" y="483" type="line"/>
      <point x="542" y="1082" type="line"/>
      <point x="217" y="1082" type="line"/>
      <point x="87" y="412" type="line"/>
    </contour>
    <contour>
      <point x="419" y="1299" type="line"/>
      <point x="1117" y="1299" type="line"/>
      <point x="1154" y="1492" type="line"/>
      <point x="456" y="1492" type="line"/>
    </contour>
  </outline>
</glyph>
<glyph name="schwa" format="2">
  <advance width="1240"/>
  <unicode hex="0259"/>
  <outline>
    <contour>
      <point x="900" y="1082" type="line"/>
      <point x="292" y="1082" type="line"/>
      <point x="214" y="831" type="line"/>
      <point x="702" y="831" type="line"/>
      <point x="828" y="659" type="line"/>
      <point x="786" y="443" type="line"/>
      <point x="575" y="231" type="line"/>
      <point x="377" y="231" type="line"/>
      <point x="332" y="289" type="line"/>
      <point x="349" y="375" type="line"/>
      <point x="411" y="435" type="line"/>
      <point x="855" y="435" type="line"/>
      <point x="891" y="625" type="line"/>
      <point x="242" y="625" type="line"/>
      <point x="111" y="513" type="line"/>
      <point x="56" y="231" type="line"/>
      <point x="220" y="0" type="line"/>
      <point x="690" y="0" type="line"/>
      <point x="1077" y="369" type="line"/>
      <point x="1144" y="713" type="line"/>
    </contour>
  </outline>
</glyph>
<glyph name="nhookleft" format="2">
  <advance width="1240"/>
  <unicode hex="0272"/>
  <outline>
    <contour>
      <point x="342" y="50" type="line"/>
      <point x="17" y="50" type="line"/>
      <point x="-4" y="-57" type="line"/>
      <point x="-52" y="-99" type="line"/>
      <point x="-188" y="-99" type="line"/>
      <point x="-217" y="-400" type="line"/>
      <point x="59" y="-400" type="line"/>
      <point x="299" y="-171" type="line"/>
    </contour>
    <contour>
      <point x="698" y="0" type="line"/>
      <point x="1023" y="0" type="line"/>
      <point x="1181" y="811" type="line"/>
      <point x="943" y="1106" type="line"/>
      <point x="331" y="928" type="line"/>
      <point x="296" y="747" type="line"/>
      <point x="764" y="823" type="line"/>
      <point x="842" y="740" type="line"/>
    </contour>
    <contour>
      <point x="7" y="0" type="line"/>
      <point x="332" y="0" type="line"/>
      <point x="510" y="917" type="line"/>
      <point x="462" y="1082" type="line"/>
      <point x="217" y="1082" type="line"/>
    </contour>
  </outline>
</glyph>
<glyph name="circumflex" format="2">
  <advance width="1240"/>
  <unicode hex="02C6"/>
  <outline>
    <contour>
      <point x="342" y="1275" type="line"/>
      <point x="616" y="1275" type="line"/>
      <point x="858" y="1591" type="line"/>
      <point x="790" y="1591" type="line"/>
      <point x="910" y="1275" type="line"/>
      <point x="1184" y="1275" type="line"/>
      <point x="1027" y="1643" type="line"/>
      <point x="641" y="1643" type="line"/>
    </contour>
  </outline>
</glyph>
<glyph name="caron" format="2">
  <advance width="1240"/>
  <unicode hex="02C7"/>
  <outline>
    <contour>
      <point x="413" y="1643" type="line"/>
      <point x="687" y="1643" type="line"/>
      <point x="807" y="1327" type="line"/>
      <point x="739" y="1327" type="line"/>
      <point x="981" y="1643" type="line"/>
      <point x="1255" y="1643" type="line"/>
      <point x="956" y="1275" type="line"/>
      <point x="570" y="1275" type="line"/>
    </contour>
  </outline>
</glyph>
<glyph name="hungarumlaut" format="2">
  <advance width="1240"/>
  <unicode hex="02DD"/>
  <outline>
    <contour>
      <point x="870" y="1275" type="line"/>
      <point x="1075" y="1275" type="line"/>
      <point x="1312" y="1643" type="line"/>
      <point x="1067" y="1643" type="line"/>
    </contour>
    <contour>
      <point x="448" y="1275" type="line"/>
      <point x="654" y="1275" type="line"/>
      <point x="890" y="1643" type="line"/>
      <point x="646" y="1643" type="line"/>
    </contour>
  </outline>
</glyph>
<glyph name="macroncomb" format="2">
  <unicode hex="0304"/>
  <outline>
    <contour>
      <point x="419" y="1299" type="line"/>
      <point x="1117" y="1299" type="line"/>
      <point x="1154" y="1492" type="line"/>
      <point x="456" y="1492" type="line"/>
    </contour>
  </outline>
</glyph>
<glyph name="brevecomb" format="2">
  <unicode hex="0306"/>
  <outline>
    <contour>
      <point x="594" y="1267" type="line"/>
      <point x="928" y="1267" type="line"/>
      <point x="1157" y="1450" type="line"/>
      <point x="1194" y="1643" type="line"/>
      <point x="996" y="1643" type="line"/>
      <point x="972" y="1517" type="line"/>
      <point x="882" y="1440" type="line"/>
      <point x="708" y="1440" type="line"/>
      <point x="648" y="1517" type="line"/>
      <point x="672" y="1643" type="line"/>
      <point x="474" y="1643" type="line"/>
      <point x="437" y="1449" type="line"/>
    </contour>
  </outline>
</glyph>
<glyph name="dieresiscomb" format="2">
  <unicode hex="0308"/>
  <outline>
    <contour>
      <point x="473" y="1227" type="line"/>
      <point x="706" y="1437" type="line"/>
      <point x="554" y="1645" type="line"/>
      <point x="320" y="1437" type="line"/>
    </contour>
    <contour>
      <point x="1034" y="1227" type="line"/>
      <point x="1267" y="1437" type="line"/>
      <point x="1115" y="1645" type="line"/>
      <point x="881" y="1437" type="line"/>
    </contour>
  </outline>
</glyph>
<glyph name="caroncomb" format="2">
  <unicode hex="030C"/>
  <outline>
    <contour>
      <point x="413" y="1643" type="line"/>
      <point x="687" y="1643" type="line"/>
      <point x="807" y="1327" type="line"/>
      <point x="739" y="1327" type="line"/>
      <point x="981" y="1643" type="line"/>
      <point x="1255" y="1643" type="line"/>
      <point x="956" y="1275" type="line"/>
      <point x="570" y="1275" type="line"/>
    </contour>
  </outline>
</glyph>
<glyph name="commaaccentcomb" format="2">
  <unicode hex="0326"/>
  <outline>
    <contour>
      <point x="247" y="-494" type="line"/>
      <point x="488" y="-494" type="line"/>
      <point x="503" y="-418" type="line"/>
      <point x="203" y="-721" type="line"/>
      <point x="315" y="-786" type="line"/>
      <point x="588" y="-504" type="line"/>
      <point x="657" y="-151" type="line"/>
      <point x="314" y="-151" type="line"/>
    </contour>
  </outline>
</glyph>
<glyph name="cedillacomb" format="2">
  <unicode hex="0327"/>
  <outline>
    <contour>
      <point x="259" y="-637" type="line"/>
      <point x="453" y="-637" type="line"/>
      <point x="667" y="-474" type="line"/>
      <point x="705" y="-280" type="line"/>
      <point x="557" y="-140" type="line"/>
      <point x="537" y="-140" type="line"/>
      <point x="564" y="-200" type="line"/>
      <point x="612" y="48" type="line"/>
      <point x="432" y="48" type="line"/>
      <point x="364" y="-305" type="line"/>
      <point x="450" y="-305" type="line"/>
      <point x="516" y="-360" type="line"/>
      <point x="509" y="-394" type="line"/>
      <point x="422" y="-449" type="line"/>
      <point x="296" y="-449" type="line"/>
    </contour>
  </outline>
</glyph>
<glyph name="Odotbelow" format="2">
  <advance width="1240"/>
  <unicode hex="1ECC"/>
  <outline>
    <contour>
      <point x="332" y="0" type="line"/>
      <point x="698" y="0" type="line"/>
      <point x="1166" y="528" type="line"/>
      <point x="1244" y="932" type="line"/>
      <point x="982" y="1460" type="line"/>
      <point x="616" y="1460" type="line"/>
      <point x="148" y="932" type="line"/>
      <point x="70" y="528" type="line"/>
    </contour>
    <contour>
      <point x="537" y="311" type="line"/>
      <point x="413" y="622" type="line"/>
      <point x="447" y="798" type="line"/>
      <point x="710" y="1149" type="line"/>
      <point x="776" y="1149" type="line"/>
      <point x="901" y="838" type="line"/>
      <point x="867" y="662" type="line"/>
      <point x="603" y="311" type="line"/>
    </contour>
    <contour>
      <point x="412" y="-528" type="line"/>
      <point x="671" y="-318" type="line"/>
      <point x="494" y="-109" type="line"/>
      <point x="234" y="-318" type="line"/>
    </contour>
  </outline>
</glyph>
<glyph name="Udotbelow" format="2">
  <advance width="1240"/>
  <unicode hex="1EE4"/>
  <outline>
    <contour>
      <point x="242" y="0" type="line"/>
      <point x="808" y="0" type="line"/>
      <point x="1051" y="249" type="line"/>
      <point x="1287" y="1460" type="line"/>
      <point x="952" y="1460" type="line"/>
      <point x="737" y="353" type="line"/>
      <point x="663" y="271" type="line"/>
      <point x="473" y="271" type="line"/>
      <point x="431" y="353" type="line"/>
      <point x="646" y="1460" type="line"/>
      <point x="311" y="1460" type="line"/>
      <point x="79" y="269" type="line"/>
    </contour>
    <contour>
      <point x="412" y="-528" type="line"/>
      <point x="671" y="-318" type="line"/>
      <point x="494" y="-109" type="line"/>
      <point x="234" y="-318" type="line"/>
    </contour>
  </outline>
</glyph>
<glyph name="emdash" format="2">
  <advance width="1240"/>
  <unicode hex="2014"/>
  <outline>
    <contour>
      <point x="-1" y="537" type="line"/>
      <point x="1239" y="537" type="line"/>
      <point x="1292" y="808" type="line"/>
      <point x="52" y="808" type="line"/>
    </contour>
  </outline>
</glyph>
<glyph name="quotedblleft" format="2">
  <advance width="1240"/>
  <unicode hex="201C"/>
  <outline>
    <contour>
      <point x="424" y="1044" type="curve" smooth="yes"/>
      <point x="374" y="1044"/>
      <point x="329" y="1032"/>
      <point x="284" y="1009" type="curve"/>
      <point x="345" y="933" type="line"/>
      <point x="383" y="1104"/>
      <point x="544" y="1247"/>
      <point x="771" y="1379" type="curve"/>
      <point x="646" y="1494" type="line"/>
      <point x="413" y="1369"/>
      <point x="183" y="1171"/>
      <point x="129" y="896" type="curve" smooth="yes"/>
      <point x="88" y="683"/>
      <point x="184" y="584"/>
      <point x="333" y="584" type="curve" smooth="yes"/>
      <point x="473" y="584"/>
      <point x="592" y="672"/>
      <point x="619" y="813" type="curve" smooth="yes"/>
      <point x="647" y="956"/>
      <point x="559" y="1044"/>
    </contour>
    <contour>
      <point x="1016" y="1044" type="curve" smooth="yes"/>
      <point x="966" y="1044"/>
      <point x="921" y="1032"/>
      <point x="876" y="1009" type="curve"/>
      <point x="937" y="933" type="line"/>
      <point x="975" y="1104"/>
      <point x="1136" y="1247"/>
      <point x="1363" y="1379" type="curve"/>
      <point x="1238" y="1494" type="line"/>
      <point x="1005" y="1369"/>
      <point x="775" y="1171"/>
      <point x="721" y="896" type="curve" smooth="yes"/>
      <point x="680" y="683"/>
      <point x="776" y="584"/>
      <point x="925" y="584" type="curve" smooth="yes"/>
      <point x="1065" y="584"/>
      <point x="1184" y="672"/>
      <point x="1211" y="813" type="curve" smooth="yes"/>
      <point x="1239" y="956"/>
      <point x="1151" y="1044"/>
    </contour>
  </outline>
</glyph>
<glyph name="daggerdbl" format="2">
  <advance width="1240"/>
  <unicode hex="2021"/>
  <outline>
    <contour>
      <point x="637" y="-220" type="line"/>
      <point x="964" y="1460" type="line"/>
      <point x="634" y="1460" type="line"/>
      <point x="307" y="-220" type="line"/>
    </contour>
    <contour>
      <point x="178" y="809" type="line"/>
      <point x="1164" y="809" type="line"/>
      <point x="1217" y="1080" type="line"/>
      <point x="231" y="1080" type="line"/>
    </contour>
    <contour>
      <point x="52" y="160" type="line"/>
      <point x="1038" y="160" type="line"/>
      <point x="1091" y="431" type="line"/>
      <point x="105" y="431" type="line"/>
    </contour>
  </outline>
</glyph>
<glyph name="ellipsis" format="2">
  <advance width="1240"/>
  <unicode hex="2026"/>
  <outline>
    <contour>
      <point x="111" y="-26" type="curve" smooth="yes"/>
      <point x="197" y="-26"/>
      <point x="276" y="31"/>
      <point x="296" y="131" type="curve" smooth="yes"/>
      <point x="315" y="232"/>
      <point x="252" y="296"/>
      <point x="165" y="296" type="curve" smooth="yes"/>
      <point x="78" y="296"/>
      <point x="-1" y="240"/>
      <point x="-21" y="140" type="curve" smooth="yes"/>
      <point x="-40" y="39"/>
      <point x="23" y="-26"/>
    </contour>
    <contour>
      <point x="515" y="-26" type="curve" smooth="yes"/>
      <point x="601" y="-26"/>
      <point x="680" y="31"/>
      <point x="700" y="131" type="curve" smooth="yes"/>
      <point x="719" y="232"/>
      <point x="656" y="296"/>
      <point x="569" y="296" type="curve" smooth="yes"/>
      <point x="482" y="296"/>
      <point x="403" y="240"/>
      <point x="383" y="140" type="curve" smooth="yes"/>
      <point x="364" y="39"/>
      <point x="427" y="-26"/>
    </contour>
    <contour>
      <point x="919" y="-26" type="curve" smooth="yes"/>
      <point x="1005" y="-26"/>
      <point x="1084" y="31"/>
      <point x="1104" y="131" type="curve" smooth="yes"/>
      <point x="1123" y="232"/>
      <point x="1060" y="296"/>
      <point x="973" y="296" type="curve" smooth="yes"/>
      <point x="886" y="296"/>
      <point x="807" y="240"/>
      <point x="787" y="140" type="curve" smooth="yes"/>
      <point x="768" y="39"/>
      <point x="831" y="-26"/>
    </contour>
  </outline>
</glyph>
<glyph name="guilsinglleft" format="2">
  <advance width="1240"/>
  <unicode hex="2039"/>
  <outline>
    <contour>
      <point x="858" y="116" type="line"/>
      <point x="572" y="684" type="line"/>
      <point x="280" y="539" type="line"/>
      <point x="546" y="-24" type="line"/>
    </contour>
    <contour>
      <point x="767" y="1106" type="line"/>
      <point x="280" y="539" type="line"/>
      <point x="518" y="396" type="line"/>
      <point x="1019" y="948" type="line"/>
    </contour>
  </outline>
</glyph>
<glyph name="guilsinglright" format="2">
  <advance width="1240"/>
  <unicode hex="203A"/>
  <outline>
    <contour>
      <point x="383" y="966" type="line"/>
      <point x="668" y="398" type="line"/>
      <point x="961" y="543" type="line"/>
      <point x="694" y="1106" type="line"/>
    </contour>
    <contour>
      <point x="473" y="-24" type="line"/>
      <point x="961" y="543" type="line"/>
      <point x="722" y="686" type="line"/>
      <point x="221" y="134" type="line"/>
    </contour>
  </outline>
</glyph>
<glyph name="fivesuperior" format="2">
  <advance width="1240"/>
  <unicode hex="2075"/>
  <outline>
    <contour>
      <point x="628" y="1655" type="line"/>
      <point x="521" y="1350" type="line"/>
      <point x="660" y="1334" type="line"/>
      <point x="691" y="1356"/>
      <point x="732" y="1365"/>
      <point x="769" y="1365" type="curve" smooth="yes"/>
      <point x="851" y="1365"/>
      <point x="871" y="1334"/>
      <point x="864" y="1295" type="curve" smooth="yes"/>
      <point x="854" y="1246"/>
      <point x="808" y="1217"/>
      <point x="738" y="1217" type="curve" smooth="yes"/>
      <point x="684" y="1217"/>
      <point x="644" y="1236"/>
      <point x="642" y="1274" type="curve"/>
      <point x="487" y="1259" type="line"/>
      <point x="461" y="1128"/>
      <point x="583" y="1092"/>
      <point x="724" y="1092" type="curve" smooth="yes"/>
      <point x="884" y="1092"/>
      <point x="995" y="1145"/>
      <point x="1021" y="1283" type="curve" smooth="yes"/>
      <point x="1045" y="1404"/>
      <point x="970" y="1463"/>
      <point x="837" y="1463" type="curve" smooth="yes"/>
      <point x="767" y="1463"/>
      <point x="718" y="1447"/>
      <point x="671" y="1426" type="curve"/>
      <point x="674" y="1394" type="line"/>
      <point x="745" y="1569" type="line"/>
      <point x="699" y="1524" type="line"/>
      <point x="1035" y="1524" type="line"/>
      <point x="1061" y="1655" type="line"/>
    </contour>
  </outline>
</glyph>
<glyph name="sixinferior" format="2">
  <advance width="1240"/>
  <unicode hex="2086"/>
  <outline>
    <contour>
      <point x="580" y="284" type="curve" smooth="yes"/>
      <point x="403" y="284"/>
      <point x="290" y="215"/>
      <point x="249" y="7" type="curve" smooth="yes"/>
      <point x="209" y="-201"/>
      <point x="322" y="-288"/>
      <point x="481" y="-288" type="curve" smooth="yes"/>
      <point x="627" y="-288"/>
      <point x="737" y="-237"/>
      <point x="761" y="-112" type="curve" smooth="yes"/>
      <point x="786" y="13"/>
      <point x="698" y="54"/>
      <point x="601" y="54" type="curve" smooth="yes"/>
      <point x="461" y="54"/>
      <point x="380" y="-12"/>
      <point x="325" y="-65" type="curve"/>
      <point x="331" y="-115" type="line"/>
      <point x="372" y="-89"/>
      <point x="443" y="-50"/>
      <point x="529" y="-50" type="curve" smooth="yes"/>
      <point x="581" y="-50"/>
      <point x="611" y="-64"/>
      <point x="604" y="-100" type="curve" smooth="yes"/>
      <point x="596" y="-139"/>
      <point x="556" y="-163"/>
      <point x="494" y="-163" type="curve" smooth="yes"/>
      <point x="426" y="-163"/>
      <point x="392" y="-134"/>
      <point x="413" y="-24" type="curve" smooth="yes"/>
      <point x="441" y="119"/>
      <point x="478" y="162"/>
      <point x="565" y="162" type="curve" smooth="yes"/>
      <point x="615" y="162"/>
      <point x="641" y="146"/>
      <point x="639" y="106" type="curve"/>
      <point x="789" y="122" type="line"/>
      <point x="793" y="228"/>
      <point x="730" y="284"/>
    </contour>
  </outline>
</glyph>
<glyph name="seveninferior" format="2">
  <advance width="1240"/>
  <unicode hex="2087"/>
  <outline>
    <contour>
      <point x="322" y="275" type="line"/>
      <point x="297" y="144" type="line"/>
      <point x="694" y="144" type="line"/>
      <point x="637" y="189" type="line"/>
      <point x="326" y="-280" type="line"/>
      <point x="489" y="-280" type="line"/>
      <point x="800" y="192" type="line"/>
      <point x="816" y="275" type="line"/>
    </contour>
  </outline>
</glyph>
<glyph name="won" format="2">
  <advance width="1240"/>
  <unicode hex="20A9"/>
  <outline>
    <contour>
      <point x="271" y="1460" type="line"/>
      <point x="145" y="0" type="line"/>
      <point x="366" y="0" type="line"/>
      <point x="655" y="742" type="line"/>
      <point x="667" y="742" type="line"/>
      <point x="653" y="0" type="line"/>
      <point x="883" y="0" type="line"/>
      <point x="1327" y="1460" type="line"/>
      <point x="1046" y="1460" type="line"/>
      <point x="838" y="708" type="line"/>
      <point x="818" y="708" type="line"/>
      <point x="854" y="1217" type="line"/>
      <point x="679" y="1217" type="line"/>
      <point x="487" y="708" type="line"/>
      <point x="467" y="708" type="line"/>
      <point x="563" y="1460" type="line"/>
    </contour>
    <contour>
      <point x="1215" y="585" type="line"/>
      <point x="1259" y="815" type="line"/>
      <point x="87" y="815" type="line"/>
      <point x="43" y="585" type="line"/>
    </contour>
  </outline>
</glyph>
<glyph name="euro" format="2">
  <advance width="1240"/>
  <unicode hex="20AC"/>
  <outline>
    <contour>
      <point x="898" y="653" type="line"/>
      <point x="834" y="473" type="line"/>
      <point x="48" y="473" type="line"/>
      <point x="83" y="653" type="line"/>
    </contour>
    <contour>
      <point x="1015" y="987" type="line"/>
      <point x="951" y="807" type="line"/>
      <point x="113" y="807" type="line"/>
      <point x="148" y="987" type="line"/>
    </contour>
    <contour>
      <point x="1285" y="1440" type="curve"/>
      <point x="1154" y="1172" type="line"/>
      <point x="1090" y="1187"/>
      <point x="1034" y="1195"/>
      <point x="970" y="1195" type="curve" smooth="yes"/>
      <point x="779" y="1195"/>
      <point x="623" y="1117"/>
      <point x="548" y="730" type="curve" smooth="yes"/>
      <point x="473" y="343"/>
      <point x="599" y="265"/>
      <point x="790" y="265" type="curve" smooth="yes"/>
      <point x="854" y="265"/>
      <point x="924" y="273"/>
      <point x="993" y="289" type="curve"/>
      <point x="1009" y="24" type="line"/>
      <point x="906" y="-12"/>
      <point x="816" y="-24"/>
      <point x="709" y="-24" type="curve" smooth="yes"/>
      <point x="319" y="-24"/>
      <point x="103" y="174"/>
      <point x="213" y="740" type="curve" smooth="yes"/>
      <point x="323" y="1306"/>
      <point x="601" y="1484"/>
      <point x="994" y="1484" type="curve" smooth="yes"/>
      <point x="1097" y="1484"/>
      <point x="1199" y="1473"/>
    </contour>
  </outline>
</glyph>
<glyph name="ruble" format="2">
  <advance width="1240"/>
  <unicode hex="20BD"/>
  <outline>
    <contour>
      <point x="449" y="0" type="line"/>
      <point x="733" y="1460" type="line"/>
      <point x="396" y="1460" type="line"/>
      <point x="112" y="0" type="line"/>
    </contour>
    <contour>
      <point x="100" y="792" type="line"/>
      <point x="55" y="562" type="line"/>
      <point x="577" y="562" type="line" smooth="yes"/>
      <point x="1008" y="562"/>
      <point x="1214" y="767"/>
      <point x="1269" y="1050" type="curve" smooth="yes"/>
      <point x="1324" y="1335"/>
      <point x="1177" y="1460"/>
      <point x="915" y="1460" type="curve" smooth="yes"/>
      <point x="649" y="1460" type="line"/>
      <point x="606" y="1238" type="line"/>
      <point x="768" y="1238" type="line" smooth="yes"/>
      <point x="909" y="1238"/>
      <point x="966" y="1186"/>
      <point x="936" y="1033" type="curve" smooth="yes"/>
      <point x="909" y="897"/>
      <point x="835" y="792"/>
      <point x="665" y="792" type="curve" smooth="yes"/>
    </contour>
    <contour>
      <point x="874" y="179" type="line"/>
      <point x="919" y="409" type="line"/>
      <point x="26" y="409" type="line"/>
      <point x="-19" y="179" type="line"/>
    </contour>
  </outline>
</glyph>
<glyph name="literSign" format="2">
  <advance width="1240"/>
  <unicode hex="2113"/>
  <outline>
    <contour>
      <point x="668" y="-22" type="curve" smooth="yes"/>
      <point x="797" y="-22"/>
      <point x="914" y="7"/>
      <point x="1038" y="51" type="curve"/>
      <point x="1043" y="295" type="line"/>
      <point x="964" y="264"/>
      <point x="877" y="244"/>
      <point x="801" y="244" type="curve" smooth="yes"/>
      <point x="620" y="244"/>
      <point x="584" y="357"/>
      <point x="666" y="779" type="curve" smooth="yes"/>
      <point x="740" y="1157"/>
      <point x="810" y="1244"/>
      <point x="906" y="1244" type="curve" smooth="yes"/>
      <point x="966" y="1244"/>
      <point x="997" y="1210"/>
      <point x="980" y="1121" type="curve" smooth="yes"/>
      <point x="930" y="864"/>
      <point x="562" y="602"/>
      <point x="43" y="387" type="curve"/>
      <point x="78" y="208" type="line"/>
      <point x="655" y="438"/>
      <point x="1124" y="725"/>
      <point x="1204" y="1137" type="curve" smooth="yes"/>
      <point x="1247" y="1360"/>
      <point x="1140" y="1484"/>
      <point x="921" y="1484" type="curve" smooth="yes"/>
      <point x="637" y="1484"/>
      <point x="435" y="1319"/>
      <point x="323" y="739" type="curve" smooth="yes"/>
      <point x="199" y="103"/>
      <point x="368" y="-22"/>
    </contour>
  </outline>
</glyph>
<glyph name="numero" format="2">
  <advance width="1240"/>
  <unicode hex="2116"/>
  <outline>
    <contour>
      <point x="371" y="0" type="line"/>
      <point x="574" y="0" type="line"/>
      <point x="858" y="1460" type="line"/>
      <point x="684" y="1460" type="line"/>
      <point x="509" y="561" type="line"/>
      <point x="491" y="561" type="line"/>
      <point x="464" y="1460" type="line"/>
      <point x="259" y="1460" type="line"/>
      <point x="-25" y="0" type="line"/>
      <point x="149" y="0" type="line"/>
      <point x="321" y="884" type="line"/>
      <point x="339" y="884" type="line"/>
    </contour>
    <contour>
      <point x="1318" y="1070" type="curve" smooth="yes"/>
      <point x="1373" y="1351"/>
      <point x="1292" y="1484"/>
      <point x="1165" y="1484" type="curve" smooth="yes"/>
      <point x="1039" y="1484"/>
      <point x="931" y="1371"/>
      <point x="877" y="1090" type="curve" smooth="yes"/>
      <point x="822" y="808"/>
      <point x="905" y="689"/>
      <point x="1031" y="689" type="curve" smooth="yes"/>
      <point x="1158" y="689"/>
      <point x="1263" y="788"/>
    </contour>
    <contour>
      <point x="1177" y="1083" type="curve" smooth="yes"/>
      <point x="1149" y="944"/>
      <point x="1111" y="900"/>
      <point x="1062" y="900" type="curve" smooth="yes"/>
      <point x="1013" y="900"/>
      <point x="992" y="944"/>
      <point x="1020" y="1083" type="curve" smooth="yes"/>
      <point x="1047" y="1223"/>
      <point x="1085" y="1273"/>
      <point x="1134" y="1273" type="curve" smooth="yes"/>
      <point x="1183" y="1273"/>
      <point x="1204" y="1223"/>
    </contour>
    <contour>
      <point x="943" y="276" type="curve" smooth="yes"/>
      <point x="1010" y="276"/>
      <point x="1074" y="327"/>
      <point x="1090" y="410" type="curve" smooth="yes"/>
      <point x="1106" y="494"/>
      <point x="1062" y="543"/>
      <point x="995" y="543" type="curve" smooth="yes"/>
      <point x="927" y="543"/>
      <point x="861" y="494"/>
      <point x="845" y="410" type="curve" smooth="yes"/>
      <point x="829" y="327"/>
      <point x="875" y="276"/>
    </contour>
  </outline>
</glyph>
<glyph name="trademark" format="2">
  <advance width="1240"/>
  <unicode hex="2122"/>
  <outline>
    <contour>
      <point x="428" y="855" type="line"/>
      <point x="559" y="1530" type="line"/>
      <point x="389" y="1530" type="line"/>
      <point x="258" y="855" type="line"/>
    </contour>
    <contour>
      <point x="224" y="1375" type="line"/>
      <point x="664" y="1375" type="line"/>
      <point x="694" y="1530" type="line"/>
      <point x="254" y="1530" type="line"/>
    </contour>
    <contour>
      <point x="775" y="1530" type="line"/>
      <point x="644" y="855" type="line"/>
      <point x="804" y="855" type="line"/>
      <point x="879" y="1240" type="line"/>
      <point x="885" y="1240" type="line"/>
      <point x="940" y="1026" type="line"/>
      <point x="971" y="1026" type="line"/>
      <point x="1115" y="1240" type="line"/>
      <point x="1123" y="1240" type="line"/>
      <point x="1048" y="855" type="line"/>
      <point x="1208" y="855" type="line"/>
      <point x="1339" y="1530" type="line"/>
      <point x="1173" y="1530" type="line"/>
      <point x="1017" y="1302" type="line"/>
      <point x="1011" y="1302" type="line"/>
      <point x="954" y="1530" type="line"/>
    </contour>
  </outline>
</glyph>
<glyph name="leftArrow" format="2">
  <advance width="1240"/>
  <unicode hex="2190"/>
  <outline>
    <contour>
      <point x="117" y="730" type="line"/>
      <point x="530" y="215" type="line"/>
      <point x="724" y="378" type="line"/>
      <point x="415" y="758" type="line"/>
      <point x="404" y="702" type="line"/>
      <point x="861" y="1082" type="line"/>
      <point x="730" y="1245" type="line"/>
    </contour>
    <contour>
      <point x="354" y="604" type="line"/>
      <point x="1128" y="604" type="line"/>
      <point x="1177" y="856" type="line"/>
      <point x="403" y="856" type="line"/>
    </contour>
    <contour>
      <point x="599" y="935" type="line"/>
      <point x="470" y="730" type="line"/>
      <point x="520" y="525" type="line"/>
      <point x="642" y="730" type="line"/>
    </contour>
  </outline>
</glyph>
<glyph name="northWestArrow" format="2">
  <advance width="1240"/>
  <unicode hex="2196"/>
  <outline>
    <contour>
      <point x="345" y="1122" type="line"/>
      <point x="202" y="395" type="line"/>
      <point x="433" y="395" type="line"/>
      <point x="536" y="935" type="line"/>
      <point x="488" y="895" type="line"/>
      <point x="1028" y="893" type="line"/>
      <point x="1072" y="1123" type="line"/>
    </contour>
    <contour>
      <point x="388" y="848" type="line"/>
      <point x="828" y="300" type="line"/>
      <point x="1042" y="478" type="line"/>
      <point x="600" y="1026" type="line"/>
    </contour>
    <contour>
      <point x="769" y="954" type="line"/>
      <point x="545" y="872" type="line"/>
      <point x="424" y="664" type="line"/>
      <point x="644" y="751" type="line"/>
    </contour>
  </outline>
</glyph>
<glyph name="northEastArrow" format="2">
  <advance width="1240"/>
  <unicode hex="2197"/>
  <outline>
    <contour>
      <point x="1122" y="1122" type="line"/>
      <point x="395" y="1124" type="line"/>
      <point x="351" y="893" type="line"/>
      <point x="891" y="895" type="line"/>
      <point x="859" y="935" type="line"/>
      <point x="752" y="395" type="line"/>
      <point x="982" y="395" type="line"/>
    </contour>
    <contour>
      <point x="829" y="1026" type="line"/>
      <point x="175" y="479" type="line"/>
      <point x="318" y="300" type="line"/>
      <point x="973" y="848" type="line"/>
    </contour>
    <contour>
      <point x="865" y="665" type="line"/>
      <point x="824" y="873" type="line"/>
      <point x="631" y="954" type="line"/>
      <point x="679" y="751" type="line"/>
    </contour>
  </outline>
</glyph>
<glyph name="anticlockwiseOpenCircleArrow" format="2">
  <advance width="1240"/>
  <unicode hex="21BA"/>
  <outline>
    <contour>
      <point x="671" y="1376" type="line"/>
      <point x="548" y="742" type="line"/>
      <point x="779" y="742" type="line"/>
      <point x="871" y="1219" type="line"/>
      <point x="785" y="1147" type="line"/>
      <point x="1262" y="1146" type="line"/>
      <point x="1307" y="1377" type="line"/>
    </contour>
    <contour>
      <point x="1070" y="1210" type="line"/>
      <point x="778" y="1210" type="line"/>
      <point x="721" y="918" type="line"/>
      <point x="946" y="993" type="line"/>
    </contour>
    <contour>
      <point x="738" y="998" type="line"/>
      <point x="890" y="967"/>
      <point x="973" y="833"/>
      <point x="940" y="662" type="curve" smooth="yes"/>
      <point x="906" y="489"/>
      <point x="767" y="360"/>
      <point x="585" y="360" type="curve" smooth="yes"/>
      <point x="404" y="360"/>
      <point x="314" y="489"/>
      <point x="347" y="660" type="curve" smooth="yes"/>
      <point x="363" y="741"/>
      <point x="401" y="800"/>
      <point x="435" y="845" type="curve"/>
      <point x="245" y="967" type="line"/>
      <point x="173" y="880"/>
      <point x="122" y="781"/>
      <point x="98" y="660" type="curve" smooth="yes"/>
      <point x="35" y="333"/>
      <point x="231" y="127"/>
      <point x="542" y="127" type="curve" smooth="yes"/>
      <point x="854" y="127"/>
      <point x="1126" y="337"/>
      <point x="1188" y="657" type="curve" smooth="yes"/>
      <point x="1244" y="945"/>
      <point x="1094" y="1138"/>
      <point x="843" y="1233" type="curve"/>
    </contour>
  </outline>
</glyph>
<glyph name="partialdiff" format="2">
  <advance width="1240"/>
  <unicode hex="2202"/>
  <outline>
    <contour>
      <point x="806" y="1484" type="curve" smooth="yes"/>
      <point x="677" y="1484"/>
      <point x="560" y="1455"/>
      <point x="436" y="1411" type="curve"/>
      <point x="431" y="1167" type="line"/>
      <point x="510" y="1198"/>
      <point x="597" y="1218"/>
      <point x="673" y="1218" type="curve" smooth="yes"/>
      <point x="854" y="1218"/>
      <point x="937" y="1105"/>
      <point x="865" y="738" type="curve" smooth="yes"/>
      <point x="785" y="326"/>
      <point x="649" y="218"/>
      <point x="514" y="218" type="curve" smooth="yes"/>
      <point x="407" y="218"/>
      <point x="356" y="285"/>
      <point x="390" y="458" type="curve" smooth="yes"/>
      <point x="430" y="662"/>
      <point x="540" y="767"/>
      <point x="685" y="767" type="curve" smooth="yes"/>
      <point x="795" y="767"/>
      <point x="897" y="706"/>
      <point x="928" y="584" type="curve"/>
      <point x="989" y="892" type="line"/>
      <point x="865" y="832" type="line"/>
      <point x="796" y="915"/>
      <point x="708" y="963"/>
      <point x="585" y="963" type="curve" smooth="yes"/>
      <point x="331" y="963"/>
      <point x="131" y="778"/>
      <point x="70" y="465" type="curve" smooth="yes"/>
      <point x="2" y="115"/>
      <point x="193" y="-22"/>
      <point x="441" y="-22" type="curve" smooth="yes"/>
      <point x="793" y="-22"/>
      <point x="1091" y="209"/>
      <point x="1205" y="798" type="curve" smooth="yes"/>
      <point x="1308" y="1329"/>
      <point x="1096" y="1484"/>
    </contour>
  </outline>
</glyph>
<glyph name="existential" format="2">
  <advance width="1240"/>
  <unicode hex="2203"/>
  <outline>
    <contour>
      <point x="23" y="0" type="line"/>
      <point x="993" y="0" type="line"/>
      <point x="1277" y="1460" type="line"/>
      <point x="307" y="1460" type="line"/>
      <point x="254" y="1189" type="line"/>
      <point x="940" y="1189" type="line"/>
      <point x="904" y="1234" type="line"/>
      <point x="822" y="811" type="line"/>
      <point x="875" y="856" type="line"/>
      <point x="314" y="856" type="line"/>
      <point x="264" y="599" type="line"/>
      <point x="825" y="599" type="line"/>
      <point x="789" y="644" type="line"/>
      <point x="708" y="226" type="line"/>
      <point x="762" y="271" type="line"/>
      <point x="76" y="271" type="line"/>
    </contour>
  </outline>
</glyph>
<glyph name="increment" format="2">
  <advance width="1240"/>
  <unicode hex="2206"/>
  <outline>
    <contour>
      <point x="1095" y="271" type="line"/>
      <point x="972" y="1460" type="line"/>
      <point x="620" y="1460" type="line"/>
      <point x="42" y="271" type="line"/>
      <point x="370" y="209" type="line"/>
      <point x="384" y="283" type="line"/>
      <point x="695" y="985" type="line"/>
      <point x="710" y="985" type="line"/>
      <point x="754" y="283" type="line"/>
      <point x="742" y="219" type="line"/>
    </contour>
    <contour>
      <point x="-11" y="0" type="line"/>
      <point x="1040" y="0" type="line"/>
      <point x="1095" y="271" type="line"/>
      <point x="42" y="271" type="line"/>
    </contour>
  </outline>
</glyph>
<glyph name="product" format="2">
  <advance width="1240"/>
  <unicode hex="220F"/>
  <outline>
    <contour>
      <point x="269" y="-400" type="line"/>
      <point x="631" y="1460" type="line"/>
      <point x="356" y="1460" type="line"/>
      <point x="-6" y="-400" type="line"/>
    </contour>
    <contour>
      <point x="173" y="1189" type="line"/>
      <point x="1319" y="1189" type="line"/>
      <point x="1372" y="1460" type="line"/>
      <point x="226" y="1460" type="line"/>
    </contour>
    <contour>
      <point x="880" y="-400" type="line"/>
      <point x="1242" y="1460" type="line"/>
      <point x="967" y="1460" type="line"/>
      <point x="605" y="-400" type="line"/>
    </contour>
  </outline>
</glyph>
<glyph name="logicalor" format="2">
  <advance width="1240"/>
  <unicode hex="2228"/>
  <outline>
    <contour>
      <point x="184" y="1266" type="line"/>
      <point x="494" y="184" type="line"/>
      <point x="633" y="184" type="line"/>
      <point x="1338" y="1266" type="line"/>
      <point x="1005" y="1266" type="line"/>
      <point x="667" y="702" type="line"/>
      <point x="653" y="702" type="line"/>
      <point x="522" y="1266" type="line"/>
    </contour>
  </outline>
</glyph>
<glyph name="greaterequal" format="2">
  <advance width="1240"/>
  <unicode hex="2265"/>
  <outline>
    <contour>
      <point x="57" y="115" type="line"/>
      <point x="1017" y="115" type="line"/>
      <point x="1070" y="386" type="line"/>
      <point x="110" y="386" type="line"/>
    </contour>
    <contour>
      <point x="211" y="561" type="line"/>
      <point x="1167" y="885" type="line"/>
      <point x="1225" y="1190" type="line"/>
      <point x="395" y="1514" type="line"/>
      <point x="254" y="1260" type="line"/>
      <point x="792" y="1050" type="line"/>
      <point x="787" y="1024" type="line"/>
      <point x="168" y="815" type="line"/>
    </contour>
  </outline>
</glyph>
<glyph name="subset" format="2">
  <advance width="1240"/>
  <unicode hex="2282"/>
  <outline>
    <contour>
      <point x="461" y="541" type="curve" smooth="yes"/>
      <point x="500" y="742"/>
      <point x="605" y="829"/>
      <point x="842" y="829" type="curve" smooth="yes"/>
      <point x="1091" y="829" type="line"/>
      <point x="1140" y="1082" type="line"/>
      <point x="810" y="1082" type="line" smooth="yes"/>
      <point x="426" y="1082"/>
      <point x="218" y="911"/>
      <point x="148" y="551" type="curve" smooth="yes"/>
      <point x="78" y="191"/>
      <point x="226" y="0"/>
      <point x="610" y="0" type="curve" smooth="yes"/>
      <point x="930" y="0" type="line"/>
      <point x="979" y="253" type="line"/>
      <point x="730" y="253" type="line" smooth="yes"/>
      <point x="493" y="253"/>
      <point x="422" y="340"/>
    </contour>
  </outline>
</glyph>
<glyph name="upBlackSmallTriangle" format="2">
  <advance width="1240"/>
  <unicode hex="25B4"/>
  <outline>
    <contour>
      <point x="194" y="392" type="line"/>
      <point x="987" y="392" type="line"/>
      <point x="725" y="1086" type="line"/>
    </contour>
  </outline>
</glyph>
<glyph name="downBlackTriangle" format="2">
  <advance width="1240"/>
  <unicode hex="25BC"/>
  <outline>
    <contour>
      <point x="1290" y="1192" type="line"/>
      <point x="204" y="1192" type="line"/>
      <point x="563" y="240" type="line"/>
    </contour>
  </outline>
</glyph>
<glyph name="leftBlackSmallTriangle" format="2">
  <advance width="1240"/>
  <unicode hex="25C2"/>
  <outline>
    <contour>
      <point x="893" y="333" type="line"/>
      <point x="1047" y="1126" type="line"/>
      <point x="276" y="729" type="line"/>
    </contour>
  </outline>
</glyph>
<glyph name="rightTipDownArrow" format="2">
  <advance width="1240"/>
  <unicode hex="2B0E"/>
  <outline>
    <contour>
      <point x="590" y="156" type="line"/>
      <point x="1181" y="650" type="line"/>
      <point x="1053" y="809" type="line"/>
      <point x="609" y="436" type="line"/>
      <point x="682" y="436" type="line"/>
      <point x="382" y="809" type="line"/>
      <point x="192" y="650" type="line"/>
    </contour>
    <contour>
      <point x="514" y="404" type="line"/>
      <point x="766" y="404" type="line"/>
      <point x="936" y="1283" type="line"/>
      <point x="684" y="1283" type="line"/>
    </contour>
    <contour>
      <point x="860" y="599" type="line"/>
      <point x="692" y="679" type="line"/>
      <point x="494" y="600" type="line"/>
      <point x="660" y="512" type="line"/>
    </contour>
    <contour>
      <point x="886" y="1025" type="line"/>
      <point x="936" y="1283" type="line"/>
      <point x="274" y="1283" type="line"/>
      <point x="224" y="1025" type="line"/>
    </contour>
  </outline>
</glyph>
<glyph name="AEacute.alt1" format="2">
  <advance width="1240"/>
  <outline>
    <contour>
      <point x="507" y="0" type="line"/>
      <point x="806" y="0" type="line"/>
      <point x="1090" y="1460" type="line"/>
      <point x="791" y="1460" type="line"/>
    </contour>
    <contour>
      <point x="-33" y="0" type="line"/>
      <point x="266" y="0" type="line"/>
      <point x="425" y="819" type="line"/>
      <point x="688" y="1189" type="line"/>
      <point x="868" y="1189" type="line"/>
      <point x="921" y="1460" type="line"/>
      <point x="555" y="1460" type="line"/>
      <point x="148" y="933" type="line"/>
    </contour>
    <contour>
      <point x="214" y="303" type="line"/>
      <point x="688" y="303" type="line"/>
      <point x="733" y="537" type="line"/>
      <point x="259" y="537" type="line"/>
    </contour>
    <contour>
      <point x="667" y="0" type="line"/>
      <point x="1061" y="0" type="line"/>
      <point x="1144" y="271" type="line"/>
      <point x="720" y="271" type="line"/>
    </contour>
    <contour>
      <point x="785" y="609" type="line"/>
      <point x="1114" y="609" type="line"/>
      <point x="1164" y="866" type="line"/>
      <point x="835" y="866" type="line"/>
    </contour>
    <contour>
      <point x="898" y="1189" type="line"/>
      <point x="1302" y="1189" type="line"/>
      <point x="1325" y="1460" type="line"/>
      <point x="951" y="1460" type="line"/>
    </contour>
    <contour>
      <point x="1080" y="1619" type="line"/>
      <point x="821" y="1619" type="line"/>
      <point x="1054" y="1877" type="line"/>
      <point x="1379" y="1877" type="line"/>
    </contour>
  </outline>
</glyph>
<glyph name="Abreve.alt1" format="2">
  <advance width="1240"/>
  <outline>
    <contour>
      <point x="27" y="0" type="line"/>
      <point x="354" y="0" type="line"/>
      <point x="513" y="819" type="line"/>
      <point x="801" y="1261" type="line"/>
      <point x="739" y="1261" type="line"/>
      <point x="841" y="849" type="line"/>
      <point x="676" y="0" type="line"/>
      <point x="1003" y="0" type="line"/>
      <point x="1184" y="933" type="line"/>
      <point x="1002" y="1460" type="line"/>
      <point x="596" y="1460" type="line"/>
      <point x="208" y="933" type="line"/>
    </contour>
    <contour>
      <point x="293" y="303" type="line"/>
      <point x="884" y="303" type="line"/>
      <point x="929" y="537" type="line"/>
      <point x="338" y="537" type="line"/>
    </contour>
    <contour>
      <point x="659" y="1600" type="line"/>
      <point x="993" y="1600" type="line"/>
      <point x="1216" y="1753" type="line"/>
      <point x="1240" y="1878" type="line"/>
      <point x="1042" y="1878" type="line"/>
      <point x="1031" y="1820" type="line"/>
      <point x="945" y="1763" type="line"/>
      <point x="771" y="1763" type="line"/>
      <point x="707" y="1820" type="line"/>
      <point x="718" y="1878" type="line"/>
      <point x="520" y="1878" type="line"/>
      <point x="496" y="1752" type="line"/>
    </contour>
  </outline>
</glyph>
<glyph name="C.alt4" format="2">
  <advance width="1240"/>
  <outline>
    <contour>
      <point x="312" y="0" type="line"/>
      <point x="977" y="0" type="line"/>
      <point x="1076" y="301" type="line"/>
      <point x="541" y="301" type="line"/>
      <point x="415" y="632" type="line"/>
      <point x="453" y="828" type="line"/>
      <point x="717" y="1159" type="line"/>
      <point x="1242" y="1159" type="line"/>
      <point x="1261" y="1460" type="line"/>
      <point x="596" y="1460" type="line"/>
      <point x="148" y="932" type="line"/>
      <point x="70" y="528" type="line"/>
    </contour>
  </outline>
</glyph>
<glyph name="Ccaron.alt5" format="2">
  <advance width="1240"/>
  <outline>
    <contour>
      <point x="312" y="0" type="line"/>
      <point x="977" y="0" type="line"/>
      <point x="1076" y="301" type="line"/>
      <point x="541" y="301" type="line"/>
      <point x="415" y="632" type="line"/>
      <point x="453" y="828" type="line"/>
      <point x="717" y="1159" type="line"/>
      <point x="1242" y="1159" type="line"/>
      <point x="1261" y="1460" type="line"/>
      <point x="596" y="1460" type="line"/>
      <point x="148" y="932" type="line"/>
      <point x="70" y="528" type="line"/>
    </contour>
    <contour>
      <point x="539" y="1878" type="line"/>
      <point x="823" y="1878" type="line"/>
      <point x="944" y="1674" type="line"/>
      <point x="896" y="1674" type="line"/>
      <point x="1097" y="1878" type="line"/>
      <point x="1381" y="1878" type="line"/>
      <point x="1103" y="1620" type="line"/>
      <point x="717" y="1620" type="line"/>
    </contour>
  </outline>
</glyph>
<glyph name="D.alt3" format="2">
  <advance width="1240"/>
  <outline>
    <contour>
      <point x="163" y="0" type="line"/>
      <point x="718" y="0" type="line"/>
      <point x="1168" y="539" type="line"/>
      <point x="1246" y="943" type="line"/>
      <point x="1002" y="1460" type="line"/>
      <point x="447" y="1460" type="line"/>
      <point x="358" y="1159" type="line"/>
      <point x="763" y="1159" type="line"/>
      <point x="899" y="829" type="line"/>
      <point x="863" y="643" type="line"/>
      <point x="597" y="301" type="line"/>
      <point x="192" y="301" type="line"/>
    </contour>
    <contour>
      <point x="27" y="0" type="line"/>
      <point x="356" y="0" type="line"/>
      <point x="640" y="1460" type="line"/>
      <point x="311" y="1460" type="line"/>
    </contour>
  </outline>
</glyph>
<glyph name="Ebreve.alt1" format="2">
  <advance width="1240"/>
  <outline>
    <contour>
      <point x="366" y="0" type="line"/>
      <point x="650" y="1460" type="line"/>
      <point x="321" y="1460" type="line"/>
      <point x="37" y="0" type="line"/>
    </contour>
    <contour>
      <point x="1040" y="271" type="line"/>
      <point x="251" y="271" type="line"/>
      <point x="198" y="0" type="line"/>
      <point x="957" y="0" type="line"/>
    </contour>
    <contour>
      <point x="1000" y="866" type="line"/>
      <point x="396" y="866" type="line"/>
      <point x="346" y="609" type="line"/>
      <point x="950" y="609" type="line"/>
    </contour>
    <contour>
      <point x="1188" y="1189" type="line"/>
      <point x="1211" y="1460" type="line"/>
      <point x="482" y="1460" type="line"/>
      <point x="429" y="1189" type="line"/>
    </contour>
    <contour>
      <point x="659" y="1600" type="line"/>
      <point x="993" y="1600" type="line"/>
      <point x="1216" y="1753" type="line"/>
      <point x="1240" y="1878" type="line"/>
      <point x="1042" y="1878" type="line"/>
      <point x="1031" y="1820" type="line"/>
      <point x="945" y="1763" type="line"/>
      <point x="771" y="1763" type="line"/>
      <point x="707" y="1820" type="line"/>
      <point x="718" y="1878" type="line"/>
      <point x="520" y="1878" type="line"/>
      <point x="496" y="1752" type="line"/>
    </contour>
  </outline>
</glyph>
<glyph name="Ecircumflex.alt1" format="2">
  <advance width="1240"/>
  <outline>
    <contour>
      <point x="366" y="0" type="line"/>
      <point x="650" y="1460" type="line"/>
      <point x="321" y="1460" type="line"/>
      <point x="37" y="0" type="line"/>
    </contour>
    <contour>
      <point x="1040" y="271" type="line"/>
      <point x="251" y="271" type="line"/>
      <point x="198" y="0" type="line"/>
      <point x="957" y="0" type="line"/>
    </contour>
    <contour>
      <point x="1000" y="866" type="line"/>
      <point x="396" y="866" type="line"/>
      <point x="346" y="609" type="line"/>
      <point x="950" y="609" type="line"/>
    </contour>
    <contour>
      <point x="1188" y="1189" type="line"/>
      <point x="1211" y="1460" type="line"/>
      <point x="482" y="1460" type="line"/>
      <point x="429" y="1189" type="line"/>
    </contour>
    <contour>
      <point x="409" y="1620" type="line"/>
      <point x="693" y="1620" type="line"/>
      <point x="894" y="1824" type="line"/>
      <point x="846" y="1824" type="line"/>
      <point x="967" y="1620" type="line"/>
      <point x="1251" y="1620" type="line"/>
      <point x="1073" y="1878" type="line"/>
      <point x="687" y="1878" type="line"/>
    </contour>
  </outline>
</glyph>
<glyph name="Gcommaaccent.alt1" format="2">
  <advance width="1240"/>
  <outline>
    <contour>
      <point x="332" y="0" type="line"/>
      <point x="813" y="0" type="line"/>
      <point x="1095" y="247" type="line"/>
      <point x="1208" y="829" type="line"/>
      <point x="742" y="829" type="line"/>
      <point x="694" y="582" type="line"/>
      <point x="962" y="582" type="line"/>
      <point x="907" y="669" type="line"/>
      <point x="852" y="384" type="line"/>
      <point x="744" y="301" type="line"/>
      <point x="541" y="301" type="line"/>
      <point x="413" y="622" type="line"/>
      <point x="453" y="828" type="line"/>
      <point x="727" y="1159" type="line"/>
      <point x="1202" y="1159" type="line"/>
      <point x="1231" y="1460" type="line"/>
      <point x="596" y="1460" type="line"/>
      <point x="148" y="932" type="line"/>
      <point x="70" y="528" type="line"/>
    </contour>
    <contour>
      <point x="327" y="-494" type="line"/>
      <point x="568" y="-494" type="line"/>
      <point x="583" y="-418" type="line"/>
      <point x="283" y="-721" type="line"/>
      <point x="395" y="-786" type="line"/>
      <point x="668" y="-504" type="line"/>
      <point x="737" y="-151" type="line"/>
      <point x="394" y="-151" type="line"/>
    </contour>
  </outline>
</glyph>
<glyph name="Germandbls.alt5" format="2">
  <advance width="1240"/>
  <outline>
    <contour>
      <point x="1245" y="1460" type="line"/>
      <point x="306" y="1460" type="line"/>
      <point x="22" y="0" type="line"/>
      <point x="359" y="0" type="line"/>
      <point x="599" y="1234" type="line"/>
      <point x="543" y="1189" type="line"/>
      <point x="922" y="1189" type="line"/>
      <point x="895" y="1265" type="line"/>
      <point x="680" y="891" type="line"/>
      <point x="646" y="713" type="line"/>
      <point x="857" y="510" type="line"/>
      <point x="833" y="384" type="line"/>
      <point x="709" y="241" type="line"/>
      <point x="554" y="241" type="line"/>
      <point x="507" y="0" type="line"/>
      <point x="808" y="0" type="line"/>
      <point x="1114" y="260" type="line"/>
      <point x="1186" y="634" type="line"/>
      <point x="951" y="891" type="line"/>
      <point x="930" y="784" type="line"/>
      <point x="1197" y="1215" type="line"/>
    </contour>
  </outline>
</glyph>
<glyph name="H.alt4" format="2">
  <advance width="1240"/>
  <outline>
    <contour>
      <point x="666" y="0" type="line"/>
      <point x="1003" y="0" type="line"/>
      <point x="1287" y="1460" type="line"/>
      <point x="950" y="1460" type="line"/>
    </contour>
    <contour>
      <point x="27" y="0" type="line"/>
      <point x="364" y="0" type="line"/>
      <point x="648" y="1460" type="line"/>
      <point x="311" y="1460" type="line"/>
    </contour>
    <contour>
      <point x="281" y="602" type="line"/>
      <point x="979" y="602" type="line"/>
      <point x="1032" y="873" type="line"/>
      <point x="334" y="873" type="line"/>
    </contour>
  </outline>
</glyph>
<glyph name="I.alt4" format="2">
  <advance width="1240"/>
  <outline>
    <contour>
      <point x="350" y="0" type="line"/>
      <point x="680" y="0" type="line"/>
      <point x="964" y="1460" type="line"/>
      <point x="634" y="1460" type="line"/>
    </contour>
    <contour>
      <point x="60" y="0" type="line"/>
      <point x="970" y="0" type="line"/>
      <point x="1043" y="271" type="line"/>
      <point x="93" y="271" type="line"/>
    </contour>
    <contour>
      <point x="271" y="1189" type="line"/>
      <point x="1221" y="1189" type="line"/>
      <point x="1254" y="1460" type="line"/>
      <point x="344" y="1460" type="line"/>
    </contour>
  </outline>
</glyph>
<glyph name="IJ.alt5" format="2">
  <advance width="1240"/>
  <outline>
    <contour>
      <point x="159" y="678" type="line"/>
      <point x="494" y="678" type="line"/>
      <point x="646" y="1460" type="line"/>
      <point x="311" y="1460" type="line"/>
    </contour>
    <contour>
      <point x="342" y="0" type="line"/>
      <point x="688" y="0" type="line"/>
      <point x="1048" y="229" type="line"/>
      <point x="1287" y="1460" type="line"/>
      <point x="952" y="1460" type="line"/>
      <point x="737" y="353" type="line"/>
      <point x="603" y="271" type="line"/>
      <point x="533" y="271" type="line"/>
      <point x="431" y="353" type="line"/>
      <point x="453" y="467" type="line"/>
      <point x="118" y="467" type="line"/>
      <point x="72" y="229" type="line"/>
    </contour>
    <contour>
      <point x="715" y="1184" type="line"/>
      <point x="1086" y="1184" type="line"/>
      <point x="1140" y="1460" type="line"/>
      <point x="799" y="1460" type="line"/>
    </contour>
  </outline>
</glyph>
<glyph name="Iacute.alt1" format="2">
  <advance width="1240"/>
  <outline>
    <contour>
      <point x="350" y="0" type="line"/>
      <point x="680" y="0" type="line"/>
      <point x="964" y="1460" type="line"/>
      <point x="634" y="1460" type="line"/>
    </contour>
    <contour>
      <point x="60" y="0" type="line"/>
      <point x="970" y="0" type="line"/>
      <point x="1043" y="271" type="line"/>
      <point x="93" y="271" type="line"/>
    </contour>
    <contour>
      <point x="271" y="1189" type="line"/>
      <point x="1221" y="1189" type="line"/>
      <point x="1254" y="1460" type="line"/>
      <point x="344" y="1460" type="line"/>
    </contour>
    <contour>
      <point x="964" y="1619" type="line"/>
      <point x="705" y="1619" type="line"/>
      <point x="938" y="1877" type="line"/>
      <point x="1263" y="1877" type="line"/>
    </contour>
  </outline>
</glyph>
<glyph name="Ibreve.alt1" format="2">
  <advance width="1240"/>
  <outline>
    <contour>
      <point x="350" y="0" type="line"/>
      <point x="680" y="0" type="line"/>
      <point x="964" y="1460" type="line"/>
      <point x="634" y="1460" type="line"/>
    </contour>
    <contour>
      <point x="60" y="0" type="line"/>
      <point x="970" y="0" type="line"/>
      <point x="1043" y="271" type="line"/>
      <point x="93" y="271" type="line"/>
    </contour>
    <contour>
      <point x="271" y="1189" type="line"/>
      <point x="1221" y="1189" type="line"/>
      <point x="1254" y="1460" type="line"/>
      <point x="344" y="1460" type="line"/>
    </contour>
    <contour>
      <point x="659" y="1600" type="line"/>
      <point x="993" y="1600" type="line"/>
      <point x="1216" y="1753" type="line"/>
      <point x="1240" y="1878" type="line"/>
      <point x="1042" y="1878" type="line"/>
      <point x="1031" y="1820" type="line"/>
      <point x="945" y="1763" type="line"/>
      <point x="771" y="1763" type="line"/>
      <point x="707" y="1820" type="line"/>
      <point x="718" y="1878" type="line"/>
      <point x="520" y="1878" type="line"/>
      <point x="496" y="1752" type="line"/>
    </contour>
  </outline>
</glyph>
<glyph name="Imacron.alt5" format="2">
  <advance width="1240"/>
  <outline>
    <contour>
      <point x="350" y="0" type="line"/>
      <point x="680" y="0" type="line"/>
      <point x="964" y="1460" type="line"/>
      <point x="634" y="1460" type="line"/>
    </contour>
    <contour>
      <point x="60" y="0" type="line"/>
      <point x="970" y="0" type="line"/>
      <point x="1043" y="271" type="line"/>
      <point x="93" y="271" type="line"/>
    </contour>
    <contour>
      <point x="271" y="1189" type="line"/>
      <point x="1221" y="1189" type="line"/>
      <point x="1254" y="1460" type="line"/>
      <point x="344" y="1460" type="line"/>
    </contour>
    <contour>
      <point x="495" y="1691" type="line"/>
      <point x="1193" y="1691" type="line"/>
      <point x="1230" y="1884" type="line"/>
      <point x="532" y="1884" type="line"/>
    </contour>
  </outline>
</glyph>
<glyph name="Itilde.alt5" format="2">
  <advance width="1240"/>
  <outline>
    <contour>
      <point x="350" y="0" type="line"/>
      <point x="680" y="0" type="line"/>
      <point x="964" y="1460" type="line"/>
      <point x="634" y="1460" type="line"/>
    </contour>
    <contour>
      <point x="60" y="0" type="line"/>
      <point x="970" y="0" type="line"/>
      <point x="1043" y="271" type="line"/>
      <point x="93" y="271" type="line"/>
    </contour>
    <contour>
      <point x="271" y="1189" type="line"/>
      <point x="1221" y="1189" type="line"/>
      <point x="1254" y="1460" type="line"/>
      <point x="344" y="1460" type="line"/>
    </contour>
    <contour>
      <point x="867" y="1887" type="line"/>
      <point x="579" y="1887" type="line"/>
      <point x="398" y="1744" type="line"/>
      <point x="372" y="1611" type="line"/>
      <point x="575" y="1611" type="line"/>
      <point x="587" y="1672" type="line"/>
      <point x="659" y="1734" type="line"/>
      <point x="727" y="1734" type="line"/>
      <point x="843" y="1611" type="line"/>
      <point x="1131" y="1611" type="line"/>
      <point x="1312" y="1754" type="line"/>
      <point x="1338" y="1887" type="line"/>
      <point x="1135" y="1887" type="line"/>
      <point x="1121" y="1816" type="line"/>
      <point x="1051" y="1764" type="line"/>
      <point x="983" y="1764" type="line"/>
    </contour>
  </outline>
</glyph>
<glyph name="J.alt2" format="2">
  <advance width="1240"/>
  <outline>
    <contour>
      <point x="361" y="0" type="line"/>
      <point x="646" y="0" type="line"/>
      <point x="1088" y="448" type="line"/>
      <point x="1285" y="1460" type="line"/>
      <point x="960" y="1460" type="line"/>
      <point x="785" y="562" type="line"/>
      <point x="510" y="242" type="line"/>
      <point x="581" y="242" type="line"/>
      <point x="404" y="532" type="line"/>
      <point x="444" y="738" type="line"/>
      <point x="129" y="738" type="line"/>
      <point x="73" y="448" type="line"/>
    </contour>
    <contour>
      <point x="382" y="1184" type="line"/>
      <point x="1086" y="1184" type="line"/>
      <point x="1140" y="1460" type="line"/>
      <point x="466" y="1460" type="line"/>
    </contour>
  </outline>
</glyph>
<glyph name="K.alt1" format="2">
  <advance width="1240"/>
  <outline>
    <contour>
      <point x="678" y="0" type="line"/>
      <point x="1023" y="0" type="line"/>
      <point x="1093" y="361" type="line"/>
      <point x="876" y="851" type="line"/>
      <point x="839" y="659" type="line"/>
      <point x="1237" y="1099" type="line"/>
      <point x="1307" y="1460" type="line"/>
      <point x="962" y="1460" type="line"/>
      <point x="902" y="1153" type="line"/>
      <point x="643" y="838" type="line"/>
      <point x="688" y="860" type="line"/>
      <point x="464" y="860" type="line"/>
      <point x="411" y="588" type="line"/>
      <point x="643" y="588" type="line"/>
      <point x="610" y="615" type="line"/>
      <point x="730" y="267" type="line"/>
    </contour>
    <contour>
      <point x="13" y="0" type="line"/>
      <point x="350" y="0" type="line"/>
      <point x="634" y="1460" type="line"/>
      <point x="297" y="1460" type="line"/>
    </contour>
  </outline>
</glyph>
<glyph name="Kcommaaccent.alt5" format="2">
  <advance width="1240"/>
  <outline>
    <contour>
      <point x="678" y="0" type="line"/>
      <point x="1023" y="0" type="line"/>
      <point x="1093" y="361" type="line"/>
      <point x="876" y="851" type="line"/>
      <point x="839" y="659" type="line"/>
      <point x="1237" y="1099" type="line"/>
      <point x="1307" y="1460" type="line"/>
      <point x="962" y="1460" type="line"/>
      <point x="902" y="1153" type="line"/>
      <point x="643" y="838" type="line"/>
      <point x="688" y="860" type="line"/>
      <point x="464" y="860" type="line"/>
      <point x="411" y="588" type="line"/>
      <point x="643" y="588" type="line"/>
      <point x="610" y="615" type="line"/>
      <point x="730" y="267" type="line"/>
    </contour>
    <contour>
      <point x="13" y="0" type="line"/>
      <point x="350" y="0" type="line"/>
      <point x="634" y="1460" type="line"/>
      <point x="297" y="1460" type="line"/>
    </contour>
    <contour>
      <point x="247" y="-494" type="line"/>
      <point x="488" y="-494" type="line"/>
      <point x="503" y="-418" type="line"/>
      <point x="203" y="-721" type="line"/>
      <point x="315" y="-786" type="line"/>
      <point x="588" y="-504" type="line"/>
      <point x="657" y="-151" type="line"/>
      <point x="314" y="-151" type="line"/>
    </contour>
  </outline>
</glyph>
<glyph name="Lacute.alt5" format="2">
  <advance width="1240"/>
  <outline>
    <contour>
      <point x="68" y="0" type="line"/>
      <point x="397" y="0" type="line"/>
      <point x="681" y="1460" type="line"/>
      <point x="352" y="1460" type="line"/>
    </contour>
    <contour>
      <point x="228" y="0" type="line"/>
      <point x="977" y="0" type="line"/>
      <point x="1060" y="271" type="line"/>
      <point x="281" y="271" type="line"/>
    </contour>
    <contour>
      <point x="670" y="1619" type="line"/>
      <point x="411" y="1619" type="line"/>
      <point x="644" y="1877" type="line"/>
      <point x="969" y="1877" type="line"/>
    </contour>
  </outline>
</glyph>
<glyph name="Ldot.alt5" format="2">
  <advance width="1240"/>
  <outline>
    <contour>
      <point x="68" y="0" type="line"/>
      <point x="397" y="0" type="line"/>
      <point x="681" y="1460" type="line"/>
      <point x="352" y="1460" type="line"/>
    </contour>
    <contour>
      <point x="228" y="0" type="line"/>
      <point x="977" y="0" type="line"/>
      <point x="1060" y="271" type="line"/>
      <point x="281" y="271" type="line"/>
    </contour>
    <contour>
      <point x="972" y="638" type="line"/>
      <point x="1231" y="848" type="line"/>
      <point x="1053" y="1057" type="line"/>
      <point x="794" y="848" type="line"/>
    </contour>
  </outline>
</glyph>
<glyph name="M.alt5" format="2">
  <advance width="1240"/>
  <outline>
    <contour>
      <point x="-4" y="0" type="line"/>
      <point x="249" y="0" type="line"/>
      <point x="427" y="918" type="line"/>
      <point x="441" y="918" type="line"/>
      <point x="546" y="389" type="line"/>
      <point x="616" y="389" type="line"/>
      <point x="937" y="918" type="line"/>
      <point x="955" y="918" type="line"/>
      <point x="777" y="0" type="line"/>
      <point x="1034" y="0" type="line"/>
      <point x="1318" y="1460" type="line"/>
      <point x="1018" y="1460" type="line"/>
      <point x="696" y="950" type="line"/>
      <point x="684" y="950" type="line"/>
      <point x="585" y="1460" type="line"/>
      <point x="280" y="1460" type="line"/>
    </contour>
  </outline>
</glyph>
<glyph name="N.alt2" format="2">
  <advance width="1240"/>
  <outline>
    <contour>
      <point x="27" y="0" type="line"/>
      <point x="334" y="0" type="line"/>
      <point x="484" y="774" type="line"/>
      <point x="496" y="774" type="line"/>
      <point x="802" y="0" type="line"/>
      <point x="1003" y="0" type="line"/>
      <point x="1287" y="1460" type="line"/>
      <point x="980" y="1460" type="line"/>
      <point x="826" y="671" type="line"/>
      <point x="814" y="671" type="line"/>
      <point x="514" y="1460" type="line"/>
      <point x="311" y="1460" type="line"/>
    </contour>
  </outline>
</glyph>
<glyph name="Nacute.alt1" format="2">
  <advance width="1240"/>
  <outline>
    <contour>
      <point x="27" y="0" type="line"/>
      <point x="334" y="0" type="line"/>
      <point x="484" y="774" type="line"/>
      <point x="496" y="774" type="line"/>
      <point x="802" y="0" type="line"/>
      <point x="1003" y="0" type="line"/>
      <point x="1287" y="1460" type="line"/>
      <point x="980" y="1460" type="line"/>
      <point x="826" y="671" type="line"/>
      <point x="814" y="671" type="line"/>
      <point x="514" y="1460" type="line"/>
      <point x="311" y="1460" type="line"/>
    </contour>
    <contour>
      <point x="964" y="1619" type="line"/>
      <point x="705" y="1619" type="line"/>
      <point x="938" y="1877" type="line"/>
      <point x="1263" y="1877" type="line"/>
    </contour>
  </outline>
</glyph>
<glyph name="OE.alt1" format="2">
  <advance width="1240"/>
  <outline>
    <contour>
      <point x="507" y="0" type="line"/>
      <point x="806" y="0" type="line"/>
      <point x="1090" y="1460" type="line"/>
      <point x="791" y="1460" type="line"/>
    </contour>
    <contour>
      <point x="667" y="0" type="line"/>
      <point x="1061" y="0" type="line"/>
      <point x="1144" y="271" type="line"/>
      <point x="720" y="271" type="line"/>
    </contour>
    <contour>
      <point x="785" y="609" type="line"/>
      <point x="1114" y="609" type="line"/>
      <point x="1164" y="866" type="line"/>
      <point x="835" y="866" type="line"/>
    </contour>
    <contour>
      <point x="898" y="1189" type="line"/>
      <point x="1302" y="1189" type="line"/>
      <point x="1325" y="1460" type="line"/>
      <point x="951" y="1460" type="line"/>
    </contour>
    <contour>
      <point x="597" y="0" type="line"/>
      <point x="650" y="271" type="line"/>
      <point x="525" y="271" type="line"/>
      <point x="387" y="643" type="line"/>
      <point x="425" y="839" type="line"/>
      <point x="703" y="1189" type="line"/>
      <point x="828" y="1189" type="line"/>
      <point x="881" y="1460" type="line"/>
      <point x="586" y="1460" type="line"/>
      <point x="150" y="943" type="line"/>
      <point x="72" y="539" type="line"/>
      <point x="302" y="0" type="line"/>
    </contour>
  </outline>
</glyph>
<glyph name="Ograve.alt1" format="2">
  <advance width="1240"/>
  <outline>
    <contour>
      <point x="332" y="0" type="line"/>
      <point x="698" y="0" type="line"/>
      <point x="1166" y="528" type="line"/>
      <point x="1244" y="932" type="line"/>
      <point x="982" y="1460" type="line"/>
      <point x="616" y="1460" type="line"/>
      <point x="148" y="932" type="line"/>
      <point x="70" y="528" type="line"/>
    </contour>
    <contour>
      <point x="537" y="311" type="line"/>
      <point x="413" y="622" type="line"/>
      <point x="447" y="798" type="line"/>
      <point x="710" y="1149" type="line"/>
      <point x="776" y="1149" type="line"/>
      <point x="901" y="838" type="line"/>
      <point x="867" y="662" type="line"/>
      <point x="603" y="311" type="line"/>
    </contour>
    <contour>
      <point x="696" y="1619" type="line"/>
      <point x="955" y="1619" type="line"/>
      <point x="822" y="1877" type="line"/>
      <point x="497" y="1877" type="line"/>
    </contour>
  </outline>
</glyph>
<glyph name="Ohungarumlaut.alt5" format="2">
  <advance width="1240"/>
  <outline>
    <contour>
      <point x="332" y="0" type="line"/>
      <point x="698" y="0" type="line"/>
      <point x="1166" y="528" type="line"/>
      <point x="1244" y="932" type="line"/>
      <point x="982" y="1460" type="line"/>
      <point x="616" y="1460" type="line"/>
      <point x="148" y="932" type="line"/>
      <point x="70" y="528" type="line"/>
    </contour>
    <contour>
      <point x="537" y="311" type="line"/>
      <point x="413" y="622" type="line"/>
      <point x="447" y="798" type="line"/>
      <point x="710" y="1149" type="line"/>
      <point x="776" y="1149" type="line"/>
      <point x="901" y="838" type="line"/>
      <point x="867" y="662" type="line"/>
      <point x="603" y="311" type="line"/>
    </contour>
    <contour>
      <point x="937" y="1619" type="line"/>
      <point x="1142" y="1619" type="line"/>
      <point x="1358" y="1877" type="line"/>
      <point x="1113" y="1877" type="line"/>
    </contour>
    <contour>
      <point x="515" y="1619" type="line"/>
      <point x="721" y="1619" type="line"/>
      <point x="936" y="1877" type="line"/>
      <point x="692" y="1877" type="line"/>
    </contour>
  </outline>
</glyph>
<glyph name="Omega.alt1" format="2">
  <advance width="1240"/>
  <outline>
    <contour>
      <point x="750" y="1203" type="curve" smooth="yes"/>
      <point x="909" y="1203"/>
      <point x="982" y="1102"/>
      <point x="940" y="883" type="curve" smooth="yes"/>
      <point x="905" y="707"/>
      <point x="822" y="584"/>
      <point x="711" y="471" type="curve"/>
      <point x="619" y="0" type="line"/>
      <point x="1043" y="0" type="line"/>
      <point x="1092" y="251" type="line"/>
      <point x="818" y="251" type="line"/>
      <point x="836" y="347" type="line"/>
      <point x="1089" y="491"/>
      <point x="1206" y="673"/>
      <point x="1251" y="906" type="curve" smooth="yes"/>
      <point x="1324" y="1280"/>
      <point x="1144" y="1484"/>
      <point x="794" y="1484" type="curve" smooth="yes"/>
      <point x="444" y="1484"/>
      <point x="210" y="1300"/>
      <point x="137" y="926" type="curve" smooth="yes"/>
      <point x="92" y="693"/>
      <point x="133" y="491"/>
      <point x="329" y="346" type="curve"/>
      <point x="311" y="251" type="line"/>
      <point x="38" y="251" type="line"/>
      <point x="-11" y="0" type="line"/>
      <point x="413" y="0" type="line"/>
      <point x="505" y="471" type="line"/>
      <point x="438" y="584"/>
      <point x="401" y="707"/>
      <point x="436" y="883" type="curve" smooth="yes"/>
      <point x="478" y="1102"/>
      <point x="591" y="1203"/>
    </contour>
  </outline>
</glyph>
<glyph name="Otilde.alt5" format="2">
  <advance width="1240"/>
  <outline>
    <contour>
      <point x="332" y="0" type="line"/>
      <point x="698" y="0" type="line"/>
      <point x="1166" y="528" type="line"/>
      <point x="1244" y="932" type="line"/>
      <point x="982" y="1460" type="line"/>
      <point x="616" y="1460" type="line"/>
      <point x="148" y="932" type="line"/>
      <point x="70" y="528" type="line"/>
    </contour>
    <contour>
      <point x="537" y="311" type="line"/>
      <point x="413" y="622" type="line"/>
      <point x="447" y="798" type="line"/>
      <point x="710" y="1149" type="line"/>
      <point x="776" y="1149" type="line"/>
      <point x="901" y="838" type="line"/>
      <point x="867" y="662" type="line"/>
      <point x="603" y="311" type="line"/>
    </contour>
    <contour>
      <point x="867" y="1887" type="line"/>
      <point x="579" y="1887" type="line"/>
      <point x="398" y="1744" type="line"/>
      <point x="372" y="1611" type="line"/>
      <point x="575" y="1611" type="line"/>
      <point x="587" y="1672" type="line"/>
      <point x="659" y="1734" type="line"/>
      <point x="727" y="1734" type="line"/>
      <point x="843" y="1611" type="line"/>
      <point x="1131" y="1611" type="line"/>
      <point x="1312" y="1754" type="line"/>
      <point x="1338" y="1887" type="line"/>
      <point x="1135" y="1887" type="line"/>
      <point x="1121" y="1816" type="line"/>
      <point x="1051" y="1764" type="line"/>
      <point x="983" y="1764" type="line"/>
    </contour>
  </outline>
</glyph>
<glyph name="P.alt2" format="2">
  <advance width="1240"/>
  <outline>
    <contour>
      <point x="247" y="482" type="line"/>
      <point x="822" y="482" type="line"/>
      <point x="1218" y="799" type="line"/>
      <point x="1285" y="1143" type="line"/>
      <point x="1002" y="1460" type="line"/>
      <point x="437" y="1460" type="line"/>
      <point x="378" y="1159" type="line"/>
      <point x="823" y="1159" type="line"/>
      <point x="938" y="1029" type="line"/>
      <point x="915" y="913" type="line"/>
      <point x="719" y="723" type="line"/>
      <point x="294" y="723" type="line"/>
    </contour>
    <contour>
      <point x="22" y="0" type="line"/>
      <point x="359" y="0" type="line"/>
      <point x="643" y="1460" type="line"/>
      <point x="306" y="1460" type="line"/>
    </contour>
  </outline>
</glyph>
<glyph name="Rcaron.alt1" format="2">
  <advance width="1240"/>
  <outline>
    <contour>
      <point x="260" y="552" type="line"/>
      <point x="825" y="552" type="line"/>
      <point x="1228" y="849" type="line"/>
      <point x="1289" y="1163" type="line"/>
      <point x="992" y="1460" type="line"/>
      <point x="437" y="1460" type="line"/>
      <point x="378" y="1159" type="line"/>
      <point x="823" y="1159" type="line"/>
      <point x="940" y="1039" type="line"/>
      <point x="919" y="933" type="line"/>
      <point x="726" y="763" type="line"/>
      <point x="301" y="763" type="line"/>
    </contour>
    <contour>
      <point x="22" y="0" type="line"/>
      <point x="359" y="0" type="line"/>
      <point x="643" y="1460" type="line"/>
      <point x="306" y="1460" type="line"/>
    </contour>
    <contour>
      <point x="728" y="0" type="line"/>
      <point x="1063" y="0" type="line"/>
      <point x="1112" y="253" type="line"/>
      <point x="915" y="661" type="line"/>
      <point x="594" y="661" type="line"/>
      <point x="774" y="237" type="line"/>
    </contour>
    <contour>
      <point x="459" y="1878" type="line"/>
      <point x="743" y="1878" type="line"/>
      <point x="864" y="1674" type="line"/>
      <point x="816" y="1674" type="line"/>
      <point x="1017" y="1878" type="line"/>
      <point x="1301" y="1878" type="line"/>
      <point x="1023" y="1620" type="line"/>
      <point x="637" y="1620" type="line"/>
    </contour>
  </outline>
</glyph>
<glyph name="Schwa.alt1" format="2">
  <advance width="1240"/>
  <outline>
    <contour>
      <point x="201" y="0" type="line"/>
      <point x="682" y="0" type="line"/>
      <point x="1150" y="528" type="line"/>
      <point x="1228" y="932" type="line"/>
      <point x="986" y="1460" type="line"/>
      <point x="351" y="1460" type="line"/>
      <point x="262" y="1159" type="line"/>
      <point x="757" y="1159" type="line"/>
      <point x="881" y="818" type="line"/>
      <point x="847" y="642" type="line"/>
      <point x="571" y="301" type="line"/>
      <point x="388" y="301" type="line"/>
      <point x="316" y="404" type="line"/>
      <point x="348" y="571" type="line"/>
      <point x="460" y="672" type="line"/>
      <point x="974" y="672" type="line"/>
      <point x="1020" y="909" type="line"/>
      <point x="378" y="909" type="line"/>
      <point x="92" y="641" type="line"/>
      <point x="19" y="267" type="line"/>
    </contour>
  </outline>
</glyph>
<glyph name="T.alt2" format="2">
  <advance width="1240"/>
  <outline>
    <contour>
      <point x="353" y="0" type="line"/>
      <point x="683" y="0" type="line"/>
      <point x="967" y="1460" type="line"/>
      <point x="637" y="1460" type="line"/>
    </contour>
    <contour>
      <point x="207" y="1189" type="line"/>
      <point x="1283" y="1189" type="line"/>
      <point x="1316" y="1460" type="line"/>
      <point x="280" y="1460" type="line"/>
    </contour>
  </outline>
</glyph>
<glyph name="Tbar.alt1" format="2">
  <advance width="1240"/>
  <outline>
    <contour>
      <point x="256" y="592" type="line"/>
      <point x="1004" y="592" type="line"/>
      <point x="1057" y="863" type="line"/>
      <point x="309" y="863" type="line"/>
    </contour>
    <contour>
      <point x="353" y="0" type="line"/>
      <point x="683" y="0" type="line"/>
      <point x="967" y="1460" type="line"/>
      <point x="637" y="1460" type="line"/>
    </contour>
    <contour>
      <point x="207" y="1189" type="line"/>
      <point x="1283" y="1189" type="line"/>
      <point x="1316" y="1460" type="line"/>
      <point x="280" y="1460" type="line"/>
    </contour>
  </outline>
</glyph>
<glyph name="Tcaron.alt5" format="2">
  <advance width="1240"/>
  <outline>
    <contour>
      <point x="353" y="0" type="line"/>
      <point x="683" y="0" type="line"/>
      <point x="967" y="1460" type="line"/>
      <point x="637" y="1460" type="line"/>
    </contour>
    <contour>
      <point x="207" y="1189" type="line"/>
      <point x="1283" y="1189" type="line"/>
      <point x="1316" y="1460" type="line"/>
      <point x="280" y="1460" type="line"/>
    </contour>
    <contour>
      <point x="459" y="1878" type="line"/>
      <point x="743" y="1878" type="line"/>
      <point x="864" y="1674" type="line"/>
      <point x="816" y="1674" type="line"/>
      <point x="1017" y="1878" type="line"/>
      <point x="1301" y="1878" type="line"/>
      <point x="1023" y="1620" type="line"/>
      <point x="637" y="1620" type="line"/>
    </contour>
  </outline>
</glyph>
<glyph name="Tcedilla.alt1" format="2">
  <advance width="1240"/>
  <outline>
    <contour>
      <point x="353" y="0" type="line"/>
      <point x="683" y="0" type="line"/>
      <point x="967" y="1460" type="line"/>
      <point x="637" y="1460" type="line"/>
    </contour>
    <contour>
      <point x="207" y="1189" type="line"/>
      <point x="1283" y="1189" type="line"/>
      <point x="1316" y="1460" type="line"/>
      <point x="280" y="1460" type="line"/>
    </contour>
    <contour>
      <point x="265" y="-637" type="line"/>
      <point x="459" y="-637" type="line"/>
      <point x="673" y="-474" type="line"/>
      <point x="711" y="-280" type="line"/>
      <point x="563" y="-140" type="line"/>
      <point x="543" y="-140" type="line"/>
      <point x="570" y="-200" type="line"/>
      <point x="618" y="48" type="line"/>
      <point x="438" y="48" type="line"/>
      <point x="370" y="-305" type="line"/>
      <point x="456" y="-305" type="line"/>
      <point x="522" y="-360" type="line"/>
      <point x="515" y="-394" type="line"/>
      <point x="428" y="-449" type="line"/>
      <point x="302" y="-449" type="line"/>
    </contour>
  </outline>
</glyph>
<glyph name="Thorn.alt1" format="2">
  <advance width="1240"/>
  <outline>
    <contour>
      <point x="47" y="0" type="line"/>
      <point x="376" y="0" type="line"/>
      <point x="660" y="1460" type="line"/>
      <point x="331" y="1460" type="line"/>
    </contour>
    <contour>
      <point x="254" y="272" type="line"/>
      <point x="781" y="272" type="line"/>
      <point x="1177" y="589" type="line"/>
      <point x="1244" y="933" type="line"/>
      <point x="961" y="1250" type="line"/>
      <point x="444" y="1250" type="line"/>
      <point x="394" y="994" type="line"/>
      <point x="771" y="994" type="line"/>
      <point x="906" y="864" type="line"/>
      <point x="875" y="703" type="line"/>
      <point x="678" y="513" type="line"/>
      <point x="301" y="513" type="line"/>
    </contour>
  </outline>
</glyph>
<glyph name="Ubreve.alt5" format="2">
  <advance width="1240"/>
  <outline>
    <contour>
      <point x="242" y="0" type="line"/>
      <point x="808" y="0" type="line"/>
      <point x="1051" y="249" type="line"/>
      <point x="1287" y="1460" type="line"/>
      <point x="952" y="1460" type="line"/>
      <point x="737" y="353" type="line"/>
      <point x="663" y="271" type="line"/>
      <point x="473" y="271" type="line"/>
      <point x="431" y="353" type="line"/>
      <point x="646" y="1460" type="line"/>
      <point x="311" y="1460" type="line"/>
      <point x="79" y="269" type="line"/>
    </contour>
    <contour>
      <point x="659" y="1600" type="line"/>
      <point x="993" y="1600" type="line"/>
      <point x="1216" y="1753" type="line"/>
      <point x="1240" y="1878" type="line"/>
      <point x="1042" y="1878" type="line"/>
      <point x="1031" y="1820" type="line"/>
      <point x="945" y="1763" type="line"/>
      <point x="771" y="1763" type="line"/>
      <point x="707" y="1820" type="line"/>
      <point x="718" y="1878" type="line"/>
      <point x="520" y="1878" type="line"/>
      <point x="496" y="1752" type="line"/>
    </contour>
  </outline>
</glyph>
<glyph name="Ucircumflex.alt1" format="2">
  <advance width="1240"/>
  <outline>
    <contour>
      <point x="242" y="0" type="line"/>
      <point x="808" y="0" type="line"/>
      <point x="1051" y="249" type="line"/>
      <point x="1287" y="1460" type="line"/>
      <point x="952" y="1460" type="line"/>
      <point x="737" y="353" type="line"/>
      <point x="663" y="271" type="line"/>
      <point x="473" y="271" type="line"/>
      <point x="431" y="353" type="line"/>
      <point x="646" y="1460" type="line"/>
      <point x="311" y="1460" type="line"/>
      <point x="79" y="269" type="line"/>
    </contour>
    <contour>
      <point x="409" y="1620" type="line"/>
      <point x="693" y="1620" type="line"/>
      <point x="894" y="1824" type="line"/>
      <point x="846" y="1824" type="line"/>
      <point x="967" y="1620" type="line"/>
      <point x="1251" y="1620" type="line"/>
      <point x="1073" y="1878" type="line"/>
      <point x="687" y="1878" type="line"/>
    </contour>
  </outline>
</glyph>
<glyph name="Udieresis.alt1" format="2">
  <advance width="1240"/>
  <outline>
    <contour>
      <point x="242" y="0" type="line"/>
      <point x="808" y="0" type="line"/>
      <point x="1051" y="249" type="line"/>
      <point x="1287" y="1460" type="line"/>
      <point x="952" y="1460" type="line"/>
      <point x="737" y="353" type="line"/>
      <point x="663" y="271" type="line"/>
      <point x="473" y="271" type="line"/>
      <point x="431" y="353" type="line"/>
      <point x="646" y="1460" type="line"/>
      <point x="311" y="1460" type="line"/>
      <point x="79" y="269" type="line"/>
    </contour>
    <contour>
      <point x="549" y="1619" type="line"/>
      <point x="753" y="1787" type="line"/>
      <point x="614" y="1954" type="line"/>
      <point x="410" y="1787" type="line"/>
    </contour>
    <contour>
      <point x="1110" y="1619" type="line"/>
      <point x="1314" y="1787" type="line"/>
      <point x="1175" y="1954" type="line"/>
      <point x="971" y="1787" type="line"/>
    </contour>
  </outline>
</glyph>
<glyph name="Udotbelow.alt5" format="2">
  <advance width="1240"/>
  <outline>
    <contour>
      <point x="242" y="0" type="line"/>
      <point x="808" y="0" type="line"/>
      <point x="1051" y="249" type="line"/>
      <point x="1287" y="1460" type="line"/>
      <point x="952" y="1460" type="line"/>
      <point x="737" y="353" type="line"/>
      <point x="663" y="271" type="line"/>
      <point x="473" y="271" type="line"/>
      <point x="431" y="353" type="line"/>
      <point x="646" y="1460" type="line"/>
      <point x="311" y="1460" type="line"/>
      <point x="79" y="269" type="line"/>
    </contour>
    <contour>
      <point x="412" y="-528" type="line"/>
      <point x="671" y="-318" type="line"/>
      <point x="494" y="-109" type="line"/>
      <point x="234" y="-318" type="line"/>
    </contour>
  </outline>
</glyph>
<glyph name="Umacron.alt1" format="2">
  <advance width="1240"/>
  <outline>
    <contour>
      <point x="242" y="0" type="line"/>
      <point x="808" y="0" type="line"/>
      <point x="1051" y="249" type="line"/>
      <point x="1287" y="1460" type="line"/>
      <point x="952" y="1460" type="line"/>
      <point x="737" y="353" type="line"/>
      <point x="663" y="271" type="line"/>
      <point x="473" y="271" type="line"/>
      <point x="431" y="353" type="line"/>
      <point x="646" y="1460" type="line"/>
      <point x="311" y="1460" type="line"/>
      <point x="79" y="269" type="line"/>
    </contour>
    <contour>
      <point x="495" y="1691" type="line"/>
      <point x="1193" y="1691" type="line"/>
      <point x="1230" y="1884" type="line"/>
      <point x="532" y="1884" type="line"/>
    </contour>
  </outline>
</glyph>
<glyph name="Uogonek.alt5" format="2">
  <advance width="1240"/>
  <outline>
    <contour>
      <point x="242" y="0" type="line"/>
      <point x="808" y="0" type="line"/>
      <point x="1051" y="249" type="line"/>
      <point x="1287" y="1460" type="line"/>
      <point x="952" y="1460" type="line"/>
      <point x="737" y="353" type="line"/>
      <point x="663" y="271" type="line"/>
      <point x="473" y="271" type="line"/>
      <point x="431" y="353" type="line"/>
      <point x="646" y="1460" type="line"/>
      <point x="311" y="1460" type="line"/>
      <point x="79" y="269" type="line"/>
    </contour>
    <contour>
      <point x="297" y="-133" type="line"/>
      <point x="261" y="-320" type="line"/>
      <point x="440" y="-443" type="line"/>
      <point x="604" y="-443" type="line"/>
      <point x="643" y="-240" type="line"/>
      <point x="551" y="-240" type="line"/>
      <point x="505" y="-210" type="line"/>
      <point x="512" y="-173" type="line"/>
      <point x="709" y="0" type="line"/>
      <point x="601" y="44" type="line"/>
    </contour>
  </outline>
</glyph>
<glyph name="Uring.alt5" format="2">
  <advance width="1240"/>
  <outline>
    <contour>
      <point x="242" y="0" type="line"/>
      <point x="808" y="0" type="line"/>
      <point x="1051" y="249" type="line"/>
      <point x="1287" y="1460" type="line"/>
      <point x="952" y="1460" type="line"/>
      <point x="737" y="353" type="line"/>
      <point x="663" y="271" type="line"/>
      <point x="473" y="271" type="line"/>
      <point x="431" y="353" type="line"/>
      <point x="646" y="1460" type="line"/>
      <point x="311" y="1460" type="line"/>
      <point x="79" y="269" type="line"/>
    </contour>
    <contour>
      <point x="708" y="1438" type="line"/>
      <point x="882" y="1438" type="line"/>
      <point x="1074" y="1605" type="line"/>
      <point x="1107" y="1775" type="line"/>
      <point x="979" y="1941" type="line"/>
      <point x="805" y="1941" type="line"/>
      <point x="613" y="1774" type="line"/>
      <point x="580" y="1604" type="line"/>
    </contour>
    <contour>
      <point x="715" y="1656" type="line"/>
      <point x="728" y="1724" type="line"/>
      <point x="837" y="1820" type="line"/>
      <point x="901" y="1820" type="line"/>
      <point x="972" y="1724" type="line"/>
      <point x="959" y="1656" type="line"/>
      <point x="850" y="1559" type="line"/>
      <point x="786" y="1559" type="line"/>
    </contour>
  </outline>
</glyph>
<glyph name="Utilde.alt5" format="2">
  <advance width="1240"/>
  <outline>
    <contour>
      <point x="242" y="0" type="line"/>
      <point x="808" y="0" type="line"/>
      <point x="1051" y="249" type="line"/>
      <point x="1287" y="1460" type="line"/>
      <point x="952" y="1460" type="line"/>
      <point x="737" y="353" type="line"/>
      <point x="663" y="271" type="line"/>
      <point x="473" y="271" type="line"/>
      <point x="431" y="353" type="line"/>
      <point x="646" y="1460" type="line"/>
      <point x="311" y="1460" type="line"/>
      <point x="79" y="269" type="line"/>
    </contour>
    <contour>
      <point x="867" y="1887" type="line"/>
      <point x="579" y="1887" type="line"/>
      <point x="398" y="1744" type="line"/>
      <point x="372" y="1611" type="line"/>
      <point x="575" y="1611" type="line"/>
      <point x="587" y="1672" type="line"/>
      <point x="659" y="1734" type="line"/>
      <point x="727" y="1734" type="line"/>
      <point x="843" y="1611" type="line"/>
      <point x="1131" y="1611" type="line"/>
      <point x="1312" y="1754" type="line"/>
      <point x="1338" y="1887" type="line"/>
      <point x="1135" y="1887" type="line"/>
      <point x="1121" y="1816" type="line"/>
      <point x="1051" y="1764" type="line"/>
      <point x="983" y="1764" type="line"/>
    </contour>
  </outline>
</glyph>
<glyph name="V.alt3" format="2">
  <advance width="1240"/>
  <outline>
    <contour>
      <point x="312" y="0" type="line"/>
      <point x="718" y="0" type="line"/>
      <point x="1140" y="707" type="line"/>
      <point x="1287" y="1460" type="line"/>
      <point x="960" y="1460" type="line"/>
      <point x="836" y="821" type="line"/>
      <point x="511" y="199" type="line"/>
      <point x="587" y="199" type="line"/>
      <point x="506" y="781" type="line"/>
      <point x="638" y="1460" type="line"/>
      <point x="311" y="1460" type="line"/>
      <point x="164" y="707" type="line"/>
    </contour>
  </outline>
</glyph>
<glyph name="Y.alt1" format="2">
  <advance width="1240"/>
  <outline>
    <contour>
      <point x="455" y="532" type="line"/>
      <point x="781" y="532" type="line"/>
      <point x="1233" y="1069" type="line"/>
      <point x="1309" y="1460" type="line"/>
      <point x="974" y="1460" type="line"/>
      <point x="916" y="1163" type="line"/>
      <point x="626" y="781" type="line"/>
      <point x="698" y="781" type="line"/>
      <point x="554" y="1153" type="line"/>
      <point x="614" y="1460" type="line"/>
      <point x="289" y="1460" type="line"/>
      <point x="213" y="1069" type="line"/>
    </contour>
    <contour>
      <point x="350" y="0" type="line"/>
      <point x="679" y="0" type="line"/>
      <point x="810" y="676" type="line"/>
      <point x="481" y="676" type="line"/>
    </contour>
  </outline>
</glyph>
<glyph name="Ycircumflex.alt1" format="2">
  <advance width="1240"/>
  <outline>
    <contour>
      <point x="455" y="532" type="line"/>
      <point x="781" y="532" type="line"/>
      <point x="1233" y="1069" type="line"/>
      <point x="1309" y="1460" type="line"/>
      <point x="974" y="1460" type="line"/>
      <point x="916" y="1163" type="line"/>
      <point x="626" y="781" type="line"/>
      <point x="698" y="781" type="line"/>
      <point x="554" y="1153" type="line"/>
      <point x="614" y="1460" type="line"/>
      <point x="289" y="1460" type="line"/>
      <point x="213" y="1069" type="line"/>
    </contour>
    <contour>
      <point x="350" y="0" type="line"/>
      <point x="679" y="0" type="line"/>
      <point x="810" y="676" type="line"/>
      <point x="481" y="676" type="line"/>
    </contour>
    <contour>
      <point x="409" y="1620" type="line"/>
      <point x="693" y="1620" type="line"/>
      <point x="894" y="1824" type="line"/>
      <point x="846" y="1824" type="line"/>
      <point x="967" y="1620" type="line"/>
      <point x="1251" y="1620" type="line"/>
      <point x="1073" y="1878" type="line"/>
      <point x="687" y="1878" type="line"/>
    </contour>
  </outline>
</glyph>
<glyph name="Ytilde.alt5" format="2">
  <advance width="1240"/>
  <outline>
    <contour>
      <point x="455" y="532" type="line"/>
      <point x="781" y="532" type="line"/>
      <point x="1233" y="1069" type="line"/>
      <point x="1309" y="1460" type="line"/>
      <point x="974" y="1460" type="line"/>
      <point x="916" y="1163" type="line"/>
      <point x="626" y="781" type="line"/>
      <point x="698" y="781" type="line"/>
      <point x="554" y="1153" type="line"/>
      <point x="614" y="1460" type="line"/>
      <point x="289" y="1460" type="line"/>
      <point x="213" y="1069" type="line"/>
    </contour>
    <contour>
      <point x="350" y="0" type="line"/>
      <point x="679" y="0" type="line"/>
      <point x="810" y="676" type="line"/>
      <point x="481" y="676" type="line"/>
    </contour>
    <contour>
      <point x="867" y="1887" type="line"/>
      <point x="579" y="1887" type="line"/>
      <point x="398" y="1744" type="line"/>
      <point x="372" y="1611" type="line"/>
      <point x="575" y="1611" type="line"/>
      <point x="587" y="1672" type="line"/>
      <point x="659" y="1734" type="line"/>
      <point x="727" y="1734" type="line"/>
      <point x="843" y="1611" type="line"/>
      <point x="1131" y="1611" type="line"/>
      <point x="1312" y="1754" type="line"/>
      <point x="1338" y="1887" type="line"/>
      <point x="1135" y="1887" type="line"/>
      <point x="1121" y="1816" type="line"/>
      <point x="1051" y="1764" type="line"/>
      <point x="983" y="1764" type="line"/>
    </contour>
  </outline>
</glyph>
<glyph name="Z.alt2" format="2">
  <advance width="1240"/>
  <outline>
    <contour>
      <point x="55" y="0" type="line"/>
      <point x="989" y="0" type="line"/>
      <point x="1101" y="266" type="line"/>
      <point x="327" y="266" type="line"/>
      <point x="361" y="160" type="line"/>
      <point x="1235" y="1245" type="line"/>
      <point x="1216" y="1460" type="line"/>
      <point x="344" y="1460" type="line"/>
      <point x="232" y="1196" type="line"/>
      <point x="972" y="1196" type="line"/>
      <point x="902" y="1291" type="line"/>
      <point x="39" y="226" type="line"/>
    </contour>
  </outline>
</glyph>
<glyph name="Zacute.alt1" format="2">
  <advance width="1240"/>
  <outline>
    <contour>
      <point x="55" y="0" type="line"/>
      <point x="989" y="0" type="line"/>
      <point x="1101" y="266" type="line"/>
      <point x="327" y="266" type="line"/>
      <point x="361" y="160" type="line"/>
      <point x="1235" y="1245" type="line"/>
      <point x="1216" y="1460" type="line"/>
      <point x="344" y="1460" type="line"/>
      <point x="232" y="1196" type="line"/>
      <point x="972" y="1196" type="line"/>
      <point x="902" y="1291" type="line"/>
      <point x="39" y="226" type="line"/>
    </contour>
    <contour>
      <point x="964" y="1619" type="line"/>
      <point x="705" y="1619" type="line"/>
      <point x="938" y="1877" type="line"/>
      <point x="1263" y="1877" type="line"/>
    </contour>
  </outline>
</glyph>
<glyph name="Zdotaccent.alt5" format="2">
  <advance width="1240"/>
  <outline>
    <contour>
      <point x="55" y="0" type="line"/>
      <point x="989" y="0" type="line"/>
      <point x="1101" y="266" type="line"/>
      <point x="327" y="266" type="line"/>
      <point x="361" y="160" type="line"/>
      <point x="1235" y="1245" type="line"/>
      <point x="1216" y="1460" type="line"/>
      <point x="344" y="1460" type="line"/>
      <point x="232" y="1196" type="line"/>
      <point x="972" y="1196" type="line"/>
      <point x="902" y="1291" type="line"/>
      <point x="39" y="226" type="line"/>
    </contour>
    <contour>
      <point x="826" y="1619" type="line"/>
      <point x="1033" y="1787" type="line"/>
      <point x="891" y="1954" type="line"/>
      <point x="683" y="1787" type="line"/>
    </contour>
  </outline>
</glyph>
<glyph name="acutecomb.alt5" format="2">
  <outline>
    <contour>
      <point x="897" y="1275" type="line"/>
      <point x="638" y="1275" type="line"/>
      <point x="892" y="1643" type="line"/>
      <point x="1217" y="1643" type="line"/>
    </contour>
  </outline>
</glyph>
<glyph name="acutecomb.case" format="2">
  <outline>
    <contour>
      <point x="964" y="1619" type="line"/>
      <point x="705" y="1619" type="line"/>
      <point x="938" y="1877" type="line"/>
      <point x="1263" y="1877" type="line"/>
    </contour>
  </outline>
</glyph>
<glyph name="ae.alt1" format="2">
  <advance width="1240"/>
  <outline>
    <contour>
      <point x="658" y="1082" type="line"/>
      <point x="253" y="1082" type="line"/>
      <point x="180" y="859" type="line"/>
      <point x="498" y="859" type="line"/>
      <point x="536" y="764" type="line"/>
      <point x="522" y="693" type="line"/>
      <point x="740" y="693" type="line"/>
      <point x="767" y="833" type="line"/>
    </contour>
    <contour>
      <point x="300" y="643" type="line"/>
      <point x="43" y="477" type="line"/>
      <point x="-12" y="193" type="line"/>
      <point x="193" y="-10" type="line"/>
      <point x="479" y="122" type="line"/>
      <point x="594" y="122" type="line"/>
      <point x="628" y="297" type="line"/>
      <point x="543" y="297" type="line"/>
      <point x="320" y="211" type="line"/>
      <point x="232" y="294" type="line"/>
      <point x="251" y="393" type="line"/>
      <point x="353" y="453" type="line"/>
      <point x="572" y="453" type="line"/>
      <point x="609" y="643" type="line"/>
    </contour>
    <contour>
      <point x="856" y="1082" type="line"/>
      <point x="527" y="722" type="line"/>
      <point x="429" y="218" type="line"/>
      <point x="666" y="0" type="line"/>
      <point x="1009" y="0" type="line"/>
      <point x="1082" y="221" type="line"/>
      <point x="799" y="221" type="line"/>
      <point x="673" y="343" type="line"/>
      <point x="734" y="659" type="line"/>
      <point x="901" y="851" type="line"/>
      <point x="999" y="851" type="line"/>
      <point x="1038" y="813" type="line"/>
      <point x="1015" y="697" type="line"/>
      <point x="955" y="643" type="line"/>
      <point x="691" y="643" type="line"/>
      <point x="654" y="453" type="line"/>
      <point x="1058" y="453" type="line"/>
      <point x="1191" y="569" type="line"/>
      <point x="1259" y="921" type="line"/>
      <point x="1106" y="1082" type="line"/>
    </contour>
  </outline>
</glyph>
<glyph name="amacron.alt1" format="2">
  <advance width="1240"/>
  <outline>
    <contour>
      <point x="778" y="0" type="line"/>
      <point x="1023" y="0" type="line"/>
      <point x="1185" y="833" type="line"/>
      <point x="998" y="1082" type="line"/>
      <point x="343" y="1082" type="line"/>
      <point x="264" y="829" type="line"/>
      <point x="782" y="829" type="line"/>
      <point x="847" y="764" type="line"/>
      <point x="730" y="165" type="line"/>
    </contour>
    <contour>
      <point x="236" y="-22" type="line"/>
      <point x="817" y="116" type="line"/>
      <point x="852" y="297" type="line"/>
      <point x="405" y="211" type="line"/>
      <point x="333" y="324" type="line"/>
      <point x="346" y="393" type="line"/>
      <point x="438" y="453" type="line"/>
      <point x="882" y="453" type="line"/>
      <point x="919" y="643" type="line"/>
      <point x="345" y="643" type="line"/>
      <point x="66" y="467" type="line"/>
      <point x="13" y="193" type="line"/>
    </contour>
    <contour>
      <point x="419" y="1299" type="line"/>
      <point x="1117" y="1299" type="line"/>
      <point x="1154" y="1492" type="line"/>
      <point x="456" y="1492" type="line"/>
    </contour>
  </outline>
</glyph>
<glyph name="ampersand.alt5" format="2">
  <advance width="1240"/>
  <outline>
    <contour>
      <point x="864" y="767" type="line" smooth="yes"/>
      <point x="792" y="398"/>
      <point x="660" y="235"/>
      <point x="484" y="235" type="curve" smooth="yes"/>
      <point x="362" y="235"/>
      <point x="308" y="315"/>
      <point x="339" y="471" type="curve" smooth="yes"/>
      <point x="372" y="644"/>
      <point x="472" y="717"/>
      <point x="581" y="767" type="curve"/>
      <point x="559" y="931" type="line"/>
      <point x="299" y="843"/>
      <point x="79" y="714"/>
      <point x="21" y="416" type="curve" smooth="yes"/>
      <point x="-31" y="150"/>
      <point x="110" y="-24"/>
      <point x="376" y="-24" type="curve" smooth="yes"/>
      <point x="795" y="-24"/>
      <point x="999" y="348"/>
      <point x="1086" y="802" type="curve"/>
      <point x="968" y="616" type="line"/>
      <point x="1202" y="616" type="line"/>
      <point x="1253" y="878" type="line"/>
      <point x="886" y="878" type="line"/>
    </contour>
    <contour>
      <point x="1119" y="1150" type="line"/>
      <point x="1138" y="1374"/>
      <point x="994" y="1483"/>
      <point x="758" y="1483" type="curve" smooth="yes"/>
      <point x="484" y="1483"/>
      <point x="330" y="1346"/>
      <point x="290" y="1141" type="curve" smooth="yes"/>
      <point x="258" y="980"/>
      <point x="318" y="854"/>
      <point x="383" y="727" type="curve" smooth="yes"/>
      <point x="755" y="0" type="line"/>
      <point x="1125" y="0" type="line"/>
      <point x="721" y="789" type="line" smooth="yes"/>
      <point x="645" y="939"/>
      <point x="583" y="1045"/>
      <point x="602" y="1143" type="curve" smooth="yes"/>
      <point x="614" y="1206"/>
      <point x="657" y="1249"/>
      <point x="727" y="1249" type="curve" smooth="yes"/>
      <point x="799" y="1249"/>
      <point x="831" y="1205"/>
      <point x="827" y="1092" type="curve"/>
    </contour>
  </outline>
</glyph>
<glyph name="angle.alt5" format="2">
  <advance width="1240"/>
  <outline>
    <contour>
      <point x="965" y="0" type="line"/>
      <point x="1018" y="271" type="line"/>
      <point x="516" y="271" type="line"/>
      <point x="510" y="285" type="line"/>
      <point x="1002" y="981" type="line"/>
      <point x="746" y="1094" type="line"/>
      <point x="49" y="99" type="line"/>
      <point x="71" y="0" type="line"/>
    </contour>
  </outline>
</glyph>
<glyph name="approxequal.alt5" format="2">
  <advance width="1240"/>
  <outline>
    <contour>
      <point x="864" y="738" type="curve" smooth="yes"/>
      <point x="1007" y="738"/>
      <point x="1142" y="849"/>
      <point x="1230" y="1199" type="curve"/>
      <point x="1019" y="1234" type="line"/>
      <point x="977" y="1101"/>
      <point x="938" y="1033"/>
      <point x="872" y="1033" type="curve" smooth="yes"/>
      <point x="753" y="1033"/>
      <point x="754" y="1254"/>
      <point x="552" y="1254" type="curve" smooth="yes"/>
      <point x="408" y="1254"/>
      <point x="275" y="1141"/>
      <point x="187" y="793" type="curve"/>
      <point x="398" y="758" type="line"/>
      <point x="440" y="891"/>
      <point x="479" y="959"/>
      <point x="545" y="959" type="curve" smooth="yes"/>
      <point x="664" y="959"/>
      <point x="663" y="738"/>
    </contour>
    <contour>
      <point x="739" y="94" type="curve" smooth="yes"/>
      <point x="882" y="94"/>
      <point x="1017" y="205"/>
      <point x="1105" y="555" type="curve"/>
      <point x="894" y="590" type="line"/>
      <point x="852" y="457"/>
      <point x="813" y="389"/>
      <point x="747" y="389" type="curve" smooth="yes"/>
      <point x="628" y="389"/>
      <point x="629" y="610"/>
      <point x="427" y="610" type="curve" smooth="yes"/>
      <point x="283" y="610"/>
      <point x="150" y="497"/>
      <point x="62" y="149" type="curve"/>
      <point x="273" y="114" type="line"/>
      <point x="315" y="247"/>
      <point x="354" y="315"/>
      <point x="420" y="315" type="curve" smooth="yes"/>
      <point x="539" y="315"/>
      <point x="538" y="94"/>
    </contour>
  </outline>
</glyph>
<glyph name="asciicircum.alt5" format="2">
  <advance width="1240"/>
  <outline>
    <contour>
      <point x="128" y="811" type="line"/>
      <point x="346" y="675" type="line"/>
      <point x="745" y="1192" type="line"/>
      <point x="766" y="1192" type="line"/>
      <point x="963" y="675" type="line"/>
      <point x="1215" y="811" type="line"/>
      <point x="939" y="1530" type="line"/>
      <point x="682" y="1530" type="line"/>
    </contour>
  </outline>
</glyph>
<glyph name="asterisk.alt2" format="2">
  <advance width="1240"/>
  <outline>
    <contour>
      <point x="822" y="1004" type="line"/>
      <point x="965" y="1530" type="line"/>
      <point x="659" y="1530" type="line"/>
      <point x="599" y="1004" type="line"/>
    </contour>
    <contour>
      <point x="724" y="897" type="line"/>
      <point x="1260" y="1021" type="line"/>
      <point x="1223" y="1310" type="line"/>
      <point x="696" y="1110" type="line"/>
    </contour>
    <contour>
      <point x="609" y="941" type="line"/>
      <point x="799" y="491" type="line"/>
      <point x="1081" y="670" type="line"/>
      <point x="815" y="1072" type="line"/>
    </contour>
    <contour>
      <point x="631" y="1072" type="line"/>
      <point x="209" y="670" type="line"/>
      <point x="421" y="491" type="line"/>
      <point x="787" y="941" type="line"/>
    </contour>
    <contour>
      <point x="766" y="1110" type="line"/>
      <point x="317" y="1310" type="line"/>
      <point x="166" y="1021" type="line"/>
      <point x="654" y="897" type="line"/>
    </contour>
  </outline>
</glyph>
<glyph name="atilde.alt5" format="2">
  <advance width="1240"/>
  <outline>
    <contour>
      <point x="778" y="0" type="line"/>
      <point x="1023" y="0" type="line"/>
      <point x="1185" y="833" type="line"/>
      <point x="998" y="1082" type="line"/>
      <point x="343" y="1082" type="line"/>
      <point x="264" y="829" type="line"/>
      <point x="782" y="829" type="line"/>
      <point x="847" y="764" type="line"/>
      <point x="730" y="165" type="line"/>
    </contour>
    <contour>
      <point x="236" y="-22" type="line"/>
      <point x="817" y="116" type="line"/>
      <point x="852" y="297" type="line"/>
      <point x="405" y="211" type="line"/>
      <point x="333" y="324" type="line"/>
      <point x="346" y="393" type="line"/>
      <point x="438" y="453" type="line"/>
      <point x="882" y="453" type="line"/>
      <point x="919" y="643" type="line"/>
      <point x="345" y="643" type="line"/>
      <point x="66" y="467" type="line"/>
      <point x="13" y="193" type="line"/>
    </contour>
    <contour>
      <point x="805" y="1613" type="line"/>
      <point x="517" y="1613" type="line"/>
      <point x="328" y="1430" type="line"/>
      <point x="294" y="1257" type="line"/>
      <point x="497" y="1257" type="line"/>
      <point x="517" y="1358" type="line"/>
      <point x="595" y="1450" type="line"/>
      <point x="663" y="1450" type="line"/>
      <point x="765" y="1257" type="line"/>
      <point x="1053" y="1257" type="line"/>
      <point x="1242" y="1440" type="line"/>
      <point x="1276" y="1613" type="line"/>
      <point x="1073" y="1613" type="line"/>
      <point x="1051" y="1502" type="line"/>
      <point x="975" y="1420" type="line"/>
      <point x="907" y="1420" type="line"/>
    </contour>
  </outline>
</glyph>
<glyph name="b.alt1" format="2">
  <advance width="1240"/>
  <outline>
    <contour>
      <point x="7" y="0" type="line"/>
      <point x="322" y="0" type="line"/>
      <point x="493" y="882" type="line"/>
      <point x="520" y="942" type="line"/>
      <point x="634" y="1530" type="line"/>
      <point x="293" y="1470" type="line"/>
    </contour>
    <contour>
      <point x="165" y="0" type="line"/>
      <point x="690" y="0" type="line"/>
      <point x="1097" y="317" type="line"/>
      <point x="1191" y="801" type="line"/>
      <point x="935" y="1106" type="line"/>
      <point x="345" y="928" type="line"/>
      <point x="307" y="729" type="line"/>
      <point x="772" y="805" type="line"/>
      <point x="850" y="722" type="line"/>
      <point x="792" y="423" type="line"/>
      <point x="601" y="263" type="line"/>
      <point x="216" y="263" type="line"/>
    </contour>
  </outline>
</glyph>
<glyph name="bitcoin.alt5" format="2">
  <advance width="1240"/>
  <outline>
    <contour>
      <point x="863" y="1366" type="line"/>
      <point x="1093" y="1366" type="line"/>
      <point x="1168" y="1755" type="line"/>
      <point x="938" y="1755" type="line"/>
    </contour>
    <contour>
      <point x="436" y="1366" type="line"/>
      <point x="666" y="1366" type="line"/>
      <point x="741" y="1755" type="line"/>
      <point x="511" y="1755" type="line"/>
    </contour>
    <contour>
      <point x="559" y="-295" type="line"/>
      <point x="789" y="-295" type="line"/>
      <point x="875" y="147" type="line"/>
      <point x="645" y="147" type="line"/>
    </contour>
    <contour>
      <point x="132" y="-295" type="line"/>
      <point x="362" y="-295" type="line"/>
      <point x="448" y="147" type="line"/>
      <point x="218" y="147" type="line"/>
    </contour>
    <contour>
      <point x="359" y="0" type="line"/>
      <point x="643" y="1460" type="line"/>
      <point x="306" y="1460" type="line"/>
      <point x="22" y="0" type="line"/>
    </contour>
    <contour>
      <point x="816" y="1460" type="curve"/>
      <point x="531" y="1460" type="line"/>
      <point x="486" y="1230" type="line"/>
      <point x="693" y="1230" type="line" smooth="yes"/>
      <point x="855" y="1230"/>
      <point x="929" y="1180"/>
      <point x="906" y="1058" type="curve" smooth="yes"/>
      <point x="881" y="929"/>
      <point x="775" y="858"/>
      <point x="594" y="858" type="curve"/>
      <point x="337" y="858" type="line"/>
      <point x="294" y="639" type="line"/>
      <point x="578" y="639" type="line"/>
      <point x="769" y="639"/>
      <point x="871" y="600"/>
      <point x="840" y="444" type="curve" smooth="yes"/>
      <point x="808" y="277"/>
      <point x="672" y="230"/>
      <point x="499" y="230" type="curve" smooth="yes"/>
      <point x="336" y="230" type="line"/>
      <point x="291" y="0" type="line"/>
      <point x="548" y="0" type="line" smooth="yes"/>
      <point x="851" y="0"/>
      <point x="1117" y="133"/>
      <point x="1171" y="410" type="curve" smooth="yes"/>
      <point x="1220" y="662"/>
      <point x="1035" y="762"/>
      <point x="835" y="766" type="curve"/>
      <point x="837" y="776" type="line"/>
      <point x="1010" y="793"/>
      <point x="1196" y="886"/>
      <point x="1242" y="1120" type="curve" smooth="yes"/>
      <point x="1295" y="1392"/>
      <point x="1092" y="1462"/>
    </contour>
  </outline>
</glyph>
<glyph name="bowl.alt5" format="2">
  <advance width="1230"/>
  <outline>
    <contour>
      <point x="165" y="0" type="line"/>
      <point x="690" y="0" type="line"/>
      <point x="1097" y="317" type="line"/>
      <point x="1191" y="801" type="line"/>
      <point x="935" y="1106" type="line"/>
      <point x="345" y="928" type="line"/>
      <point x="307" y="729" type="line"/>
      <point x="772" y="805" type="line"/>
      <point x="850" y="722" type="line"/>
      <point x="792" y="423" type="line"/>
      <point x="601" y="263" type="line"/>
      <point x="216" y="263" type="line"/>
    </contour>
  </outline>
</glyph>
<glyph name="bracketleft.alt1" format="2">
  <advance width="1240"/>
  <outline>
    <contour>
      <point x="133" y="-400" type="line"/>
      <point x="850" y="-400" type="line"/>
      <point x="897" y="-160" type="line"/>
      <point x="445" y="-160" type="line"/>
      <point x="481" y="-204" type="line"/>
      <point x="794" y="1406" type="line"/>
      <point x="741" y="1362" type="line"/>
      <point x="1193" y="1362" type="line"/>
      <point x="1239" y="1602" type="line"/>
      <point x="522" y="1602" type="line"/>
    </contour>
  </outline>
</glyph>
<glyph name="bracketright.alt1" format="2">
  <advance width="1240"/>
  <outline>
    <contour>
      <point x="741" y="-400" type="line"/>
      <point x="1130" y="1602" type="line"/>
      <point x="413" y="1602" type="line"/>
      <point x="367" y="1362" type="line"/>
      <point x="819" y="1362" type="line"/>
      <point x="782" y="1406" type="line"/>
      <point x="469" y="-204" type="line"/>
      <point x="523" y="-160" type="line"/>
      <point x="71" y="-160" type="line"/>
      <point x="24" y="-400" type="line"/>
    </contour>
  </outline>
</glyph>
<glyph name="brevecomb.alt1" format="2">
  <outline>
    <contour>
      <point x="594" y="1267" type="line"/>
      <point x="928" y="1267" type="line"/>
      <point x="1157" y="1450" type="line"/>
      <point x="1194" y="1643" type="line"/>
      <point x="996" y="1643" type="line"/>
      <point x="972" y="1517" type="line"/>
      <point x="882" y="1440" type="line"/>
      <point x="708" y="1440" type="line"/>
      <point x="648" y="1517" type="line"/>
      <point x="672" y="1643" type="line"/>
      <point x="474" y="1643" type="line"/>
      <point x="437" y="1449" type="line"/>
    </contour>
  </outline>
</glyph>
<glyph name="brevecomb.case" format="2">
  <outline>
    <contour>
      <point x="659" y="1600" type="line"/>
      <point x="993" y="1600" type="line"/>
      <point x="1216" y="1753" type="line"/>
      <point x="1240" y="1878" type="line"/>
      <point x="1042" y="1878" type="line"/>
      <point x="1031" y="1820" type="line"/>
      <point x="945" y="1763" type="line"/>
      <point x="771" y="1763" type="line"/>
      <point x="707" y="1820" type="line"/>
      <point x="718" y="1878" type="line"/>
      <point x="520" y="1878" type="line"/>
      <point x="496" y="1752" type="line"/>
    </contour>
  </outline>
</glyph>
<glyph name="c.alt2" format="2">
  <advance width="1240"/>
  <outline>
    <contour>
      <point x="310" y="0" type="line"/>
      <point x="966" y="0" type="line"/>
      <point x="1064" y="281" type="line"/>
      <point x="485" y="281" type="line"/>
      <point x="388" y="453" type="line"/>
      <point x="420" y="619" type="line"/>
      <point x="606" y="801" type="line"/>
      <point x="1165" y="801" type="line"/>
      <point x="1176" y="1082" type="line"/>
      <point x="520" y="1082" type="line"/>
      <point x="134" y="713" type="line"/>
      <point x="67" y="369" type="line"/>
    </contour>
  </outline>
</glyph>
<glyph name="cacute.alt1" format="2">
  <advance width="1240"/>
  <outline>
    <contour>
      <point x="310" y="0" type="line"/>
      <point x="966" y="0" type="line"/>
      <point x="1064" y="281" type="line"/>
      <point x="485" y="281" type="line"/>
      <point x="388" y="453" type="line"/>
      <point x="420" y="619" type="line"/>
      <point x="606" y="801" type="line"/>
      <point x="1165" y="801" type="line"/>
      <point x="1176" y="1082" type="line"/>
      <point x="520" y="1082" type="line"/>
      <point x="134" y="713" type="line"/>
      <point x="67" y="369" type="line"/>
    </contour>
    <contour>
      <point x="937" y="1275" type="line"/>
      <point x="678" y="1275" type="line"/>
      <point x="932" y="1643" type="line"/>
      <point x="1257" y="1643" type="line"/>
    </contour>
  </outline>
</glyph>
<glyph name="caron.alt1" format="2">
  <advance width="1240"/>
  <outline>
    <contour>
      <point x="413" y="1643" type="line"/>
      <point x="687" y="1643" type="line"/>
      <point x="807" y="1327" type="line"/>
      <point x="739" y="1327" type="line"/>
      <point x="981" y="1643" type="line"/>
      <point x="1255" y="1643" type="line"/>
      <point x="956" y="1275" type="line"/>
      <point x="570" y="1275" type="line"/>
    </contour>
  </outline>
</glyph>
<glyph name="caron.alt5" format="2">
  <advance width="1240"/>
  <outline>
    <contour>
      <point x="413" y="1643" type="line"/>
      <point x="687" y="1643" type="line"/>
      <point x="807" y="1327" type="line"/>
      <point x="739" y="1327" type="line"/>
      <point x="981" y="1643" type="line"/>
      <point x="1255" y="1643" type="line"/>
      <point x="956" y="1275" type="line"/>
      <point x="570" y="1275" type="line"/>
    </contour>
  </outline>
</glyph>
<glyph name="caroncomb.alt" format="2">
  <outline>
    <contour>
      <point x="1091" y="1312" type="line"/>
      <point x="1338" y="1312" type="line"/>
      <point x="1456" y="1708" type="line"/>
      <point x="1185" y="1708" type="line"/>
    </contour>
  </outline>
</glyph>
<glyph name="caroncomb.case" format="2">
  <outline>
    <contour>
      <point x="459" y="1878" type="line"/>
      <point x="743" y="1878" type="line"/>
      <point x="864" y="1674" type="line"/>
      <point x="816" y="1674" type="line"/>
      <point x="1017" y="1878" type="line"/>
      <point x="1301" y="1878" type="line"/>
      <point x="1023" y="1620" type="line"/>
      <point x="637" y="1620" type="line"/>
    </contour>
  </outline>
</glyph>
<glyph name="ccaron.alt1" format="2">
  <advance width="1240"/>
  <outline>
    <contour>
      <point x="310" y="0" type="line"/>
      <point x="966" y="0" type="line"/>
      <point x="1064" y="281" type="line"/>
      <point x="485" y="281" type="line"/>
      <point x="388" y="453" type="line"/>
      <point x="420" y="619" type="line"/>
      <point x="606" y="801" type="line"/>
      <point x="1165" y="801" type="line"/>
      <point x="1176" y="1082" type="line"/>
      <point x="520" y="1082" type="line"/>
      <point x="134" y="713" type="line"/>
      <point x="67" y="369" type="line"/>
    </contour>
    <contour>
      <point x="453" y="1643" type="line"/>
      <point x="727" y="1643" type="line"/>
      <point x="847" y="1327" type="line"/>
      <point x="779" y="1327" type="line"/>
      <point x="1021" y="1643" type="line"/>
      <point x="1295" y="1643" type="line"/>
      <point x="996" y="1275" type="line"/>
      <point x="610" y="1275" type="line"/>
    </contour>
  </outline>
</glyph>
<glyph name="ccedilla.alt5" format="2">
  <advance width="1240"/>
  <outline>
    <contour>
      <point x="310" y="0" type="line"/>
      <point x="966" y="0" type="line"/>
      <point x="1064" y="281" type="line"/>
      <point x="485" y="281" type="line"/>
      <point x="388" y="453" type="line"/>
      <point x="420" y="619" type="line"/>
      <point x="606" y="801" type="line"/>
      <point x="1165" y="801" type="line"/>
      <point x="1176" y="1082" type="line"/>
      <point x="520" y="1082" type="line"/>
      <point x="134" y="713" type="line"/>
      <point x="67" y="369" type="line"/>
    </contour>
    <contour>
      <point x="339" y="-637" type="line"/>
      <point x="533" y="-637" type="line"/>
      <point x="747" y="-474" type="line"/>
      <point x="785" y="-280" type="line"/>
      <point x="637" y="-140" type="line"/>
      <point x="617" y="-140" type="line"/>
      <point x="644" y="-200" type="line"/>
      <point x="692" y="48" type="line"/>
      <point x="512" y="48" type="line"/>
      <point x="444" y="-305" type="line"/>
      <point x="530" y="-305" type="line"/>
      <point x="596" y="-360" type="line"/>
      <point x="589" y="-394" type="line"/>
      <point x="502" y="-449" type="line"/>
      <point x="376" y="-449" type="line"/>
    </contour>
  </outline>
</glyph>
<glyph name="cdotaccent.alt1" format="2">
  <advance width="1240"/>
  <outline>
    <contour>
      <point x="310" y="0" type="line"/>
      <point x="966" y="0" type="line"/>
      <point x="1064" y="281" type="line"/>
      <point x="485" y="281" type="line"/>
      <point x="388" y="453" type="line"/>
      <point x="420" y="619" type="line"/>
      <point x="606" y="801" type="line"/>
      <point x="1165" y="801" type="line"/>
      <point x="1176" y="1082" type="line"/>
      <point x="520" y="1082" type="line"/>
      <point x="134" y="713" type="line"/>
      <point x="67" y="369" type="line"/>
    </contour>
    <contour>
      <point x="794" y="1231" type="line"/>
      <point x="1053" y="1441" type="line"/>
      <point x="876" y="1650" type="line"/>
      <point x="616" y="1441" type="line"/>
    </contour>
  </outline>
</glyph>
<glyph name="cedillacomb.alt5" format="2">
  <outline>
    <contour>
      <point x="259" y="-637" type="line"/>
      <point x="453" y="-637" type="line"/>
      <point x="667" y="-474" type="line"/>
      <point x="705" y="-280" type="line"/>
      <point x="557" y="-140" type="line"/>
      <point x="537" y="-140" type="line"/>
      <point x="564" y="-200" type="line"/>
      <point x="612" y="48" type="line"/>
      <point x="432" y="48" type="line"/>
      <point x="364" y="-305" type="line"/>
      <point x="450" y="-305" type="line"/>
      <point x="516" y="-360" type="line"/>
      <point x="509" y="-394" type="line"/>
      <point x="422" y="-449" type="line"/>
      <point x="296" y="-449" type="line"/>
    </contour>
  </outline>
</glyph>
<glyph name="cent.alt1" format="2">
  <advance width="1240"/>
  <outline>
    <contour>
      <point x="422" y="312" type="line"/>
      <point x="295" y="-116" type="line"/>
      <point x="519" y="-116" type="line"/>
      <point x="646" y="312" type="line"/>
    </contour>
    <contour>
      <point x="816" y="524" type="line"/>
      <point x="774" y="426"/>
      <point x="696" y="389"/>
      <point x="600" y="389" type="curve" smooth="yes"/>
      <point x="463" y="389"/>
      <point x="391" y="464"/>
      <point x="432" y="673" type="curve" smooth="yes"/>
      <point x="472" y="880"/>
      <point x="572" y="955"/>
      <point x="711" y="955" type="curve" smooth="yes"/>
      <point x="806" y="955"/>
      <point x="871" y="920"/>
      <point x="873" y="828" type="curve"/>
      <point x="1173" y="851" type="line"/>
      <point x="1162" y="1062"/>
      <point x="1000" y="1183"/>
      <point x="748" y="1183" type="curve" smooth="yes"/>
      <point x="431" y="1183"/>
      <point x="207" y="1001"/>
      <point x="145" y="683" type="curve" smooth="yes"/>
      <point x="83" y="366"/>
      <point x="243" y="161"/>
      <point x="555" y="161" type="curve" smooth="yes"/>
      <point x="802" y="161"/>
      <point x="1011" y="285"/>
      <point x="1104" y="495" type="curve"/>
    </contour>
    <contour>
      <point x="859" y="1029" type="line"/>
      <point x="986" y="1460" type="line"/>
      <point x="762" y="1460" type="line"/>
      <point x="635" y="1029" type="line"/>
    </contour>
    <contour>
      <point x="615" y="240" type="line"/>
      <point x="863" y="1101" type="line"/>
      <point x="666" y="1101" type="line"/>
      <point x="418" y="240" type="line"/>
    </contour>
  </outline>
</glyph>
<glyph name="circumflexcomb.case" format="2">
  <outline>
    <contour>
      <point x="409" y="1620" type="line"/>
      <point x="693" y="1620" type="line"/>
      <point x="894" y="1824" type="line"/>
      <point x="846" y="1824" type="line"/>
      <point x="967" y="1620" type="line"/>
      <point x="1251" y="1620" type="line"/>
      <point x="1073" y="1878" type="line"/>
      <point x="687" y="1878" type="line"/>
    </contour>
  </outline>
</glyph>
<glyph name="colon.alt1" format="2">
  <advance width="1240"/>
  <outline>
    <contour>
      <point x="517" y="-31" type="curve" smooth="yes"/>
      <point x="646" y="-31"/>
      <point x="763" y="51"/>
      <point x="791" y="194" type="curve" smooth="yes"/>
      <point x="819" y="338"/>
      <point x="723" y="429"/>
      <point x="594" y="429" type="curve" smooth="yes"/>
      <point x="463" y="429"/>
      <point x="346" y="350"/>
      <point x="318" y="206" type="curve" smooth="yes"/>
      <point x="290" y="63"/>
      <point x="386" y="-31"/>
    </contour>
    <contour>
      <point x="666" y="738" type="curve" smooth="yes"/>
      <point x="795" y="738"/>
      <point x="912" y="820"/>
      <point x="940" y="963" type="curve" smooth="yes"/>
      <point x="968" y="1107"/>
      <point x="873" y="1198"/>
      <point x="744" y="1198" type="curve" smooth="yes"/>
      <point x="613" y="1198"/>
      <point x="496" y="1119"/>
      <point x="468" y="975" type="curve" smooth="yes"/>
      <point x="440" y="832"/>
      <point x="535" y="738"/>
    </contour>
  </outline>
</glyph>
<glyph name="commaaccentcomb.alt1" format="2">
  <outline>
    <contour>
      <point x="247" y="-494" type="line"/>
      <point x="488" y="-494" type="line"/>
      <point x="503" y="-418" type="line"/>
      <point x="203" y="-721" type="line"/>
      <point x="315" y="-786" type="line"/>
      <point x="588" y="-504" type="line"/>
      <point x="657" y="-151" type="line"/>
      <point x="314" y="-151" type="line"/>
    </contour>
  </outline>
</glyph>
<glyph name="coproduct.alt1" format="2">
  <advance width="1240"/>
  <outline>
    <contour>
      <point x="967" y="1460" type="line"/>
      <point x="605" y="-400" type="line"/>
      <point x="880" y="-400" type="line"/>
      <point x="1242" y="1460" type="line"/>
    </contour>
    <contour>
      <point x="1063" y="-129" type="line"/>
      <point x="-83" y="-129" type="line"/>
      <point x="-136" y="-400" type="line"/>
      <point x="1010" y="-400" type="line"/>
    </contour>
    <contour>
      <point x="356" y="1460" type="line"/>
      <point x="-6" y="-400" type="line"/>
      <point x="269" y="-400" type="line"/>
      <point x="631" y="1460" type="line"/>
    </contour>
  </outline>
</glyph>
<glyph name="daggerdbl.alt1" format="2">
  <advance width="1240"/>
  <outline>
    <contour>
      <point x="637" y="-220" type="line"/>
      <point x="964" y="1460" type="line"/>
      <point x="634" y="1460" type="line"/>
      <point x="307" y="-220" type="line"/>
    </contour>
    <contour>
      <point x="178" y="809" type="line"/>
      <point x="1164" y="809" type="line"/>
      <point x="1217" y="1080" type="line"/>
      <point x="231" y="1080" type="line"/>
    </contour>
    <contour>
      <point x="52" y="160" type="line"/>
      <point x="1038" y="160" type="line"/>
      <point x="1091" y="431" type="line"/>
      <point x="105" y="431" type="line"/>
    </contour>
  </outline>
</glyph>
